M48
METRIC,LZ,000.000
;FILE_FORMAT=3:3
;TYPE=PLATED
;Layer: Drill PTH
;EasyEDA v6.4.19.5, 2021-05-17T00:31:41--5:00
;b9cd662fe4db44708034f4f3ac391bfe,cc9e98987c76477795dbcfaff3885265,10
;Gerber Generator version 0.2
;Holesize 1 = 0.762 mm
T01C0.762
;Holesize 2 = 0.800 mm
T02C0.800
;Holesize 3 = 1.101 mm
T03C1.101
%
G05
G90
T01
X057277Y054483
X057277Y057023
X057277Y059563
X057277Y051943
X057277Y049403
X057277Y046863
X057277Y044323
X057277Y041783
X044577Y041783
X044577Y044323
X044577Y046863
X044577Y049403
X044577Y051943
X044577Y054483
X044577Y057023
X044577Y059563
X085090Y054356
X085090Y056896
X085090Y059436
X085090Y051816
X085090Y049276
X085090Y046736
X085090Y044196
X085090Y041656
X072390Y041656
X072390Y044196
X072390Y046736
X072390Y049276
X072390Y051816
X072390Y054356
X072390Y056896
X072390Y059436
X113157Y054356
X113157Y056896
X113157Y059436
X113157Y051816
X113157Y049276
X113157Y046736
X113157Y044196
X113157Y041656
X100457Y041656
X100457Y044196
X100457Y046736
X100457Y049276
X100457Y051816
X100457Y054356
X100457Y056896
X100457Y059436
X057404Y018923
X057404Y021463
X057404Y024003
X057404Y016383
X057404Y013843
X057404Y011303
X057404Y008763
X057404Y006223
X044704Y006223
X044704Y008763
X044704Y011303
X044704Y013843
X044704Y016383
X044704Y018923
X044704Y021463
X044704Y024003
X085217Y019177
X085217Y021717
X085217Y024257
X085217Y016637
X085217Y014097
X085217Y011557
X085217Y009017
X085217Y006477
X072517Y006477
X072517Y009017
X072517Y011557
X072517Y014097
X072517Y016637
X072517Y019177
X072517Y021717
X072517Y024257
X113157Y018923
X113157Y021463
X113157Y024003
X113157Y016383
X113157Y013843
X113157Y011303
X113157Y008763
X113157Y006223
X100457Y006223
X100457Y008763
X100457Y011303
X100457Y013843
X100457Y016383
X100457Y018923
X100457Y021463
X100457Y024003
T02
X117348Y063865
X117348Y061865
X118618Y027289
X118618Y025289
X089535Y027416
X089535Y025416
X061214Y064627
X061214Y062627
X089408Y063738
X089408Y061738
X062103Y026527
X062103Y024527
T03
X039624Y051816
X039624Y054356
X039624Y056896
X039624Y059436
X068199Y051943
X068199Y054483
X068199Y057023
X068199Y059563
X096520Y051816
X096520Y054356
X096520Y056896
X096520Y059436
X039624Y016383
X039624Y018923
X039624Y021463
X039624Y024003
X068072Y016510
X068072Y019050
X068072Y021590
X068072Y024130
X096647Y016383
X096647Y018923
X096647Y021463
X096647Y024003
X061976Y054483
X061976Y051943
X061976Y049403
X061976Y046863
X090170Y054356
X090170Y051816
X090170Y049276
X090170Y046736
X118110Y054229
X118110Y051689
X118110Y049149
X118110Y046609
X061976Y019050
X061976Y016510
X061976Y013970
X061976Y011430
X090170Y019177
X090170Y016637
X090170Y014097
X090170Y011557
X117729Y018796
X117729Y016256
X117729Y013716
X117729Y011176
X096647Y033655
X094107Y033655
X091567Y033655
X089027Y033655
X086487Y033655
X083947Y033655
X081407Y033655
X078867Y033655
X076327Y033655
X073787Y033655
X071247Y033655
X068707Y033655
X066167Y033655
X063627Y033655
X061087Y033655
X117348Y036449
X119888Y036449
X122428Y036449
X124968Y036449
M30
