G04 Layer: TopLayer*
G04 EasyEDA v6.4.19.5, 2021-05-17T00:31:41--5:00*
G04 b9cd662fe4db44708034f4f3ac391bfe,cc9e98987c76477795dbcfaff3885265,10*
G04 Gerber Generator version 0.2*
G04 Scale: 100 percent, Rotated: No, Reflected: No *
G04 Dimensions in millimeters *
G04 leading zeros omitted , absolute positions ,4 integer and 5 decimal *
%FSLAX45Y45*%
%MOMM*%

%ADD11C,0.2540*%
%ADD12C,1.5000*%
%ADD13C,2.0000*%
%ADD14R,1.7000X1.7000*%
%ADD15C,1.7000*%
%ADD16C,1.5240*%
%ADD17C,1.3000*%

%LPD*%
G36*
X3680714Y152654D02*
G01*
X3676802Y153416D01*
X3673551Y155651D01*
X3671315Y158902D01*
X3670554Y162814D01*
X3670554Y6912864D01*
X3671315Y6916724D01*
X3673500Y6920026D01*
X3676751Y6922211D01*
X3684219Y6925411D01*
X3685387Y6926224D01*
X3690975Y6931304D01*
X3694176Y6933285D01*
X3697833Y6933946D01*
X6181496Y6933946D01*
X6185458Y6933133D01*
X6188811Y6930847D01*
X6190996Y6927443D01*
X6191656Y6923430D01*
X6190691Y6919518D01*
X6188303Y6916216D01*
X6184798Y6914184D01*
X6178448Y6912000D01*
X6171438Y6909053D01*
X6164630Y6905752D01*
X6157976Y6902043D01*
X6151626Y6897928D01*
X6145530Y6893407D01*
X6139688Y6888530D01*
X6134049Y6883247D01*
X5981852Y6731050D01*
X5976569Y6725412D01*
X5971692Y6719570D01*
X5967171Y6713474D01*
X5963056Y6707124D01*
X5959348Y6700469D01*
X5956046Y6693662D01*
X5953099Y6686651D01*
X5950661Y6679488D01*
X5948578Y6672173D01*
X5947003Y6664756D01*
X5945886Y6657238D01*
X5945174Y6649669D01*
X5944971Y6641947D01*
X5945073Y6511391D01*
X5944463Y6507175D01*
X5942126Y6503568D01*
X5656783Y6218224D01*
X5647842Y6208064D01*
X5640527Y6197092D01*
X5634736Y6185306D01*
X5630519Y6172860D01*
X5627928Y6159957D01*
X5627065Y6146444D01*
X5627065Y5970828D01*
X5626100Y5963107D01*
X5626100Y5949492D01*
X5627928Y5936030D01*
X5631484Y5922873D01*
X5636818Y5910376D01*
X5643727Y5898692D01*
X5652160Y5887974D01*
X5661964Y5878525D01*
X5672886Y5870448D01*
X5684824Y5863945D01*
X5697524Y5859018D01*
X5710783Y5855868D01*
X5724296Y5854547D01*
X5737910Y5855004D01*
X5751322Y5857240D01*
X5764276Y5861253D01*
X5776620Y5866993D01*
X5788101Y5874308D01*
X5798515Y5883097D01*
X5807608Y5893206D01*
X5815330Y5904382D01*
X5821426Y5916523D01*
X5825896Y5929376D01*
X5828639Y5942736D01*
X5829554Y5956300D01*
X5828334Y5972200D01*
X5828334Y6100876D01*
X5829147Y6104788D01*
X5831332Y6108090D01*
X6021832Y6298590D01*
X6025134Y6300774D01*
X6028994Y6301536D01*
X6082538Y6301536D01*
X6082538Y6330137D01*
X6083198Y6333744D01*
X6085128Y6336893D01*
X6087973Y6339128D01*
X6091478Y6340246D01*
X6095136Y6339992D01*
X6098743Y6339128D01*
X6113830Y6337300D01*
X6128969Y6337300D01*
X6144056Y6339128D01*
X6147663Y6339992D01*
X6151321Y6340246D01*
X6154826Y6339128D01*
X6157671Y6336893D01*
X6159601Y6333744D01*
X6160262Y6330137D01*
X6160262Y6301536D01*
X6203035Y6301536D01*
X6199886Y6308039D01*
X6192824Y6318504D01*
X6184341Y6327902D01*
X6176721Y6334302D01*
X6174282Y6337350D01*
X6173165Y6341160D01*
X6173571Y6345123D01*
X6175451Y6348577D01*
X6178550Y6351066D01*
X6186373Y6355181D01*
X6198870Y6363817D01*
X6210249Y6373876D01*
X6220307Y6385204D01*
X6228892Y6397701D01*
X6235954Y6411112D01*
X6241338Y6425336D01*
X6246063Y6444234D01*
X6247993Y6446926D01*
X6456426Y6655409D01*
X6458915Y6657187D01*
X6461810Y6658203D01*
X6470548Y6659829D01*
X6485026Y6664350D01*
X6498894Y6670548D01*
X6515557Y6680606D01*
X6518859Y6681165D01*
X8316315Y6681165D01*
X8319617Y6680606D01*
X8336330Y6670548D01*
X8350148Y6664350D01*
X8364626Y6659829D01*
X8373414Y6658203D01*
X8376310Y6657187D01*
X8378748Y6655409D01*
X8657894Y6376212D01*
X8660130Y6372961D01*
X8660892Y6369050D01*
X8660130Y6365138D01*
X8657894Y6361887D01*
X8438083Y6142024D01*
X8429142Y6131864D01*
X8421827Y6120892D01*
X8416036Y6109106D01*
X8411819Y6096660D01*
X8409228Y6083757D01*
X8408365Y6070244D01*
X8408365Y5958128D01*
X8407400Y5950407D01*
X8407400Y5936792D01*
X8409228Y5923330D01*
X8412784Y5910173D01*
X8418118Y5897676D01*
X8425027Y5885992D01*
X8433460Y5875274D01*
X8443264Y5865825D01*
X8454186Y5857748D01*
X8466124Y5851245D01*
X8478824Y5846318D01*
X8492083Y5843168D01*
X8505596Y5841847D01*
X8519210Y5842304D01*
X8532622Y5844540D01*
X8545576Y5848553D01*
X8557920Y5854293D01*
X8569401Y5861608D01*
X8579815Y5870397D01*
X8588908Y5880506D01*
X8596630Y5891682D01*
X8602726Y5903823D01*
X8607196Y5916676D01*
X8609939Y5930036D01*
X8610854Y5943600D01*
X8609634Y5959500D01*
X8609634Y6024676D01*
X8610447Y6028588D01*
X8612632Y6031890D01*
X8850934Y6270193D01*
X8854236Y6272377D01*
X8858097Y6273139D01*
X8862720Y6273139D01*
X8865717Y6272682D01*
X8868460Y6271361D01*
X8875826Y6266281D01*
X8883650Y6262166D01*
X8886748Y6259677D01*
X8888628Y6256223D01*
X8889034Y6252260D01*
X8887917Y6248450D01*
X8885478Y6245402D01*
X8877858Y6239002D01*
X8869375Y6229604D01*
X8862314Y6219139D01*
X8859164Y6212636D01*
X8901938Y6212636D01*
X8901938Y6241237D01*
X8902598Y6244844D01*
X8904528Y6247993D01*
X8907373Y6250228D01*
X8910878Y6251346D01*
X8914536Y6251092D01*
X8918143Y6250228D01*
X8933230Y6248400D01*
X8948369Y6248400D01*
X8963456Y6250228D01*
X8967063Y6251092D01*
X8970721Y6251346D01*
X8974226Y6250228D01*
X8977071Y6247993D01*
X8979001Y6244844D01*
X8979662Y6241237D01*
X8979662Y6212636D01*
X9022435Y6212636D01*
X9019286Y6219139D01*
X9012224Y6229604D01*
X9003741Y6239002D01*
X8996121Y6245402D01*
X8993682Y6248450D01*
X8992565Y6252260D01*
X8992971Y6256223D01*
X8994851Y6259677D01*
X8997950Y6262166D01*
X9005773Y6266281D01*
X9018270Y6274917D01*
X9029852Y6285179D01*
X9359747Y6615074D01*
X9363049Y6617258D01*
X9366961Y6618020D01*
X9653524Y6618020D01*
X9657892Y6617055D01*
X9661398Y6614312D01*
X9663379Y6610350D01*
X9663480Y6605879D01*
X9661702Y6601815D01*
X9658299Y6598920D01*
X9656114Y6597751D01*
X9649917Y6592671D01*
X9180728Y6123482D01*
X9175648Y6117285D01*
X9172092Y6110681D01*
X9169908Y6103467D01*
X9169146Y6095492D01*
X9169146Y4566716D01*
X9168384Y4562805D01*
X9166148Y4559503D01*
X9067596Y4460951D01*
X9064294Y4458716D01*
X9060383Y4457954D01*
X8609685Y4457954D01*
X8606078Y4458614D01*
X8602878Y4460595D01*
X8600643Y4463542D01*
X8596630Y4471517D01*
X8588908Y4482693D01*
X8579815Y4492802D01*
X8569401Y4501591D01*
X8557920Y4508906D01*
X8545576Y4514646D01*
X8532622Y4518660D01*
X8519210Y4520895D01*
X8505596Y4521352D01*
X8492083Y4520031D01*
X8478824Y4516882D01*
X8475726Y4515662D01*
X8471916Y4515002D01*
X8468106Y4515764D01*
X8464905Y4517948D01*
X8207451Y4775403D01*
X8205216Y4778705D01*
X8204453Y4782616D01*
X8204453Y5828792D01*
X8203692Y5836767D01*
X8201507Y5843981D01*
X8197951Y5850585D01*
X8192871Y5856782D01*
X7418882Y6630771D01*
X7412685Y6635851D01*
X7406081Y6639407D01*
X7398867Y6641592D01*
X7390892Y6642353D01*
X6871208Y6642353D01*
X6863232Y6641592D01*
X6856018Y6639407D01*
X6849414Y6635851D01*
X6843217Y6630771D01*
X6361328Y6148882D01*
X6356248Y6142685D01*
X6352692Y6136081D01*
X6350508Y6128867D01*
X6349746Y6120892D01*
X6349746Y4554016D01*
X6348984Y4550105D01*
X6346748Y4546803D01*
X6273596Y4473651D01*
X6270294Y4471416D01*
X6266383Y4470654D01*
X5828385Y4470654D01*
X5824778Y4471314D01*
X5821578Y4473295D01*
X5819343Y4476242D01*
X5815330Y4484217D01*
X5807608Y4495393D01*
X5798515Y4505502D01*
X5788101Y4514291D01*
X5776620Y4521606D01*
X5764276Y4527346D01*
X5751322Y4531360D01*
X5737910Y4533595D01*
X5724296Y4534052D01*
X5710783Y4532731D01*
X5697524Y4529582D01*
X5684824Y4524654D01*
X5672886Y4518152D01*
X5661964Y4510074D01*
X5652160Y4500626D01*
X5643727Y4489907D01*
X5636818Y4478223D01*
X5631484Y4465726D01*
X5627928Y4452569D01*
X5626100Y4439107D01*
X5626100Y4425492D01*
X5627928Y4412030D01*
X5631484Y4398873D01*
X5636818Y4386376D01*
X5643727Y4374692D01*
X5652160Y4363974D01*
X5661964Y4354525D01*
X5672886Y4346448D01*
X5684824Y4339945D01*
X5697524Y4335018D01*
X5710783Y4331868D01*
X5724296Y4330547D01*
X5737910Y4331004D01*
X5751322Y4333240D01*
X5764276Y4337253D01*
X5776620Y4342993D01*
X5788101Y4350308D01*
X5798515Y4359097D01*
X5807608Y4369206D01*
X5815330Y4380382D01*
X5819343Y4388358D01*
X5821578Y4391304D01*
X5824778Y4393285D01*
X5828385Y4393946D01*
X6285992Y4393946D01*
X6293967Y4394708D01*
X6301181Y4396892D01*
X6307785Y4400448D01*
X6313982Y4405528D01*
X6414871Y4506417D01*
X6419951Y4512614D01*
X6423507Y4519218D01*
X6425692Y4526432D01*
X6426454Y4534408D01*
X6426454Y6101283D01*
X6427216Y6105194D01*
X6429451Y6108496D01*
X6883603Y6562648D01*
X6886905Y6564884D01*
X6890816Y6565646D01*
X7371283Y6565646D01*
X7375194Y6564884D01*
X7378496Y6562648D01*
X8124748Y5816396D01*
X8126984Y5813094D01*
X8127746Y5809183D01*
X8127746Y4763008D01*
X8128508Y4755032D01*
X8130692Y4747818D01*
X8134248Y4741214D01*
X8139328Y4735017D01*
X8410498Y4463846D01*
X8412530Y4460951D01*
X8413445Y4457496D01*
X8413089Y4453940D01*
X8409228Y4439869D01*
X8407400Y4426407D01*
X8407400Y4412792D01*
X8409228Y4399330D01*
X8412784Y4386173D01*
X8418118Y4373676D01*
X8425027Y4361992D01*
X8433460Y4351274D01*
X8443264Y4341825D01*
X8454186Y4333748D01*
X8466124Y4327245D01*
X8478824Y4322318D01*
X8492083Y4319168D01*
X8505596Y4317847D01*
X8519210Y4318304D01*
X8532622Y4320540D01*
X8545576Y4324553D01*
X8557920Y4330293D01*
X8569401Y4337608D01*
X8579815Y4346397D01*
X8588908Y4356506D01*
X8596630Y4367682D01*
X8600643Y4375658D01*
X8602878Y4378604D01*
X8606078Y4380585D01*
X8609685Y4381246D01*
X9079992Y4381246D01*
X9087967Y4382008D01*
X9095181Y4384192D01*
X9101785Y4387748D01*
X9107982Y4392828D01*
X9234271Y4519117D01*
X9239351Y4525314D01*
X9242907Y4531918D01*
X9245092Y4539132D01*
X9245854Y4547108D01*
X9245854Y6075883D01*
X9246616Y6079794D01*
X9248851Y6083096D01*
X9690303Y6524548D01*
X9693605Y6526784D01*
X9697516Y6527546D01*
X10127538Y6527546D01*
X10130942Y6526936D01*
X10133990Y6525259D01*
X10138714Y6521348D01*
X10145318Y6517792D01*
X10152532Y6515607D01*
X10160508Y6514846D01*
X10165283Y6514846D01*
X10169194Y6514084D01*
X10172496Y6511848D01*
X10893348Y5790996D01*
X10895584Y5787694D01*
X10896346Y5783783D01*
X10896346Y4801108D01*
X10897108Y4793132D01*
X10899292Y4785918D01*
X10902848Y4779314D01*
X10907928Y4773117D01*
X11217198Y4463846D01*
X11219230Y4460951D01*
X11220145Y4457496D01*
X11219789Y4453940D01*
X11215928Y4439869D01*
X11214100Y4426407D01*
X11214100Y4412792D01*
X11215928Y4399330D01*
X11219484Y4386173D01*
X11224818Y4373676D01*
X11231727Y4361992D01*
X11240160Y4351274D01*
X11249964Y4341825D01*
X11260886Y4333748D01*
X11272824Y4327245D01*
X11285524Y4322318D01*
X11298783Y4319168D01*
X11312296Y4317847D01*
X11325910Y4318304D01*
X11339322Y4320540D01*
X11349634Y4323740D01*
X11353292Y4324197D01*
X11356797Y4323283D01*
X11359845Y4321251D01*
X11515648Y4165396D01*
X11517884Y4162094D01*
X11518646Y4158183D01*
X11518646Y3436416D01*
X11517884Y3432505D01*
X11515648Y3429203D01*
X11010696Y2924251D01*
X11007394Y2922016D01*
X11003483Y2921254D01*
X9659416Y2921254D01*
X9655505Y2922016D01*
X9652203Y2924251D01*
X9262008Y3314446D01*
X9259874Y3317544D01*
X9259011Y3321151D01*
X9259519Y3324860D01*
X9263735Y3337458D01*
X9266428Y3351377D01*
X9267342Y3365500D01*
X9266428Y3379622D01*
X9263735Y3393541D01*
X9259265Y3407003D01*
X9253118Y3419805D01*
X9245346Y3431692D01*
X9236151Y3442462D01*
X9225686Y3452012D01*
X9214053Y3460089D01*
X9201505Y3466642D01*
X9188196Y3471570D01*
X9174378Y3474720D01*
X9160256Y3476091D01*
X9146082Y3475634D01*
X9132062Y3473348D01*
X9118498Y3469335D01*
X9105544Y3463594D01*
X9093403Y3456228D01*
X9082328Y3447389D01*
X9072473Y3437229D01*
X9063990Y3425850D01*
X9057030Y3413506D01*
X9051696Y3400348D01*
X9048089Y3386632D01*
X9046311Y3372612D01*
X9046311Y3358387D01*
X9048089Y3344367D01*
X9051696Y3330651D01*
X9057030Y3317494D01*
X9063990Y3305149D01*
X9072473Y3293770D01*
X9082328Y3283610D01*
X9093403Y3274771D01*
X9105544Y3267405D01*
X9118498Y3261664D01*
X9132062Y3257651D01*
X9146082Y3255365D01*
X9160256Y3254908D01*
X9174378Y3256279D01*
X9188196Y3259429D01*
X9196933Y3262680D01*
X9200743Y3263290D01*
X9204452Y3262477D01*
X9207652Y3260293D01*
X9611817Y2856128D01*
X9618014Y2851048D01*
X9624618Y2847492D01*
X9631832Y2845308D01*
X9639808Y2844546D01*
X10975086Y2844546D01*
X10978997Y2843784D01*
X10982248Y2841548D01*
X10984484Y2838297D01*
X10985246Y2834386D01*
X10985246Y1067308D01*
X10986008Y1059332D01*
X10988192Y1052118D01*
X10991748Y1045514D01*
X10996828Y1039317D01*
X11186617Y849528D01*
X11192814Y844448D01*
X11199418Y840892D01*
X11203635Y839622D01*
X11207292Y837641D01*
X11209832Y834339D01*
X11210848Y830326D01*
X11210188Y826211D01*
X11207902Y822706D01*
X10921796Y536651D01*
X10918494Y534416D01*
X10914583Y533654D01*
X10125405Y533654D01*
X10121595Y534416D01*
X10118344Y536498D01*
X10116108Y539699D01*
X10115245Y543458D01*
X10115854Y547319D01*
X10117886Y550621D01*
X10125608Y559206D01*
X10133330Y570382D01*
X10139426Y582523D01*
X10143896Y595376D01*
X10146639Y608736D01*
X10147554Y622300D01*
X10146639Y635863D01*
X10143896Y649224D01*
X10139426Y662076D01*
X10133330Y674217D01*
X10125608Y685393D01*
X10116515Y695502D01*
X10106101Y704291D01*
X10094620Y711606D01*
X10082276Y717346D01*
X10069322Y721360D01*
X10055910Y723595D01*
X10042296Y724052D01*
X10028783Y722731D01*
X10015524Y719582D01*
X10002824Y714654D01*
X9990886Y708152D01*
X9979964Y700074D01*
X9970160Y690626D01*
X9961727Y679907D01*
X9952024Y663600D01*
X9948722Y661416D01*
X9944862Y660654D01*
X9837216Y660654D01*
X9833305Y661416D01*
X9830003Y663651D01*
X9566351Y927303D01*
X9564116Y930605D01*
X9563354Y934516D01*
X9563354Y1518158D01*
X9564217Y1522323D01*
X9566757Y1525778D01*
X9570415Y1527860D01*
X9574631Y1528267D01*
X9580270Y1527657D01*
X9749129Y1527657D01*
X9755378Y1528368D01*
X9760813Y1530248D01*
X9765639Y1533296D01*
X9767011Y1534668D01*
X9770313Y1536852D01*
X9774224Y1537665D01*
X10030663Y1537665D01*
X10042296Y1536547D01*
X10055910Y1537004D01*
X10069322Y1539240D01*
X10082276Y1543253D01*
X10094620Y1548993D01*
X10106101Y1556308D01*
X10116515Y1565097D01*
X10125608Y1575206D01*
X10133330Y1586382D01*
X10139426Y1598523D01*
X10143896Y1611376D01*
X10146639Y1624736D01*
X10147554Y1638300D01*
X10146639Y1651863D01*
X10143896Y1665224D01*
X10139426Y1678076D01*
X10133330Y1690217D01*
X10125608Y1701393D01*
X10116515Y1711502D01*
X10106101Y1720291D01*
X10094620Y1727606D01*
X10082276Y1733346D01*
X10069322Y1737360D01*
X10055910Y1739595D01*
X10042296Y1740052D01*
X10030663Y1738934D01*
X9774224Y1738934D01*
X9770313Y1739747D01*
X9767011Y1741932D01*
X9765639Y1743303D01*
X9760813Y1746351D01*
X9755378Y1748231D01*
X9749129Y1748942D01*
X9580270Y1748942D01*
X9574631Y1748332D01*
X9570415Y1748739D01*
X9566757Y1750822D01*
X9564217Y1754276D01*
X9563354Y1758442D01*
X9563354Y1813255D01*
X9564217Y1817319D01*
X9566605Y1820722D01*
X9570161Y1822856D01*
X9574276Y1823415D01*
X9578238Y1822246D01*
X9581438Y1819605D01*
X9582810Y1817928D01*
X9592970Y1808073D01*
X9604349Y1799589D01*
X9616694Y1792630D01*
X9629851Y1787296D01*
X9643567Y1783689D01*
X9657588Y1781911D01*
X9671812Y1781911D01*
X9685832Y1783689D01*
X9699548Y1787296D01*
X9708438Y1790903D01*
X9712248Y1791665D01*
X10030663Y1791665D01*
X10042296Y1790547D01*
X10055910Y1791004D01*
X10069322Y1793239D01*
X10082276Y1797253D01*
X10094620Y1802993D01*
X10106101Y1810308D01*
X10116515Y1819097D01*
X10125608Y1829206D01*
X10133330Y1840382D01*
X10139426Y1852523D01*
X10143896Y1865375D01*
X10146639Y1878736D01*
X10147554Y1892300D01*
X10146639Y1905863D01*
X10143896Y1919224D01*
X10139426Y1932076D01*
X10133330Y1944217D01*
X10125608Y1955393D01*
X10116515Y1965502D01*
X10106101Y1974291D01*
X10094620Y1981606D01*
X10082276Y1987346D01*
X10069322Y1991360D01*
X10055910Y1993595D01*
X10042296Y1994052D01*
X10030663Y1992934D01*
X9712452Y1992934D01*
X9708083Y1993950D01*
X9706203Y1994865D01*
X9692741Y1999335D01*
X9678822Y2002028D01*
X9664700Y2002942D01*
X9650577Y2002028D01*
X9636658Y1999335D01*
X9623196Y1994865D01*
X9610394Y1988718D01*
X9598507Y1980946D01*
X9587738Y1971751D01*
X9581032Y1964385D01*
X9577781Y1961997D01*
X9573818Y1961083D01*
X9569856Y1961743D01*
X9566452Y1963928D01*
X9564166Y1967280D01*
X9563354Y1971243D01*
X9563354Y2067255D01*
X9564217Y2071319D01*
X9566605Y2074722D01*
X9570161Y2076856D01*
X9574276Y2077415D01*
X9578238Y2076246D01*
X9581438Y2073605D01*
X9582810Y2071928D01*
X9592970Y2062073D01*
X9604349Y2053589D01*
X9616694Y2046630D01*
X9629851Y2041296D01*
X9643567Y2037689D01*
X9657588Y2035911D01*
X9671812Y2035911D01*
X9685832Y2037689D01*
X9699548Y2041296D01*
X9708438Y2044903D01*
X9712248Y2045665D01*
X10030663Y2045665D01*
X10042296Y2044547D01*
X10055910Y2045004D01*
X10069322Y2047239D01*
X10082276Y2051253D01*
X10094620Y2056993D01*
X10106101Y2064308D01*
X10116515Y2073097D01*
X10125608Y2083206D01*
X10133330Y2094382D01*
X10139426Y2106523D01*
X10143896Y2119376D01*
X10146639Y2132736D01*
X10147554Y2146300D01*
X10146639Y2159863D01*
X10143896Y2173224D01*
X10139426Y2186076D01*
X10133330Y2198217D01*
X10125608Y2209393D01*
X10116515Y2219502D01*
X10106101Y2228291D01*
X10094620Y2235606D01*
X10082276Y2241346D01*
X10069322Y2245360D01*
X10055910Y2247595D01*
X10042296Y2248052D01*
X10030663Y2246934D01*
X9712452Y2246934D01*
X9708083Y2247950D01*
X9706203Y2248865D01*
X9692741Y2253335D01*
X9678822Y2256028D01*
X9664700Y2256942D01*
X9650577Y2256028D01*
X9636658Y2253335D01*
X9623196Y2248865D01*
X9610394Y2242718D01*
X9598507Y2234946D01*
X9587738Y2225751D01*
X9581032Y2218385D01*
X9577781Y2215997D01*
X9573818Y2215083D01*
X9569856Y2215743D01*
X9566452Y2217928D01*
X9564166Y2221280D01*
X9563354Y2225243D01*
X9563354Y2321255D01*
X9564217Y2325319D01*
X9566605Y2328722D01*
X9570161Y2330856D01*
X9574276Y2331415D01*
X9578238Y2330246D01*
X9581438Y2327605D01*
X9582810Y2325928D01*
X9592970Y2316073D01*
X9604349Y2307590D01*
X9616694Y2300630D01*
X9629851Y2295296D01*
X9643567Y2291689D01*
X9657588Y2289911D01*
X9671812Y2289911D01*
X9685832Y2291689D01*
X9699548Y2295296D01*
X9708438Y2298903D01*
X9712248Y2299665D01*
X10030663Y2299665D01*
X10042296Y2298547D01*
X10055910Y2299004D01*
X10069322Y2301240D01*
X10082276Y2305253D01*
X10094620Y2310993D01*
X10106101Y2318308D01*
X10116515Y2327097D01*
X10125608Y2337206D01*
X10133330Y2348382D01*
X10139426Y2360523D01*
X10143896Y2373376D01*
X10146639Y2386736D01*
X10147554Y2400300D01*
X10146639Y2413863D01*
X10143896Y2427224D01*
X10139426Y2440076D01*
X10133330Y2452217D01*
X10125608Y2463393D01*
X10116515Y2473502D01*
X10106101Y2482291D01*
X10094620Y2489606D01*
X10082276Y2495346D01*
X10069322Y2499360D01*
X10055910Y2501595D01*
X10042296Y2502052D01*
X10030663Y2500934D01*
X9712452Y2500934D01*
X9708083Y2501950D01*
X9706203Y2502865D01*
X9692741Y2507335D01*
X9678822Y2510028D01*
X9664700Y2510942D01*
X9650577Y2510028D01*
X9636658Y2507335D01*
X9623196Y2502865D01*
X9610394Y2496718D01*
X9598507Y2488946D01*
X9587738Y2479751D01*
X9581032Y2472385D01*
X9577781Y2469997D01*
X9573818Y2469083D01*
X9569856Y2469743D01*
X9566452Y2471928D01*
X9564166Y2475280D01*
X9563354Y2479243D01*
X9563354Y2488692D01*
X9562592Y2496667D01*
X9560407Y2503881D01*
X9556851Y2510485D01*
X9551771Y2516682D01*
X8754008Y3314446D01*
X8751874Y3317544D01*
X8751011Y3321151D01*
X8751519Y3324860D01*
X8755735Y3337458D01*
X8758428Y3351377D01*
X8759342Y3365500D01*
X8758428Y3379622D01*
X8755735Y3393541D01*
X8751265Y3407003D01*
X8745118Y3419805D01*
X8737346Y3431692D01*
X8728151Y3442462D01*
X8717686Y3452012D01*
X8706053Y3460089D01*
X8693505Y3466642D01*
X8680196Y3471570D01*
X8666378Y3474720D01*
X8652256Y3476091D01*
X8638082Y3475634D01*
X8624062Y3473348D01*
X8610498Y3469335D01*
X8597544Y3463594D01*
X8585403Y3456228D01*
X8574328Y3447389D01*
X8564473Y3437229D01*
X8555990Y3425850D01*
X8549030Y3413506D01*
X8543696Y3400348D01*
X8540089Y3386632D01*
X8538311Y3372612D01*
X8538311Y3358387D01*
X8540089Y3344367D01*
X8543696Y3330651D01*
X8549030Y3317494D01*
X8555990Y3305149D01*
X8564473Y3293770D01*
X8574328Y3283610D01*
X8585403Y3274771D01*
X8597544Y3267405D01*
X8610498Y3261664D01*
X8624062Y3257651D01*
X8638082Y3255365D01*
X8652256Y3254908D01*
X8666378Y3256279D01*
X8680196Y3259429D01*
X8688933Y3262680D01*
X8692743Y3263290D01*
X8696452Y3262477D01*
X8699652Y3260293D01*
X9483648Y2476296D01*
X9485884Y2472994D01*
X9486646Y2469083D01*
X9486646Y914908D01*
X9487408Y906932D01*
X9489592Y899718D01*
X9493148Y893114D01*
X9498228Y886917D01*
X9789617Y595528D01*
X9795814Y590448D01*
X9802418Y586892D01*
X9809632Y584708D01*
X9817608Y583946D01*
X9944862Y583946D01*
X9948722Y583184D01*
X9952024Y580999D01*
X9961727Y564692D01*
X9970160Y553974D01*
X9973157Y551129D01*
X9975443Y547827D01*
X9976256Y543915D01*
X9975494Y540004D01*
X9973310Y536651D01*
X9970008Y534416D01*
X9966096Y533654D01*
X8948216Y533654D01*
X8944305Y534416D01*
X8941003Y536651D01*
X8619998Y857605D01*
X8617915Y860755D01*
X8617051Y864412D01*
X8617610Y868121D01*
X8619896Y874776D01*
X8622639Y888136D01*
X8623554Y901700D01*
X8622639Y915263D01*
X8619896Y928624D01*
X8615426Y941476D01*
X8609330Y953617D01*
X8601608Y964793D01*
X8592515Y974902D01*
X8582101Y983691D01*
X8570620Y991006D01*
X8558276Y996746D01*
X8545322Y1000760D01*
X8531910Y1002995D01*
X8518296Y1003452D01*
X8504783Y1002131D01*
X8491524Y998982D01*
X8478824Y994054D01*
X8466886Y987552D01*
X8455964Y979474D01*
X8446160Y970026D01*
X8437727Y959307D01*
X8430818Y947623D01*
X8426145Y936650D01*
X8424926Y934516D01*
X8423249Y932738D01*
X8418423Y928776D01*
X8413648Y922985D01*
X8410092Y916381D01*
X8407908Y909167D01*
X8407196Y901700D01*
X8407908Y894232D01*
X8410092Y887018D01*
X8413648Y880414D01*
X8418423Y874623D01*
X8421827Y871829D01*
X8424418Y868527D01*
X8425535Y864463D01*
X8424824Y860298D01*
X8422538Y856792D01*
X8115096Y549351D01*
X8111794Y547116D01*
X8107883Y546354D01*
X7316571Y546354D01*
X7312355Y547268D01*
X7308900Y549859D01*
X7306818Y553669D01*
X7306513Y557987D01*
X7308037Y562051D01*
X7322515Y574497D01*
X7331608Y584606D01*
X7339330Y595782D01*
X7345425Y607923D01*
X7349896Y620776D01*
X7352639Y634136D01*
X7353553Y647700D01*
X7352639Y661263D01*
X7349896Y674624D01*
X7347610Y681278D01*
X7347051Y684987D01*
X7347915Y688644D01*
X7349998Y691794D01*
X7900771Y1242517D01*
X7905851Y1248714D01*
X7909407Y1255318D01*
X7911592Y1262532D01*
X7912353Y1270508D01*
X7912353Y2608783D01*
X7913116Y2612694D01*
X7915351Y2615996D01*
X8421471Y3122117D01*
X8426551Y3128314D01*
X8430107Y3134918D01*
X8432292Y3142132D01*
X8433054Y3150108D01*
X8433054Y3254857D01*
X8433714Y3258515D01*
X8435644Y3261664D01*
X8438540Y3263900D01*
X8452053Y3270910D01*
X8463686Y3278987D01*
X8474151Y3288537D01*
X8483346Y3299307D01*
X8491118Y3311194D01*
X8497265Y3323996D01*
X8501735Y3337458D01*
X8504428Y3351377D01*
X8505342Y3365500D01*
X8504428Y3379622D01*
X8501735Y3393541D01*
X8497265Y3407003D01*
X8491118Y3419805D01*
X8483346Y3431692D01*
X8474151Y3442462D01*
X8463686Y3452012D01*
X8452053Y3460089D01*
X8439505Y3466642D01*
X8426196Y3471570D01*
X8412378Y3474720D01*
X8398256Y3476091D01*
X8384082Y3475634D01*
X8370062Y3473348D01*
X8356498Y3469335D01*
X8343544Y3463594D01*
X8331403Y3456228D01*
X8320328Y3447389D01*
X8310473Y3437229D01*
X8301990Y3425850D01*
X8295030Y3413506D01*
X8289696Y3400348D01*
X8286089Y3386632D01*
X8284311Y3372612D01*
X8284311Y3358387D01*
X8286089Y3344367D01*
X8289696Y3330651D01*
X8295030Y3317494D01*
X8301990Y3305149D01*
X8310473Y3293770D01*
X8320328Y3283610D01*
X8331403Y3274771D01*
X8343544Y3267405D01*
X8350300Y3264408D01*
X8353501Y3262172D01*
X8355584Y3258921D01*
X8356346Y3255111D01*
X8356346Y3169716D01*
X8355584Y3165805D01*
X8353348Y3162503D01*
X7847228Y2656382D01*
X7842148Y2650185D01*
X7838592Y2643581D01*
X7836408Y2636367D01*
X7835646Y2628392D01*
X7835646Y1290116D01*
X7834884Y1286205D01*
X7832648Y1282903D01*
X7295845Y746048D01*
X7292797Y744016D01*
X7289292Y743102D01*
X7285634Y743559D01*
X7275322Y746760D01*
X7261910Y748995D01*
X7248296Y749452D01*
X7234783Y748131D01*
X7221524Y744982D01*
X7208824Y740054D01*
X7196886Y733552D01*
X7185964Y725474D01*
X7176160Y716026D01*
X7167727Y705307D01*
X7160818Y693623D01*
X7155484Y681126D01*
X7151928Y667969D01*
X7150100Y654507D01*
X7150100Y640892D01*
X7151928Y627430D01*
X7155484Y614273D01*
X7160818Y601776D01*
X7167727Y590092D01*
X7176160Y579374D01*
X7185964Y569925D01*
X7193076Y564692D01*
X7195870Y561543D01*
X7197140Y557530D01*
X7196683Y553364D01*
X7194600Y549706D01*
X7191146Y547217D01*
X7187031Y546354D01*
X6128816Y546354D01*
X6124905Y547116D01*
X6121603Y549351D01*
X5838698Y832205D01*
X5836615Y835355D01*
X5835751Y839012D01*
X5836310Y842721D01*
X5838596Y849376D01*
X5841339Y862736D01*
X5842254Y876300D01*
X5841339Y889863D01*
X5838596Y903224D01*
X5834126Y916076D01*
X5828030Y928217D01*
X5820308Y939393D01*
X5811215Y949502D01*
X5800801Y958291D01*
X5789320Y965606D01*
X5776976Y971346D01*
X5764022Y975360D01*
X5750610Y977595D01*
X5736996Y978052D01*
X5723483Y976731D01*
X5710224Y973582D01*
X5697524Y968654D01*
X5685586Y962152D01*
X5674664Y954074D01*
X5664860Y944626D01*
X5656427Y933907D01*
X5649518Y922223D01*
X5644184Y909726D01*
X5640628Y896569D01*
X5638800Y883107D01*
X5638800Y869492D01*
X5640628Y856030D01*
X5644184Y842873D01*
X5649518Y830376D01*
X5656427Y818692D01*
X5664860Y807974D01*
X5674664Y798525D01*
X5685586Y790448D01*
X5697524Y783945D01*
X5710224Y779018D01*
X5723483Y775868D01*
X5736996Y774547D01*
X5750610Y775004D01*
X5764022Y777240D01*
X5774334Y780440D01*
X5777992Y780897D01*
X5781497Y779983D01*
X5784545Y777951D01*
X6081217Y481228D01*
X6087414Y476148D01*
X6094018Y472592D01*
X6101232Y470408D01*
X6109208Y469646D01*
X8127492Y469646D01*
X8135467Y470408D01*
X8142681Y472592D01*
X8149285Y476148D01*
X8155482Y481228D01*
X8477605Y803351D01*
X8480806Y805535D01*
X8484616Y806297D01*
X8488426Y805637D01*
X8491524Y804418D01*
X8504783Y801268D01*
X8518296Y799947D01*
X8531910Y800404D01*
X8545322Y802640D01*
X8555634Y805840D01*
X8559292Y806297D01*
X8562797Y805383D01*
X8565845Y803351D01*
X8900617Y468528D01*
X8906814Y463448D01*
X8913418Y459892D01*
X8920632Y457708D01*
X8928608Y456946D01*
X10934192Y456946D01*
X10942167Y457708D01*
X10949381Y459892D01*
X10955985Y463448D01*
X10962182Y468528D01*
X11271605Y777951D01*
X11274806Y780135D01*
X11278616Y780897D01*
X11282426Y780237D01*
X11285524Y779018D01*
X11298783Y775868D01*
X11312296Y774547D01*
X11325910Y775004D01*
X11339322Y777240D01*
X11352276Y781253D01*
X11364620Y786993D01*
X11376101Y794308D01*
X11386515Y803097D01*
X11395608Y813206D01*
X11403330Y824382D01*
X11409426Y836523D01*
X11413896Y849376D01*
X11416639Y862736D01*
X11417554Y876300D01*
X11416639Y889863D01*
X11413896Y903224D01*
X11409426Y916076D01*
X11403330Y928217D01*
X11395608Y939393D01*
X11386515Y949502D01*
X11376101Y958291D01*
X11364620Y965606D01*
X11352276Y971346D01*
X11339322Y975360D01*
X11325910Y977595D01*
X11312296Y978052D01*
X11298783Y976731D01*
X11285524Y973582D01*
X11272824Y968654D01*
X11260886Y962152D01*
X11249964Y954074D01*
X11240160Y944626D01*
X11231727Y933907D01*
X11230610Y931976D01*
X11228171Y929182D01*
X11224920Y927455D01*
X11221262Y926998D01*
X11217706Y927862D01*
X11214658Y929995D01*
X11064951Y1079703D01*
X11062716Y1083005D01*
X11061954Y1086916D01*
X11061954Y2862783D01*
X11062716Y2866694D01*
X11064951Y2869996D01*
X11583771Y3388817D01*
X11588851Y3395014D01*
X11592407Y3401618D01*
X11594592Y3408832D01*
X11595354Y3416808D01*
X11595354Y4177792D01*
X11594592Y4185767D01*
X11592407Y4192981D01*
X11588851Y4199585D01*
X11583771Y4205782D01*
X11413998Y4375505D01*
X11411915Y4378655D01*
X11411051Y4382312D01*
X11411610Y4386021D01*
X11413896Y4392676D01*
X11416639Y4406036D01*
X11417554Y4419600D01*
X11416639Y4433163D01*
X11413896Y4446524D01*
X11409426Y4459376D01*
X11403330Y4471517D01*
X11395608Y4482693D01*
X11386515Y4492802D01*
X11376101Y4501591D01*
X11364620Y4508906D01*
X11352276Y4514646D01*
X11339322Y4518660D01*
X11325910Y4520895D01*
X11312296Y4521352D01*
X11298783Y4520031D01*
X11285524Y4516882D01*
X11282426Y4515662D01*
X11278616Y4515002D01*
X11274806Y4515764D01*
X11271605Y4517948D01*
X10976051Y4813503D01*
X10973816Y4816805D01*
X10973054Y4820716D01*
X10973054Y5803392D01*
X10972292Y5811367D01*
X10970107Y5818581D01*
X10966551Y5825185D01*
X10961471Y5831382D01*
X10212882Y6579971D01*
X10206685Y6585051D01*
X10200081Y6588607D01*
X10192867Y6590792D01*
X10184892Y6591553D01*
X10179761Y6591553D01*
X10176357Y6592163D01*
X10173309Y6593840D01*
X10168585Y6597751D01*
X10166400Y6598920D01*
X10162997Y6601815D01*
X10161219Y6605879D01*
X10161320Y6610350D01*
X10163302Y6614312D01*
X10166807Y6617055D01*
X10171176Y6618020D01*
X11218621Y6618020D01*
X11222482Y6617258D01*
X11225784Y6615074D01*
X11458244Y6382562D01*
X11460480Y6379311D01*
X11461242Y6375400D01*
X11460480Y6371488D01*
X11458244Y6368237D01*
X11244783Y6154724D01*
X11235842Y6144564D01*
X11228527Y6133592D01*
X11222736Y6121806D01*
X11218519Y6109360D01*
X11215928Y6096457D01*
X11215065Y6082944D01*
X11215065Y5958128D01*
X11214100Y5950407D01*
X11214100Y5936792D01*
X11215928Y5923330D01*
X11219484Y5910173D01*
X11224818Y5897676D01*
X11231727Y5885992D01*
X11240160Y5875274D01*
X11249964Y5865825D01*
X11260886Y5857748D01*
X11272824Y5851245D01*
X11285524Y5846318D01*
X11298783Y5843168D01*
X11312296Y5841847D01*
X11325910Y5842304D01*
X11339322Y5844540D01*
X11352276Y5848553D01*
X11364620Y5854293D01*
X11376101Y5861608D01*
X11386515Y5870397D01*
X11395608Y5880506D01*
X11403330Y5891682D01*
X11409426Y5903823D01*
X11413896Y5916676D01*
X11416639Y5930036D01*
X11417554Y5943600D01*
X11416334Y5959500D01*
X11416334Y6037376D01*
X11417147Y6041288D01*
X11419332Y6044590D01*
X11654282Y6279540D01*
X11657177Y6281572D01*
X11660581Y6282486D01*
X11664086Y6282182D01*
X11667286Y6280759D01*
X11669826Y6278981D01*
X11677650Y6274866D01*
X11680748Y6272377D01*
X11682628Y6268923D01*
X11683034Y6264960D01*
X11681917Y6261150D01*
X11679478Y6258102D01*
X11671858Y6251702D01*
X11663375Y6242304D01*
X11656314Y6231839D01*
X11653164Y6225336D01*
X11695938Y6225336D01*
X11695938Y6253937D01*
X11696598Y6257544D01*
X11698528Y6260693D01*
X11701373Y6262928D01*
X11704878Y6264046D01*
X11708536Y6263792D01*
X11712143Y6262928D01*
X11727230Y6261100D01*
X11742369Y6261100D01*
X11757456Y6262928D01*
X11761063Y6263792D01*
X11764721Y6264046D01*
X11768226Y6262928D01*
X11771071Y6260693D01*
X11773001Y6257544D01*
X11773662Y6253937D01*
X11773662Y6225336D01*
X11816435Y6225336D01*
X11813286Y6231839D01*
X11806224Y6242304D01*
X11797741Y6251702D01*
X11790121Y6258102D01*
X11787682Y6261150D01*
X11786565Y6264960D01*
X11786971Y6268923D01*
X11788851Y6272377D01*
X11791950Y6274866D01*
X11799773Y6278981D01*
X11807139Y6284061D01*
X11809882Y6285382D01*
X11812879Y6285839D01*
X11868302Y6285839D01*
X11872163Y6285077D01*
X11875465Y6282893D01*
X12253468Y5904890D01*
X12255652Y5901588D01*
X12256465Y5897676D01*
X12256465Y3765651D01*
X12255703Y3761841D01*
X12253569Y3758590D01*
X12250420Y3756355D01*
X12246610Y3755491D01*
X12232182Y3755034D01*
X12218162Y3752748D01*
X12204598Y3748735D01*
X12191644Y3742994D01*
X12179503Y3735628D01*
X12168428Y3726789D01*
X12158573Y3716629D01*
X12150090Y3705250D01*
X12143130Y3692906D01*
X12137796Y3679748D01*
X12134189Y3666032D01*
X12132411Y3652012D01*
X12132411Y3637787D01*
X12134189Y3623767D01*
X12137796Y3610051D01*
X12141403Y3601161D01*
X12142165Y3597351D01*
X12142165Y3211880D01*
X12143028Y3198418D01*
X12143740Y3194913D01*
X12143841Y3191611D01*
X12142876Y3188462D01*
X12140946Y3185769D01*
X11812727Y2857550D01*
X11809425Y2855315D01*
X11805564Y2854553D01*
X11644477Y2854553D01*
X11636705Y2854299D01*
X11629136Y2853639D01*
X11621668Y2852470D01*
X11614251Y2850896D01*
X11606936Y2848864D01*
X11599722Y2846374D01*
X11592712Y2843479D01*
X11585905Y2840177D01*
X11579301Y2836418D01*
X11572900Y2832303D01*
X11566804Y2827832D01*
X11560962Y2822956D01*
X11555323Y2817622D01*
X11227054Y2489352D01*
X11216792Y2477770D01*
X11208207Y2465273D01*
X11201146Y2451862D01*
X11195761Y2437688D01*
X11192103Y2422956D01*
X11190274Y2407869D01*
X11190274Y2392730D01*
X11192103Y2377643D01*
X11195761Y2362911D01*
X11201146Y2348738D01*
X11208207Y2335326D01*
X11216792Y2322830D01*
X11226850Y2311450D01*
X11238230Y2301392D01*
X11250726Y2292807D01*
X11264138Y2285746D01*
X11278311Y2280361D01*
X11293043Y2276703D01*
X11308130Y2274874D01*
X11323269Y2274874D01*
X11338356Y2276703D01*
X11353088Y2280361D01*
X11367262Y2285746D01*
X11380673Y2292807D01*
X11393170Y2301392D01*
X11404752Y2311654D01*
X11693347Y2600248D01*
X11696649Y2602484D01*
X11700560Y2603246D01*
X11784279Y2603246D01*
X11788089Y2602484D01*
X11791340Y2600401D01*
X11793524Y2597200D01*
X11794439Y2593441D01*
X11793829Y2589631D01*
X11791797Y2586278D01*
X11790375Y2584704D01*
X11783314Y2574239D01*
X11780164Y2567736D01*
X11822938Y2567736D01*
X11822938Y2593086D01*
X11823700Y2596997D01*
X11825935Y2600248D01*
X11829237Y2602484D01*
X11833098Y2603246D01*
X11861647Y2603246D01*
X11869369Y2603500D01*
X11876938Y2604160D01*
X11884456Y2605328D01*
X11888368Y2606141D01*
X11892838Y2606090D01*
X11896852Y2604109D01*
X11899646Y2600604D01*
X11900662Y2596235D01*
X11900662Y2567736D01*
X11943435Y2567736D01*
X11940286Y2574239D01*
X11933224Y2584704D01*
X11924741Y2594102D01*
X11917324Y2600350D01*
X11914835Y2603398D01*
X11913717Y2607106D01*
X11914124Y2611018D01*
X11915952Y2614472D01*
X11918899Y2617012D01*
X11926824Y2621381D01*
X11933174Y2625496D01*
X11939270Y2629966D01*
X11945112Y2634843D01*
X11950750Y2640177D01*
X12483846Y3173222D01*
X12494107Y3184804D01*
X12503353Y3198317D01*
X12617348Y3389884D01*
X12624409Y3403650D01*
X12629692Y3417874D01*
X12633248Y3432606D01*
X12634976Y3447694D01*
X12634874Y3462883D01*
X12632893Y3477920D01*
X12629184Y3492601D01*
X12622733Y3509162D01*
X12622479Y3511651D01*
X12622479Y3644747D01*
X12622225Y3652469D01*
X12621514Y3660038D01*
X12620396Y3667556D01*
X12618821Y3674973D01*
X12616738Y3682288D01*
X12614300Y3689451D01*
X12611404Y3696462D01*
X12608052Y3703269D01*
X12604343Y3709924D01*
X12600228Y3716274D01*
X12595707Y3722370D01*
X12590830Y3728212D01*
X12585649Y3733749D01*
X12580112Y3738930D01*
X12574270Y3743807D01*
X12568174Y3748328D01*
X12561824Y3752443D01*
X12555169Y3756151D01*
X12548362Y3759454D01*
X12541351Y3762400D01*
X12534188Y3764838D01*
X12526873Y3766921D01*
X12519456Y3768496D01*
X12511938Y3769614D01*
X12504369Y3770325D01*
X12496800Y3770528D01*
X12489230Y3770325D01*
X12481661Y3769614D01*
X12474295Y3768496D01*
X12470282Y3767531D01*
X12466624Y3767328D01*
X12463170Y3768445D01*
X12460274Y3770731D01*
X12458395Y3773830D01*
X12457734Y3777437D01*
X12457734Y5943244D01*
X12456871Y5956757D01*
X12454280Y5969660D01*
X12450064Y5982106D01*
X12444272Y5993892D01*
X12436957Y6004864D01*
X12428270Y6014770D01*
X12421057Y6021171D01*
X12415316Y6027724D01*
X11985599Y6457442D01*
X11975439Y6466332D01*
X11964517Y6473647D01*
X11952732Y6479489D01*
X11940235Y6483705D01*
X11927332Y6486245D01*
X11913870Y6487160D01*
X11816080Y6487160D01*
X11812168Y6487922D01*
X11808866Y6490106D01*
X11466576Y6832447D01*
X11460937Y6837730D01*
X11455095Y6842607D01*
X11448999Y6847128D01*
X11442598Y6851243D01*
X11435994Y6854952D01*
X11429187Y6858253D01*
X11422176Y6861200D01*
X11414963Y6863638D01*
X11407648Y6865721D01*
X11400231Y6867296D01*
X11392763Y6868414D01*
X11385194Y6869125D01*
X11377422Y6869328D01*
X9310878Y6869328D01*
X9303105Y6869125D01*
X9295536Y6868414D01*
X9288068Y6867296D01*
X9280652Y6865721D01*
X9273336Y6863638D01*
X9266123Y6861200D01*
X9259112Y6858253D01*
X9252305Y6854952D01*
X9245701Y6851243D01*
X9239300Y6847128D01*
X9233204Y6842607D01*
X9227362Y6837730D01*
X9221724Y6832447D01*
X8947962Y6558686D01*
X8944711Y6556502D01*
X8940800Y6555689D01*
X8936888Y6556502D01*
X8933637Y6558686D01*
X8621776Y6870547D01*
X8616137Y6875830D01*
X8610295Y6880707D01*
X8604199Y6885228D01*
X8597798Y6889343D01*
X8591194Y6893052D01*
X8584387Y6896353D01*
X8577376Y6899300D01*
X8570163Y6901738D01*
X8562848Y6903821D01*
X8555431Y6905396D01*
X8547963Y6906514D01*
X8540394Y6907225D01*
X8532622Y6907428D01*
X8395004Y6907428D01*
X8379561Y6906514D01*
X8364626Y6903770D01*
X8350148Y6899249D01*
X8342985Y6896049D01*
X8338820Y6895134D01*
X6496354Y6895134D01*
X6492189Y6896049D01*
X6485026Y6899249D01*
X6470548Y6903770D01*
X6455664Y6906514D01*
X6440170Y6907428D01*
X6369050Y6907428D01*
X6365036Y6908292D01*
X6356400Y6912000D01*
X6350101Y6914184D01*
X6346596Y6916216D01*
X6344208Y6919518D01*
X6343243Y6923430D01*
X6343904Y6927443D01*
X6346088Y6930847D01*
X6349441Y6933133D01*
X6353403Y6933946D01*
X12651486Y6933946D01*
X12655397Y6933184D01*
X12658648Y6930948D01*
X12660884Y6927697D01*
X12661646Y6923786D01*
X12661646Y162814D01*
X12660884Y158902D01*
X12658648Y155651D01*
X12655397Y153416D01*
X12651486Y152654D01*
G37*

%LPC*%
G36*
X4466996Y520547D02*
G01*
X4480610Y521004D01*
X4494022Y523240D01*
X4506976Y527253D01*
X4519320Y532993D01*
X4530801Y540308D01*
X4541215Y549097D01*
X4550308Y559206D01*
X4558030Y570382D01*
X4564126Y582523D01*
X4568596Y595376D01*
X4571339Y608736D01*
X4572254Y622300D01*
X4571339Y635863D01*
X4568596Y649224D01*
X4566310Y655878D01*
X4565751Y659587D01*
X4566615Y663244D01*
X4568698Y666394D01*
X5094071Y1191717D01*
X5099151Y1197914D01*
X5102707Y1204518D01*
X5104892Y1211732D01*
X5105654Y1219708D01*
X5105654Y1935683D01*
X5106416Y1939594D01*
X5108651Y1942896D01*
X6083503Y2917748D01*
X6086805Y2919984D01*
X6090716Y2920746D01*
X7581392Y2920746D01*
X7589367Y2921508D01*
X7596581Y2923692D01*
X7603185Y2927248D01*
X7609382Y2932328D01*
X7913471Y3236417D01*
X7918551Y3242614D01*
X7922107Y3249218D01*
X7924546Y3257397D01*
X7926679Y3261156D01*
X7931200Y3264153D01*
X7944053Y3270910D01*
X7955686Y3278987D01*
X7966151Y3288537D01*
X7975346Y3299307D01*
X7983118Y3311194D01*
X7989265Y3323996D01*
X7993735Y3337458D01*
X7996428Y3351377D01*
X7997342Y3365500D01*
X7996428Y3379622D01*
X7993735Y3393541D01*
X7989265Y3407003D01*
X7983118Y3419805D01*
X7975346Y3431692D01*
X7966151Y3442462D01*
X7955686Y3452012D01*
X7944053Y3460089D01*
X7931505Y3466642D01*
X7918196Y3471570D01*
X7904378Y3474720D01*
X7890256Y3476091D01*
X7876082Y3475634D01*
X7862062Y3473348D01*
X7848498Y3469335D01*
X7835544Y3463594D01*
X7823403Y3456228D01*
X7812328Y3447389D01*
X7802473Y3437229D01*
X7793990Y3425850D01*
X7787030Y3413506D01*
X7781696Y3400348D01*
X7778089Y3386632D01*
X7776311Y3372612D01*
X7776311Y3358387D01*
X7778089Y3344367D01*
X7781696Y3330651D01*
X7787030Y3317494D01*
X7793990Y3305149D01*
X7802473Y3293770D01*
X7812328Y3283610D01*
X7827467Y3271520D01*
X7829143Y3268268D01*
X7829600Y3264662D01*
X7828737Y3261106D01*
X7826654Y3258108D01*
X7568996Y3000451D01*
X7565694Y2998216D01*
X7561783Y2997454D01*
X6071108Y2997454D01*
X6063132Y2996692D01*
X6055918Y2994507D01*
X6049314Y2990951D01*
X6043117Y2985871D01*
X5040528Y1983282D01*
X5035448Y1977085D01*
X5031892Y1970481D01*
X5029708Y1963267D01*
X5028946Y1955292D01*
X5028946Y1239316D01*
X5028184Y1235405D01*
X5025948Y1232103D01*
X4514545Y720648D01*
X4511497Y718616D01*
X4507992Y717702D01*
X4504334Y718159D01*
X4494022Y721360D01*
X4480610Y723595D01*
X4466996Y724052D01*
X4453483Y722731D01*
X4440224Y719582D01*
X4427524Y714654D01*
X4415586Y708152D01*
X4404664Y700074D01*
X4394860Y690626D01*
X4386427Y679907D01*
X4379518Y668223D01*
X4374184Y655726D01*
X4370628Y642569D01*
X4368800Y629107D01*
X4368800Y615492D01*
X4370628Y602030D01*
X4374184Y588873D01*
X4379518Y576376D01*
X4386427Y564692D01*
X4394860Y553974D01*
X4404664Y544525D01*
X4415586Y536448D01*
X4427524Y529945D01*
X4440224Y525018D01*
X4453483Y521868D01*
G37*
G36*
X11271250Y530809D02*
G01*
X11271250Y577850D01*
X11224209Y577850D01*
X11224818Y576376D01*
X11231727Y564692D01*
X11240160Y553974D01*
X11249964Y544525D01*
X11260886Y536448D01*
G37*
G36*
X5695950Y530809D02*
G01*
X5695950Y577850D01*
X5648909Y577850D01*
X5649518Y576376D01*
X5656427Y564692D01*
X5664860Y553974D01*
X5674664Y544525D01*
X5685586Y536448D01*
G37*
G36*
X11360150Y530910D02*
G01*
X11364620Y532993D01*
X11376101Y540308D01*
X11386515Y549097D01*
X11395608Y559206D01*
X11403330Y570382D01*
X11407089Y577850D01*
X11360150Y577850D01*
G37*
G36*
X5784850Y530910D02*
G01*
X5789320Y532993D01*
X5800801Y540308D01*
X5811215Y549097D01*
X5820308Y559206D01*
X5828030Y570382D01*
X5831789Y577850D01*
X5784850Y577850D01*
G37*
G36*
X8477250Y556209D02*
G01*
X8477250Y603250D01*
X8430209Y603250D01*
X8430818Y601776D01*
X8437727Y590092D01*
X8446160Y579374D01*
X8455964Y569925D01*
X8466886Y561848D01*
G37*
G36*
X8566150Y556310D02*
G01*
X8570620Y558393D01*
X8582101Y565708D01*
X8592515Y574497D01*
X8601608Y584606D01*
X8609330Y595782D01*
X8613089Y603250D01*
X8566150Y603250D01*
G37*
G36*
X5784850Y666750D02*
G01*
X5831789Y666750D01*
X5828030Y674217D01*
X5820308Y685393D01*
X5811215Y695502D01*
X5800801Y704291D01*
X5789320Y711606D01*
X5784850Y713689D01*
G37*
G36*
X11360150Y666750D02*
G01*
X11407089Y666750D01*
X11403330Y674217D01*
X11395608Y685393D01*
X11386515Y695502D01*
X11376101Y704291D01*
X11364620Y711606D01*
X11360150Y713689D01*
G37*
G36*
X5648909Y666750D02*
G01*
X5695950Y666750D01*
X5695950Y713790D01*
X5685586Y708152D01*
X5674664Y700074D01*
X5664860Y690626D01*
X5656427Y679907D01*
X5649518Y668223D01*
G37*
G36*
X11224209Y666750D02*
G01*
X11271250Y666750D01*
X11271250Y713790D01*
X11260886Y708152D01*
X11249964Y700074D01*
X11240160Y690626D01*
X11231727Y679907D01*
X11224818Y668223D01*
G37*
G36*
X8566150Y692150D02*
G01*
X8613089Y692150D01*
X8609330Y699617D01*
X8601608Y710793D01*
X8592515Y720902D01*
X8582101Y729691D01*
X8570620Y737006D01*
X8566150Y739089D01*
G37*
G36*
X8430209Y692150D02*
G01*
X8477250Y692150D01*
X8477250Y739190D01*
X8466886Y733552D01*
X8455964Y725474D01*
X8446160Y716026D01*
X8437727Y705307D01*
X8430818Y693623D01*
G37*
G36*
X10042296Y774547D02*
G01*
X10055910Y775004D01*
X10069322Y777240D01*
X10082276Y781253D01*
X10094620Y786993D01*
X10106101Y794308D01*
X10116515Y803097D01*
X10125608Y813206D01*
X10133330Y824382D01*
X10139426Y836523D01*
X10143896Y849376D01*
X10146639Y862736D01*
X10147554Y876300D01*
X10146639Y889863D01*
X10143896Y903224D01*
X10141610Y909878D01*
X10141051Y913587D01*
X10141915Y917244D01*
X10143998Y920394D01*
X10275671Y1052017D01*
X10280751Y1058214D01*
X10284307Y1064818D01*
X10286492Y1072032D01*
X10287254Y1080008D01*
X10287254Y2590800D01*
X10286492Y2598775D01*
X10284307Y2605989D01*
X10280751Y2612593D01*
X10275671Y2618790D01*
X10226090Y2668371D01*
X10219893Y2673451D01*
X10213289Y2677007D01*
X10206075Y2679192D01*
X10198100Y2679954D01*
X9646716Y2679954D01*
X9642805Y2680716D01*
X9639503Y2682951D01*
X9008008Y3314446D01*
X9005874Y3317544D01*
X9005011Y3321151D01*
X9005519Y3324860D01*
X9009735Y3337458D01*
X9012428Y3351377D01*
X9013342Y3365500D01*
X9012428Y3379622D01*
X9009735Y3393541D01*
X9005265Y3407003D01*
X8999118Y3419805D01*
X8991346Y3431692D01*
X8982151Y3442462D01*
X8971686Y3452012D01*
X8960053Y3460089D01*
X8947505Y3466642D01*
X8934196Y3471570D01*
X8920378Y3474720D01*
X8906256Y3476091D01*
X8892082Y3475634D01*
X8878062Y3473348D01*
X8864498Y3469335D01*
X8851544Y3463594D01*
X8839403Y3456228D01*
X8828328Y3447389D01*
X8818473Y3437229D01*
X8809990Y3425850D01*
X8803030Y3413506D01*
X8797696Y3400348D01*
X8794089Y3386632D01*
X8792311Y3372612D01*
X8792311Y3358387D01*
X8794089Y3344367D01*
X8797696Y3330651D01*
X8803030Y3317494D01*
X8809990Y3305149D01*
X8818473Y3293770D01*
X8828328Y3283610D01*
X8839403Y3274771D01*
X8851544Y3267405D01*
X8864498Y3261664D01*
X8878062Y3257651D01*
X8892082Y3255365D01*
X8906256Y3254908D01*
X8920378Y3256279D01*
X8934196Y3259429D01*
X8942933Y3262680D01*
X8946743Y3263290D01*
X8950452Y3262477D01*
X8953652Y3260293D01*
X9599117Y2614828D01*
X9605314Y2609748D01*
X9611918Y2606192D01*
X9619132Y2604008D01*
X9627108Y2603246D01*
X10178491Y2603246D01*
X10182402Y2602484D01*
X10185704Y2600248D01*
X10207548Y2578404D01*
X10209784Y2575102D01*
X10210546Y2571191D01*
X10210546Y1099616D01*
X10209784Y1095705D01*
X10207548Y1092403D01*
X10089845Y974648D01*
X10086797Y972616D01*
X10083292Y971702D01*
X10079634Y972159D01*
X10069322Y975360D01*
X10055910Y977595D01*
X10042296Y978052D01*
X10028783Y976731D01*
X10015524Y973582D01*
X10002824Y968654D01*
X9990886Y962152D01*
X9979964Y954074D01*
X9970160Y944626D01*
X9961727Y933907D01*
X9954818Y922223D01*
X9949484Y909726D01*
X9945928Y896569D01*
X9944100Y883107D01*
X9944100Y869492D01*
X9945928Y856030D01*
X9949484Y842873D01*
X9954818Y830376D01*
X9961727Y818692D01*
X9970160Y807974D01*
X9979964Y798525D01*
X9990886Y790448D01*
X10002824Y783945D01*
X10015524Y779018D01*
X10028783Y775868D01*
G37*
G36*
X4466996Y774547D02*
G01*
X4480610Y775004D01*
X4494022Y777240D01*
X4506976Y781253D01*
X4519320Y786993D01*
X4530801Y794308D01*
X4541215Y803097D01*
X4550308Y813206D01*
X4558030Y824382D01*
X4564126Y836523D01*
X4568596Y849376D01*
X4571339Y862736D01*
X4572254Y876300D01*
X4571339Y889863D01*
X4568596Y903224D01*
X4566310Y909878D01*
X4565751Y913587D01*
X4566615Y917244D01*
X4568698Y920394D01*
X4903571Y1255217D01*
X4908651Y1261414D01*
X4912207Y1268018D01*
X4914392Y1275232D01*
X4915154Y1283208D01*
X4915154Y1935683D01*
X4915916Y1939594D01*
X4918151Y1942896D01*
X6020003Y3044748D01*
X6023305Y3046984D01*
X6027216Y3047746D01*
X7365492Y3047746D01*
X7373467Y3048508D01*
X7380681Y3050692D01*
X7387285Y3054248D01*
X7393482Y3059328D01*
X7591247Y3257092D01*
X7594193Y3259175D01*
X7597698Y3260039D01*
X7601305Y3259632D01*
X7608062Y3257651D01*
X7622082Y3255365D01*
X7636256Y3254908D01*
X7650378Y3256279D01*
X7664196Y3259429D01*
X7677505Y3264357D01*
X7690053Y3270910D01*
X7701686Y3278987D01*
X7712151Y3288537D01*
X7721346Y3299307D01*
X7729118Y3311194D01*
X7735265Y3323996D01*
X7739735Y3337458D01*
X7742428Y3351377D01*
X7743342Y3365500D01*
X7742428Y3379622D01*
X7739735Y3393541D01*
X7735265Y3407003D01*
X7729118Y3419805D01*
X7721346Y3431692D01*
X7712151Y3442462D01*
X7701686Y3452012D01*
X7690053Y3460089D01*
X7677505Y3466642D01*
X7664196Y3471570D01*
X7650378Y3474720D01*
X7636256Y3476091D01*
X7622082Y3475634D01*
X7608062Y3473348D01*
X7594498Y3469335D01*
X7581544Y3463594D01*
X7569403Y3456228D01*
X7558328Y3447389D01*
X7548473Y3437229D01*
X7539990Y3425850D01*
X7533030Y3413506D01*
X7527696Y3400348D01*
X7524089Y3386632D01*
X7522311Y3372612D01*
X7522311Y3358387D01*
X7524089Y3344367D01*
X7527696Y3330651D01*
X7533436Y3316579D01*
X7534198Y3312718D01*
X7533436Y3308858D01*
X7531201Y3305556D01*
X7353096Y3127451D01*
X7349794Y3125216D01*
X7345883Y3124454D01*
X6007608Y3124454D01*
X5999632Y3123692D01*
X5992418Y3121507D01*
X5985814Y3117951D01*
X5979617Y3112871D01*
X4850028Y1983282D01*
X4844948Y1977085D01*
X4841392Y1970481D01*
X4839208Y1963267D01*
X4838446Y1955292D01*
X4838446Y1302816D01*
X4837684Y1298905D01*
X4835448Y1295603D01*
X4514545Y974648D01*
X4511497Y972616D01*
X4507992Y971702D01*
X4504334Y972159D01*
X4494022Y975360D01*
X4480610Y977595D01*
X4466996Y978052D01*
X4453483Y976731D01*
X4440224Y973582D01*
X4427524Y968654D01*
X4415586Y962152D01*
X4404664Y954074D01*
X4394860Y944626D01*
X4386427Y933907D01*
X4379518Y922223D01*
X4374184Y909726D01*
X4370628Y896569D01*
X4368800Y883107D01*
X4368800Y869492D01*
X4370628Y856030D01*
X4374184Y842873D01*
X4379518Y830376D01*
X4386427Y818692D01*
X4394860Y807974D01*
X4404664Y798525D01*
X4415586Y790448D01*
X4427524Y783945D01*
X4440224Y779018D01*
X4453483Y775868D01*
G37*
G36*
X7248296Y799947D02*
G01*
X7261910Y800404D01*
X7275322Y802640D01*
X7288275Y806653D01*
X7300620Y812393D01*
X7312101Y819708D01*
X7322515Y828497D01*
X7331608Y838606D01*
X7339330Y849782D01*
X7345425Y861923D01*
X7349896Y874776D01*
X7352639Y888136D01*
X7353553Y901700D01*
X7352639Y915263D01*
X7349896Y928624D01*
X7347610Y935278D01*
X7347051Y938987D01*
X7347915Y942644D01*
X7349998Y945794D01*
X7786471Y1382217D01*
X7791551Y1388414D01*
X7795107Y1395018D01*
X7797292Y1402232D01*
X7798053Y1410208D01*
X7798053Y2837383D01*
X7798816Y2841294D01*
X7801051Y2844596D01*
X8167471Y3211017D01*
X8172551Y3217214D01*
X8176107Y3223818D01*
X8178292Y3231032D01*
X8179053Y3239008D01*
X8179053Y3254857D01*
X8179714Y3258515D01*
X8181644Y3261664D01*
X8184540Y3263900D01*
X8198053Y3270910D01*
X8209686Y3278987D01*
X8220151Y3288537D01*
X8229346Y3299307D01*
X8237118Y3311194D01*
X8243265Y3323996D01*
X8247735Y3337458D01*
X8250428Y3351377D01*
X8251342Y3365500D01*
X8250428Y3379622D01*
X8247735Y3393541D01*
X8243265Y3407003D01*
X8237118Y3419805D01*
X8229346Y3431692D01*
X8220151Y3442462D01*
X8209686Y3452012D01*
X8198053Y3460089D01*
X8185505Y3466642D01*
X8172196Y3471570D01*
X8158378Y3474720D01*
X8144256Y3476091D01*
X8130082Y3475634D01*
X8116062Y3473348D01*
X8102498Y3469335D01*
X8089544Y3463594D01*
X8077403Y3456228D01*
X8066328Y3447389D01*
X8056473Y3437229D01*
X8047990Y3425850D01*
X8041030Y3413506D01*
X8035696Y3400348D01*
X8032089Y3386632D01*
X8030311Y3372612D01*
X8030311Y3358387D01*
X8032089Y3344367D01*
X8035696Y3330651D01*
X8041030Y3317494D01*
X8047990Y3305149D01*
X8056473Y3293770D01*
X8066328Y3283610D01*
X8077403Y3274771D01*
X8089544Y3267405D01*
X8093913Y3265474D01*
X8097113Y3263239D01*
X8099247Y3259937D01*
X8099958Y3256076D01*
X8099145Y3252266D01*
X8096961Y3249015D01*
X7732928Y2884982D01*
X7727848Y2878785D01*
X7724292Y2872181D01*
X7722108Y2864967D01*
X7721346Y2856992D01*
X7721346Y1429816D01*
X7720584Y1425905D01*
X7718348Y1422603D01*
X7295845Y1000048D01*
X7292797Y998016D01*
X7289292Y997102D01*
X7285634Y997559D01*
X7275322Y1000760D01*
X7261910Y1002995D01*
X7248296Y1003452D01*
X7234783Y1002131D01*
X7221524Y998982D01*
X7208824Y994054D01*
X7196886Y987552D01*
X7185964Y979474D01*
X7176160Y970026D01*
X7167727Y959307D01*
X7160818Y947623D01*
X7155484Y935126D01*
X7151928Y921969D01*
X7150100Y908507D01*
X7150100Y894892D01*
X7151928Y881430D01*
X7155484Y868273D01*
X7160818Y855776D01*
X7167727Y844092D01*
X7176160Y833374D01*
X7185964Y823925D01*
X7196886Y815848D01*
X7208824Y809345D01*
X7221524Y804418D01*
X7234783Y801268D01*
G37*
G36*
X11772900Y1006957D02*
G01*
X11787022Y1007871D01*
X11800941Y1010564D01*
X11814403Y1015034D01*
X11827205Y1021181D01*
X11839092Y1028953D01*
X11849862Y1038148D01*
X11859412Y1048613D01*
X11867489Y1060246D01*
X11874042Y1072794D01*
X11878970Y1086104D01*
X11882120Y1099921D01*
X11883491Y1114044D01*
X11883034Y1128217D01*
X11880748Y1142238D01*
X11876735Y1155801D01*
X11870994Y1168755D01*
X11863628Y1180896D01*
X11854789Y1191971D01*
X11844629Y1201826D01*
X11833250Y1210310D01*
X11820906Y1217269D01*
X11807748Y1222603D01*
X11794032Y1226210D01*
X11786260Y1227480D01*
X11773357Y1230071D01*
X11759844Y1230934D01*
X11330686Y1230934D01*
X11325910Y1231595D01*
X11312296Y1232052D01*
X11298783Y1230731D01*
X11285524Y1227582D01*
X11272824Y1222654D01*
X11260886Y1216152D01*
X11249964Y1208074D01*
X11240160Y1198626D01*
X11231727Y1187907D01*
X11224818Y1176223D01*
X11219484Y1163726D01*
X11215928Y1150569D01*
X11214100Y1137107D01*
X11214100Y1123492D01*
X11215928Y1110030D01*
X11219484Y1096873D01*
X11224818Y1084376D01*
X11231727Y1072692D01*
X11240160Y1061974D01*
X11249964Y1052525D01*
X11260886Y1044448D01*
X11272824Y1037945D01*
X11285524Y1033018D01*
X11298783Y1029868D01*
X11312296Y1028547D01*
X11325910Y1029004D01*
X11330686Y1029665D01*
X11702643Y1029665D01*
X11705539Y1029208D01*
X11708180Y1027988D01*
X11718594Y1021181D01*
X11731396Y1015034D01*
X11744858Y1010564D01*
X11758777Y1007871D01*
G37*
G36*
X10042296Y1028547D02*
G01*
X10055910Y1029004D01*
X10069322Y1031240D01*
X10082276Y1035253D01*
X10094620Y1040993D01*
X10106101Y1048308D01*
X10116515Y1057097D01*
X10125608Y1067206D01*
X10133330Y1078382D01*
X10139426Y1090523D01*
X10143896Y1103376D01*
X10146639Y1116736D01*
X10147554Y1130300D01*
X10146334Y1146200D01*
X10146334Y1368399D01*
X10147554Y1384300D01*
X10146639Y1397863D01*
X10143896Y1411224D01*
X10139426Y1424076D01*
X10133330Y1436217D01*
X10125608Y1447393D01*
X10116515Y1457502D01*
X10106101Y1466291D01*
X10094620Y1473606D01*
X10082276Y1479346D01*
X10069322Y1483360D01*
X10055910Y1485595D01*
X10042296Y1486052D01*
X10028783Y1484731D01*
X10015524Y1481582D01*
X10002824Y1476654D01*
X9990886Y1470152D01*
X9979964Y1462074D01*
X9970160Y1452626D01*
X9961727Y1441907D01*
X9954818Y1430223D01*
X9949484Y1417726D01*
X9945928Y1404569D01*
X9944100Y1391107D01*
X9944100Y1377492D01*
X9945065Y1369771D01*
X9945065Y1144828D01*
X9944100Y1137107D01*
X9944100Y1123492D01*
X9945928Y1110030D01*
X9949484Y1096873D01*
X9954818Y1084376D01*
X9961727Y1072692D01*
X9970160Y1061974D01*
X9979964Y1052525D01*
X9990886Y1044448D01*
X10002824Y1037945D01*
X10015524Y1033018D01*
X10028783Y1029868D01*
G37*
G36*
X4466996Y1028547D02*
G01*
X4480610Y1029004D01*
X4494022Y1031240D01*
X4506976Y1035253D01*
X4519320Y1040993D01*
X4530801Y1048308D01*
X4541215Y1057097D01*
X4550308Y1067206D01*
X4558030Y1078382D01*
X4564126Y1090523D01*
X4568596Y1103376D01*
X4571339Y1116736D01*
X4572254Y1130300D01*
X4571034Y1146200D01*
X4571034Y1368399D01*
X4572254Y1384300D01*
X4571339Y1397863D01*
X4568596Y1411224D01*
X4564126Y1424076D01*
X4558030Y1436217D01*
X4550308Y1447393D01*
X4541215Y1457502D01*
X4530801Y1466291D01*
X4519320Y1473606D01*
X4506976Y1479346D01*
X4494022Y1483360D01*
X4480610Y1485595D01*
X4466996Y1486052D01*
X4453483Y1484731D01*
X4440224Y1481582D01*
X4427524Y1476654D01*
X4415586Y1470152D01*
X4404664Y1462074D01*
X4394860Y1452626D01*
X4386427Y1441907D01*
X4379518Y1430223D01*
X4374184Y1417726D01*
X4370628Y1404569D01*
X4368800Y1391107D01*
X4368800Y1377492D01*
X4369765Y1369771D01*
X4369765Y1144828D01*
X4368800Y1137107D01*
X4368800Y1123492D01*
X4370628Y1110030D01*
X4374184Y1096873D01*
X4379518Y1084376D01*
X4386427Y1072692D01*
X4394860Y1061974D01*
X4404664Y1052525D01*
X4415586Y1044448D01*
X4427524Y1037945D01*
X4440224Y1033018D01*
X4453483Y1029868D01*
G37*
G36*
X5736996Y1028547D02*
G01*
X5750610Y1029004D01*
X5755386Y1029665D01*
X6184544Y1029665D01*
X6198057Y1030528D01*
X6225641Y1035964D01*
X6239103Y1040434D01*
X6251905Y1046581D01*
X6263792Y1054354D01*
X6274562Y1063548D01*
X6284112Y1074013D01*
X6292189Y1085646D01*
X6298742Y1098194D01*
X6303670Y1111504D01*
X6306820Y1125321D01*
X6308191Y1139444D01*
X6307734Y1153617D01*
X6305448Y1167638D01*
X6301435Y1181201D01*
X6295694Y1194155D01*
X6288328Y1206296D01*
X6279489Y1217371D01*
X6269329Y1227226D01*
X6257950Y1235710D01*
X6245606Y1242669D01*
X6232448Y1248003D01*
X6218732Y1251610D01*
X6204712Y1253388D01*
X6190488Y1253388D01*
X6176467Y1251610D01*
X6162751Y1248003D01*
X6149594Y1242669D01*
X6137249Y1235710D01*
X6133541Y1232966D01*
X6130696Y1231493D01*
X6127496Y1230934D01*
X5755386Y1230934D01*
X5750610Y1231595D01*
X5736996Y1232052D01*
X5723483Y1230731D01*
X5710224Y1227582D01*
X5697524Y1222654D01*
X5685586Y1216152D01*
X5674664Y1208074D01*
X5664860Y1198626D01*
X5656427Y1187907D01*
X5649518Y1176223D01*
X5644184Y1163726D01*
X5640628Y1150569D01*
X5638800Y1137107D01*
X5638800Y1123492D01*
X5640628Y1110030D01*
X5644184Y1096873D01*
X5649518Y1084376D01*
X5656427Y1072692D01*
X5664860Y1061974D01*
X5674664Y1052525D01*
X5685586Y1044448D01*
X5697524Y1037945D01*
X5710224Y1033018D01*
X5723483Y1029868D01*
G37*
G36*
X9017000Y1045057D02*
G01*
X9031122Y1045971D01*
X9045041Y1048664D01*
X9058503Y1053134D01*
X9071305Y1059281D01*
X9083192Y1067054D01*
X9093962Y1076248D01*
X9103512Y1086713D01*
X9111589Y1098346D01*
X9118142Y1110894D01*
X9123070Y1124204D01*
X9126220Y1138021D01*
X9127591Y1152144D01*
X9127134Y1166317D01*
X9124848Y1180338D01*
X9120835Y1193901D01*
X9115094Y1206855D01*
X9107728Y1218996D01*
X9098889Y1230071D01*
X9088729Y1239926D01*
X9077350Y1248410D01*
X9065006Y1255369D01*
X9051848Y1260703D01*
X9038132Y1264310D01*
X9024112Y1266088D01*
X9009888Y1266088D01*
X8995867Y1264310D01*
X8982151Y1260703D01*
X8973261Y1257096D01*
X8969451Y1256334D01*
X8536686Y1256334D01*
X8531910Y1256995D01*
X8518296Y1257452D01*
X8504783Y1256131D01*
X8491524Y1252982D01*
X8478824Y1248054D01*
X8466886Y1241552D01*
X8455964Y1233474D01*
X8446160Y1224026D01*
X8437727Y1213307D01*
X8430818Y1201623D01*
X8425484Y1189126D01*
X8421928Y1175969D01*
X8420100Y1162507D01*
X8420100Y1148892D01*
X8421928Y1135430D01*
X8425484Y1122273D01*
X8430818Y1109776D01*
X8437727Y1098092D01*
X8446160Y1087374D01*
X8455964Y1077925D01*
X8466886Y1069848D01*
X8478824Y1063345D01*
X8491524Y1058418D01*
X8504783Y1055268D01*
X8518296Y1053947D01*
X8531910Y1054404D01*
X8536686Y1055065D01*
X8969248Y1055065D01*
X8973616Y1054049D01*
X8975496Y1053134D01*
X8988958Y1048664D01*
X9002877Y1045971D01*
G37*
G36*
X7248296Y1053947D02*
G01*
X7261910Y1054404D01*
X7275322Y1056640D01*
X7288275Y1060653D01*
X7300620Y1066393D01*
X7312101Y1073708D01*
X7322515Y1082497D01*
X7331608Y1092606D01*
X7339330Y1103782D01*
X7345425Y1115923D01*
X7349896Y1128776D01*
X7352639Y1142136D01*
X7353553Y1155700D01*
X7352334Y1171600D01*
X7352334Y1393799D01*
X7353553Y1409700D01*
X7352639Y1423263D01*
X7349896Y1436624D01*
X7345425Y1449476D01*
X7339330Y1461617D01*
X7331608Y1472793D01*
X7322515Y1482902D01*
X7312101Y1491691D01*
X7300620Y1499006D01*
X7288275Y1504746D01*
X7275322Y1508760D01*
X7261910Y1510995D01*
X7248296Y1511452D01*
X7234783Y1510131D01*
X7221524Y1506982D01*
X7208824Y1502054D01*
X7196886Y1495552D01*
X7185964Y1487474D01*
X7176160Y1478026D01*
X7167727Y1467307D01*
X7160818Y1455623D01*
X7155484Y1443126D01*
X7151928Y1429969D01*
X7150100Y1416507D01*
X7150100Y1402892D01*
X7151065Y1395171D01*
X7151065Y1170228D01*
X7150100Y1162507D01*
X7150100Y1148892D01*
X7151928Y1135430D01*
X7155484Y1122273D01*
X7160818Y1109776D01*
X7167727Y1098092D01*
X7176160Y1087374D01*
X7185964Y1077925D01*
X7196886Y1069848D01*
X7208824Y1063345D01*
X7221524Y1058418D01*
X7234783Y1055268D01*
G37*
G36*
X11772900Y1260957D02*
G01*
X11787022Y1261872D01*
X11800941Y1264564D01*
X11814403Y1269034D01*
X11827205Y1275181D01*
X11839092Y1282954D01*
X11849862Y1292148D01*
X11859412Y1302613D01*
X11867489Y1314246D01*
X11874042Y1326794D01*
X11878970Y1340104D01*
X11882120Y1353921D01*
X11883491Y1368044D01*
X11883034Y1382217D01*
X11880748Y1396238D01*
X11876735Y1409801D01*
X11870994Y1422755D01*
X11863628Y1434896D01*
X11854789Y1445971D01*
X11844629Y1455826D01*
X11833250Y1464310D01*
X11820906Y1471269D01*
X11807748Y1476603D01*
X11794032Y1480210D01*
X11786260Y1481480D01*
X11773357Y1484071D01*
X11759844Y1484934D01*
X11330686Y1484934D01*
X11325910Y1485595D01*
X11312296Y1486052D01*
X11298783Y1484731D01*
X11285524Y1481582D01*
X11272824Y1476654D01*
X11260886Y1470152D01*
X11249964Y1462074D01*
X11240160Y1452626D01*
X11231727Y1441907D01*
X11224818Y1430223D01*
X11219484Y1417726D01*
X11215928Y1404569D01*
X11214100Y1391107D01*
X11214100Y1377492D01*
X11215928Y1364030D01*
X11219484Y1350873D01*
X11224818Y1338376D01*
X11231727Y1326692D01*
X11240160Y1315974D01*
X11249964Y1306525D01*
X11260886Y1298448D01*
X11272824Y1291945D01*
X11285524Y1287018D01*
X11298783Y1283868D01*
X11312296Y1282547D01*
X11325910Y1283004D01*
X11330686Y1283665D01*
X11702643Y1283665D01*
X11705539Y1283208D01*
X11708180Y1281988D01*
X11718594Y1275181D01*
X11731396Y1269034D01*
X11744858Y1264564D01*
X11758777Y1261872D01*
G37*
G36*
X5736996Y1282547D02*
G01*
X5750610Y1283004D01*
X5755386Y1283665D01*
X6184544Y1283665D01*
X6198057Y1284528D01*
X6225641Y1289964D01*
X6239103Y1294434D01*
X6251905Y1300581D01*
X6263792Y1308354D01*
X6274562Y1317548D01*
X6284112Y1328013D01*
X6292189Y1339646D01*
X6298742Y1352194D01*
X6303670Y1365504D01*
X6306820Y1379321D01*
X6308191Y1393444D01*
X6307734Y1407617D01*
X6305448Y1421638D01*
X6301435Y1435201D01*
X6295694Y1448155D01*
X6288328Y1460296D01*
X6279489Y1471371D01*
X6269329Y1481226D01*
X6257950Y1489710D01*
X6245606Y1496669D01*
X6232448Y1502003D01*
X6218732Y1505610D01*
X6204712Y1507388D01*
X6190488Y1507388D01*
X6176467Y1505610D01*
X6162751Y1502003D01*
X6149594Y1496669D01*
X6137249Y1489710D01*
X6133541Y1486966D01*
X6130696Y1485493D01*
X6127496Y1484934D01*
X5755386Y1484934D01*
X5750610Y1485595D01*
X5736996Y1486052D01*
X5723483Y1484731D01*
X5710224Y1481582D01*
X5697524Y1476654D01*
X5685586Y1470152D01*
X5674664Y1462074D01*
X5664860Y1452626D01*
X5656427Y1441907D01*
X5649518Y1430223D01*
X5644184Y1417726D01*
X5640628Y1404569D01*
X5638800Y1391107D01*
X5638800Y1377492D01*
X5640628Y1364030D01*
X5644184Y1350873D01*
X5649518Y1338376D01*
X5656427Y1326692D01*
X5664860Y1315974D01*
X5674664Y1306525D01*
X5685586Y1298448D01*
X5697524Y1291945D01*
X5710224Y1287018D01*
X5723483Y1283868D01*
G37*
G36*
X9017000Y1299057D02*
G01*
X9031122Y1299972D01*
X9045041Y1302664D01*
X9058503Y1307134D01*
X9071305Y1313281D01*
X9083192Y1321054D01*
X9093962Y1330248D01*
X9103512Y1340713D01*
X9111589Y1352346D01*
X9118142Y1364894D01*
X9123070Y1378204D01*
X9126220Y1392021D01*
X9127591Y1406144D01*
X9127134Y1420317D01*
X9124848Y1434338D01*
X9120835Y1447901D01*
X9115094Y1460855D01*
X9107728Y1472996D01*
X9098889Y1484071D01*
X9088729Y1493926D01*
X9077350Y1502410D01*
X9065006Y1509369D01*
X9051848Y1514703D01*
X9038132Y1518310D01*
X9024112Y1520088D01*
X9009888Y1520088D01*
X8995867Y1518310D01*
X8982151Y1514703D01*
X8973261Y1511096D01*
X8969451Y1510334D01*
X8536686Y1510334D01*
X8531910Y1510995D01*
X8518296Y1511452D01*
X8504783Y1510131D01*
X8491524Y1506982D01*
X8478824Y1502054D01*
X8466886Y1495552D01*
X8455964Y1487474D01*
X8446160Y1478026D01*
X8437727Y1467307D01*
X8430818Y1455623D01*
X8425484Y1443126D01*
X8421928Y1429969D01*
X8420100Y1416507D01*
X8420100Y1402892D01*
X8421928Y1389430D01*
X8425484Y1376273D01*
X8430818Y1363776D01*
X8437727Y1352092D01*
X8446160Y1341374D01*
X8455964Y1331925D01*
X8466886Y1323848D01*
X8478824Y1317345D01*
X8491524Y1312418D01*
X8504783Y1309268D01*
X8518296Y1307947D01*
X8531910Y1308404D01*
X8536686Y1309065D01*
X8969248Y1309065D01*
X8973616Y1308049D01*
X8975496Y1307134D01*
X8988958Y1302664D01*
X9002877Y1299972D01*
G37*
G36*
X11772900Y1514957D02*
G01*
X11787022Y1515872D01*
X11800941Y1518564D01*
X11814403Y1523034D01*
X11827205Y1529181D01*
X11839092Y1536954D01*
X11849862Y1546148D01*
X11859412Y1556613D01*
X11867489Y1568246D01*
X11874042Y1580794D01*
X11878970Y1594104D01*
X11882120Y1607921D01*
X11883491Y1622044D01*
X11883034Y1636217D01*
X11880748Y1650238D01*
X11876735Y1663801D01*
X11870994Y1676755D01*
X11863628Y1688896D01*
X11854789Y1699971D01*
X11844629Y1709826D01*
X11833250Y1718310D01*
X11820906Y1725269D01*
X11807748Y1730603D01*
X11794032Y1734210D01*
X11786260Y1735480D01*
X11773357Y1738071D01*
X11759844Y1738934D01*
X11330686Y1738934D01*
X11325910Y1739595D01*
X11312296Y1740052D01*
X11298783Y1738731D01*
X11285524Y1735582D01*
X11272824Y1730654D01*
X11260886Y1724152D01*
X11249964Y1716074D01*
X11240160Y1706625D01*
X11231727Y1695907D01*
X11224818Y1684223D01*
X11219484Y1671726D01*
X11215928Y1658569D01*
X11214100Y1645107D01*
X11214100Y1631492D01*
X11215928Y1618030D01*
X11219484Y1604873D01*
X11224818Y1592376D01*
X11231727Y1580692D01*
X11240160Y1569974D01*
X11249964Y1560525D01*
X11260886Y1552448D01*
X11272824Y1545945D01*
X11285524Y1541018D01*
X11298783Y1537868D01*
X11312296Y1536547D01*
X11325910Y1537004D01*
X11330686Y1537665D01*
X11702643Y1537665D01*
X11705539Y1537208D01*
X11708180Y1535988D01*
X11718594Y1529181D01*
X11731396Y1523034D01*
X11744858Y1518564D01*
X11758777Y1515872D01*
G37*
G36*
X3877970Y1527657D02*
G01*
X4046829Y1527657D01*
X4053078Y1528368D01*
X4058513Y1530248D01*
X4063339Y1533296D01*
X4064711Y1534668D01*
X4068013Y1536852D01*
X4071924Y1537665D01*
X4455363Y1537665D01*
X4466996Y1536547D01*
X4480610Y1537004D01*
X4494022Y1539240D01*
X4506976Y1543253D01*
X4519320Y1548993D01*
X4530801Y1556308D01*
X4541215Y1565097D01*
X4550308Y1575206D01*
X4558030Y1586382D01*
X4564126Y1598523D01*
X4568596Y1611376D01*
X4571339Y1624736D01*
X4572254Y1638300D01*
X4571339Y1651863D01*
X4568596Y1665224D01*
X4564126Y1678076D01*
X4558030Y1690217D01*
X4550308Y1701393D01*
X4541215Y1711502D01*
X4530801Y1720291D01*
X4519320Y1727606D01*
X4506976Y1733346D01*
X4494022Y1737360D01*
X4480610Y1739595D01*
X4466996Y1740052D01*
X4455363Y1738934D01*
X4071924Y1738934D01*
X4068013Y1739747D01*
X4064711Y1741932D01*
X4063339Y1743303D01*
X4058513Y1746351D01*
X4053078Y1748231D01*
X4046829Y1748942D01*
X3877970Y1748942D01*
X3871722Y1748231D01*
X3866286Y1746351D01*
X3861460Y1743303D01*
X3857396Y1739239D01*
X3854348Y1734413D01*
X3852468Y1728978D01*
X3851757Y1722729D01*
X3851757Y1553870D01*
X3852468Y1547622D01*
X3854348Y1542186D01*
X3857396Y1537360D01*
X3861460Y1533296D01*
X3866286Y1530248D01*
X3871722Y1528368D01*
G37*
G36*
X5736996Y1536547D02*
G01*
X5750610Y1537004D01*
X5755386Y1537665D01*
X6184544Y1537665D01*
X6198057Y1538528D01*
X6225641Y1543964D01*
X6239103Y1548434D01*
X6251905Y1554581D01*
X6263792Y1562354D01*
X6274562Y1571548D01*
X6284112Y1582013D01*
X6292189Y1593646D01*
X6298742Y1606194D01*
X6303670Y1619504D01*
X6306820Y1633321D01*
X6308191Y1647443D01*
X6307734Y1661617D01*
X6305448Y1675638D01*
X6301435Y1689201D01*
X6295694Y1702155D01*
X6288328Y1714296D01*
X6279489Y1725371D01*
X6269329Y1735226D01*
X6257950Y1743710D01*
X6245606Y1750669D01*
X6232448Y1756003D01*
X6218732Y1759610D01*
X6204712Y1761388D01*
X6190488Y1761388D01*
X6176467Y1759610D01*
X6162751Y1756003D01*
X6149594Y1750669D01*
X6137249Y1743710D01*
X6133541Y1740966D01*
X6130696Y1739493D01*
X6127496Y1738934D01*
X5755386Y1738934D01*
X5750610Y1739595D01*
X5736996Y1740052D01*
X5723483Y1738731D01*
X5710224Y1735582D01*
X5697524Y1730654D01*
X5685586Y1724152D01*
X5674664Y1716074D01*
X5664860Y1706625D01*
X5656427Y1695907D01*
X5649518Y1684223D01*
X5644184Y1671726D01*
X5640628Y1658569D01*
X5638800Y1645107D01*
X5638800Y1631492D01*
X5640628Y1618030D01*
X5644184Y1604873D01*
X5649518Y1592376D01*
X5656427Y1580692D01*
X5664860Y1569974D01*
X5674664Y1560525D01*
X5685586Y1552448D01*
X5697524Y1545945D01*
X5710224Y1541018D01*
X5723483Y1537868D01*
G37*
G36*
X6722770Y1540357D02*
G01*
X6891629Y1540357D01*
X6897878Y1541068D01*
X6903313Y1542948D01*
X6908139Y1545996D01*
X6909511Y1547368D01*
X6912813Y1549552D01*
X6916724Y1550365D01*
X7238644Y1550365D01*
X7252157Y1551228D01*
X7265060Y1553819D01*
X7277506Y1558036D01*
X7289292Y1563827D01*
X7300264Y1571142D01*
X7312152Y1581759D01*
X7322515Y1590497D01*
X7331608Y1600606D01*
X7339330Y1611782D01*
X7345425Y1623923D01*
X7349896Y1636776D01*
X7352639Y1650136D01*
X7353553Y1663700D01*
X7352639Y1677263D01*
X7349896Y1690624D01*
X7345425Y1703476D01*
X7339330Y1715617D01*
X7331608Y1726793D01*
X7322515Y1736902D01*
X7312101Y1745691D01*
X7300620Y1753006D01*
X7288275Y1758746D01*
X7275322Y1762760D01*
X7261910Y1764995D01*
X7248296Y1765452D01*
X7234783Y1764131D01*
X7221524Y1760982D01*
X7208824Y1756054D01*
X7203033Y1752904D01*
X7200696Y1751990D01*
X7198156Y1751634D01*
X6916724Y1751634D01*
X6912813Y1752447D01*
X6909511Y1754632D01*
X6908139Y1756003D01*
X6903313Y1759051D01*
X6897878Y1760931D01*
X6891629Y1761642D01*
X6722770Y1761642D01*
X6716522Y1760931D01*
X6711086Y1759051D01*
X6706260Y1756003D01*
X6702196Y1751939D01*
X6699148Y1747113D01*
X6697268Y1741678D01*
X6696557Y1735429D01*
X6696557Y1566570D01*
X6697268Y1560322D01*
X6699148Y1554886D01*
X6702196Y1550060D01*
X6706260Y1545996D01*
X6711086Y1542948D01*
X6716522Y1541068D01*
G37*
G36*
X9017000Y1553057D02*
G01*
X9031122Y1553972D01*
X9045041Y1556664D01*
X9058503Y1561134D01*
X9071305Y1567281D01*
X9083192Y1575054D01*
X9093962Y1584248D01*
X9103512Y1594713D01*
X9111589Y1606346D01*
X9118142Y1618894D01*
X9123070Y1632204D01*
X9126220Y1646021D01*
X9127591Y1660143D01*
X9127134Y1674317D01*
X9124848Y1688338D01*
X9120835Y1701901D01*
X9115094Y1714855D01*
X9107728Y1726996D01*
X9098889Y1738071D01*
X9088729Y1747926D01*
X9077350Y1756410D01*
X9065006Y1763369D01*
X9051848Y1768703D01*
X9038132Y1772310D01*
X9024112Y1774088D01*
X9009888Y1774088D01*
X8995867Y1772310D01*
X8982151Y1768703D01*
X8973261Y1765096D01*
X8969451Y1764334D01*
X8536686Y1764334D01*
X8531910Y1764995D01*
X8518296Y1765452D01*
X8504783Y1764131D01*
X8491524Y1760982D01*
X8478824Y1756054D01*
X8466886Y1749552D01*
X8455964Y1741474D01*
X8446160Y1732025D01*
X8437727Y1721307D01*
X8430818Y1709623D01*
X8425484Y1697126D01*
X8421928Y1683969D01*
X8420100Y1670507D01*
X8420100Y1656892D01*
X8421928Y1643430D01*
X8425484Y1630273D01*
X8430818Y1617776D01*
X8437727Y1606092D01*
X8446160Y1595374D01*
X8455964Y1585925D01*
X8466886Y1577848D01*
X8478824Y1571345D01*
X8491524Y1566418D01*
X8504783Y1563268D01*
X8518296Y1561947D01*
X8531910Y1562404D01*
X8536686Y1563065D01*
X8969248Y1563065D01*
X8973616Y1562049D01*
X8975496Y1561134D01*
X8988958Y1556664D01*
X9002877Y1553972D01*
G37*
G36*
X11688470Y1768957D02*
G01*
X11857329Y1768957D01*
X11863578Y1769668D01*
X11869013Y1771548D01*
X11873839Y1774596D01*
X11877903Y1778660D01*
X11880951Y1783486D01*
X11882831Y1788922D01*
X11883542Y1795170D01*
X11883542Y1964029D01*
X11882831Y1970278D01*
X11880951Y1975713D01*
X11877903Y1980539D01*
X11873839Y1984603D01*
X11869013Y1987651D01*
X11863578Y1989531D01*
X11857329Y1990242D01*
X11783466Y1990242D01*
X11781485Y1990445D01*
X11773357Y1992071D01*
X11759844Y1992934D01*
X11330686Y1992934D01*
X11325910Y1993595D01*
X11312296Y1994052D01*
X11298783Y1992731D01*
X11285524Y1989582D01*
X11272824Y1984654D01*
X11260886Y1978152D01*
X11249964Y1970074D01*
X11240160Y1960625D01*
X11231727Y1949907D01*
X11224818Y1938223D01*
X11219484Y1925726D01*
X11215928Y1912569D01*
X11214100Y1899107D01*
X11214100Y1885492D01*
X11215928Y1872030D01*
X11219484Y1858873D01*
X11224818Y1846376D01*
X11231727Y1834692D01*
X11240160Y1823974D01*
X11249964Y1814525D01*
X11260886Y1806448D01*
X11272824Y1799945D01*
X11285524Y1795018D01*
X11298783Y1791868D01*
X11312296Y1790547D01*
X11325910Y1791004D01*
X11330686Y1791665D01*
X11654790Y1791665D01*
X11658854Y1790801D01*
X11662257Y1788414D01*
X11664848Y1783486D01*
X11667896Y1778660D01*
X11671960Y1774596D01*
X11676786Y1771548D01*
X11682222Y1769668D01*
G37*
G36*
X3955287Y1781911D02*
G01*
X3969512Y1781911D01*
X3983532Y1783689D01*
X3997248Y1787296D01*
X4006138Y1790903D01*
X4009948Y1791665D01*
X4455363Y1791665D01*
X4466996Y1790547D01*
X4480610Y1791004D01*
X4494022Y1793239D01*
X4506976Y1797253D01*
X4519320Y1802993D01*
X4530801Y1810308D01*
X4541215Y1819097D01*
X4550308Y1829206D01*
X4558030Y1840382D01*
X4564126Y1852523D01*
X4568596Y1865375D01*
X4571339Y1878736D01*
X4572254Y1892300D01*
X4571339Y1905863D01*
X4568596Y1919224D01*
X4564126Y1932076D01*
X4558030Y1944217D01*
X4550308Y1955393D01*
X4541215Y1965502D01*
X4530801Y1974291D01*
X4519320Y1981606D01*
X4506976Y1987346D01*
X4494022Y1991360D01*
X4480610Y1993595D01*
X4466996Y1994052D01*
X4455363Y1992934D01*
X4010151Y1992934D01*
X4005783Y1993950D01*
X4003903Y1994865D01*
X3990441Y1999335D01*
X3976522Y2002028D01*
X3962400Y2002942D01*
X3948277Y2002028D01*
X3934358Y1999335D01*
X3920896Y1994865D01*
X3908094Y1988718D01*
X3896207Y1980946D01*
X3885437Y1971751D01*
X3875887Y1961286D01*
X3867810Y1949653D01*
X3861257Y1937105D01*
X3856329Y1923796D01*
X3853179Y1909978D01*
X3851808Y1895856D01*
X3852265Y1881682D01*
X3854551Y1867662D01*
X3858564Y1854098D01*
X3864305Y1841144D01*
X3871671Y1829003D01*
X3880510Y1817928D01*
X3890670Y1808073D01*
X3902049Y1799589D01*
X3914394Y1792630D01*
X3927551Y1787296D01*
X3941267Y1783689D01*
G37*
G36*
X5736996Y1790547D02*
G01*
X5750610Y1791004D01*
X5755386Y1791665D01*
X6184544Y1791665D01*
X6198057Y1792528D01*
X6206185Y1794154D01*
X6208166Y1794357D01*
X6282029Y1794357D01*
X6288278Y1795068D01*
X6293713Y1796948D01*
X6298539Y1799996D01*
X6302603Y1804060D01*
X6305651Y1808886D01*
X6307531Y1814322D01*
X6308242Y1820570D01*
X6308242Y1989429D01*
X6307531Y1995678D01*
X6305651Y2001113D01*
X6302603Y2005939D01*
X6298539Y2010003D01*
X6293713Y2013051D01*
X6288278Y2014931D01*
X6282029Y2015642D01*
X6113170Y2015642D01*
X6106922Y2014931D01*
X6101486Y2013051D01*
X6096660Y2010003D01*
X6092596Y2005939D01*
X6089548Y2001113D01*
X6086957Y1996186D01*
X6083554Y1993798D01*
X6079490Y1992934D01*
X5755386Y1992934D01*
X5750610Y1993595D01*
X5736996Y1994052D01*
X5723483Y1992731D01*
X5710224Y1989582D01*
X5697524Y1984654D01*
X5685586Y1978152D01*
X5674664Y1970074D01*
X5664860Y1960625D01*
X5656427Y1949907D01*
X5649518Y1938223D01*
X5644184Y1925726D01*
X5640628Y1912569D01*
X5638800Y1899107D01*
X5638800Y1885492D01*
X5640628Y1872030D01*
X5644184Y1858873D01*
X5649518Y1846376D01*
X5656427Y1834692D01*
X5664860Y1823974D01*
X5674664Y1814525D01*
X5685586Y1806448D01*
X5697524Y1799945D01*
X5710224Y1795018D01*
X5723483Y1791868D01*
G37*
G36*
X6800088Y1794611D02*
G01*
X6814312Y1794611D01*
X6828332Y1796389D01*
X6842048Y1799996D01*
X6855206Y1805330D01*
X6867550Y1812289D01*
X6871258Y1815033D01*
X6874103Y1816506D01*
X6877303Y1817065D01*
X7236663Y1817065D01*
X7248296Y1815947D01*
X7261910Y1816404D01*
X7275322Y1818639D01*
X7288275Y1822653D01*
X7300620Y1828393D01*
X7312101Y1835708D01*
X7322515Y1844497D01*
X7331608Y1854606D01*
X7339330Y1865782D01*
X7345425Y1877923D01*
X7349896Y1890775D01*
X7352639Y1904136D01*
X7353553Y1917700D01*
X7352639Y1931263D01*
X7349896Y1944624D01*
X7345425Y1957476D01*
X7339330Y1969617D01*
X7331608Y1980793D01*
X7322515Y1990902D01*
X7312101Y1999691D01*
X7300620Y2007006D01*
X7288275Y2012746D01*
X7275322Y2016760D01*
X7261910Y2018995D01*
X7248296Y2019452D01*
X7236663Y2018334D01*
X6820255Y2018334D01*
X6806742Y2017471D01*
X6779158Y2012035D01*
X6765696Y2007565D01*
X6752894Y2001418D01*
X6741007Y1993646D01*
X6730238Y1984451D01*
X6720687Y1973986D01*
X6712610Y1962353D01*
X6706057Y1949805D01*
X6701129Y1936496D01*
X6697980Y1922678D01*
X6696608Y1908556D01*
X6697065Y1894382D01*
X6699351Y1880362D01*
X6703364Y1866798D01*
X6709105Y1853844D01*
X6716471Y1841703D01*
X6725310Y1830628D01*
X6735470Y1820773D01*
X6746849Y1812289D01*
X6759194Y1805330D01*
X6772351Y1799996D01*
X6786067Y1796389D01*
G37*
G36*
X8932570Y1807057D02*
G01*
X9101429Y1807057D01*
X9107678Y1807768D01*
X9113113Y1809648D01*
X9117939Y1812696D01*
X9122003Y1816760D01*
X9125051Y1821586D01*
X9126931Y1827022D01*
X9127642Y1833270D01*
X9127642Y2002129D01*
X9126931Y2008378D01*
X9125051Y2013813D01*
X9122003Y2018639D01*
X9117939Y2022703D01*
X9113113Y2025751D01*
X9107678Y2027631D01*
X9101429Y2028342D01*
X8932570Y2028342D01*
X8926322Y2027631D01*
X8920886Y2025751D01*
X8916060Y2022703D01*
X8914688Y2021332D01*
X8911386Y2019147D01*
X8907475Y2018334D01*
X8536686Y2018334D01*
X8531910Y2018995D01*
X8518296Y2019452D01*
X8504783Y2018131D01*
X8491524Y2014982D01*
X8478824Y2010054D01*
X8466886Y2003552D01*
X8455964Y1995474D01*
X8446160Y1986025D01*
X8437727Y1975307D01*
X8430818Y1963623D01*
X8425484Y1951126D01*
X8421928Y1937969D01*
X8420100Y1924507D01*
X8420100Y1910892D01*
X8421928Y1897430D01*
X8425484Y1884273D01*
X8430818Y1871776D01*
X8437727Y1860092D01*
X8446160Y1849374D01*
X8455964Y1839925D01*
X8466886Y1831848D01*
X8478824Y1825345D01*
X8491524Y1820418D01*
X8504783Y1817268D01*
X8518296Y1815947D01*
X8531910Y1816404D01*
X8536686Y1817065D01*
X8907475Y1817065D01*
X8911386Y1816252D01*
X8914688Y1814068D01*
X8916060Y1812696D01*
X8920886Y1809648D01*
X8926322Y1807768D01*
G37*
G36*
X3955287Y2035911D02*
G01*
X3969512Y2035911D01*
X3983532Y2037689D01*
X3997248Y2041296D01*
X4006138Y2044903D01*
X4009948Y2045665D01*
X4455363Y2045665D01*
X4466996Y2044547D01*
X4480610Y2045004D01*
X4494022Y2047239D01*
X4506976Y2051253D01*
X4519320Y2056993D01*
X4530801Y2064308D01*
X4541215Y2073097D01*
X4550308Y2083206D01*
X4558030Y2094382D01*
X4564126Y2106523D01*
X4568596Y2119376D01*
X4571339Y2132736D01*
X4572254Y2146300D01*
X4571339Y2159863D01*
X4568596Y2173224D01*
X4564126Y2186076D01*
X4558030Y2198217D01*
X4550308Y2209393D01*
X4541215Y2219502D01*
X4530801Y2228291D01*
X4519320Y2235606D01*
X4506976Y2241346D01*
X4494022Y2245360D01*
X4480610Y2247595D01*
X4466996Y2248052D01*
X4455363Y2246934D01*
X4010151Y2246934D01*
X4005783Y2247950D01*
X4003903Y2248865D01*
X3990441Y2253335D01*
X3976522Y2256028D01*
X3962400Y2256942D01*
X3948277Y2256028D01*
X3934358Y2253335D01*
X3920896Y2248865D01*
X3908094Y2242718D01*
X3896207Y2234946D01*
X3885437Y2225751D01*
X3875887Y2215286D01*
X3867810Y2203653D01*
X3861257Y2191105D01*
X3856329Y2177796D01*
X3853179Y2163978D01*
X3851808Y2149856D01*
X3852265Y2135682D01*
X3854551Y2121662D01*
X3858564Y2108098D01*
X3864305Y2095144D01*
X3871671Y2083003D01*
X3880510Y2071928D01*
X3890670Y2062073D01*
X3902049Y2053589D01*
X3914394Y2046630D01*
X3927551Y2041296D01*
X3941267Y2037689D01*
G37*
G36*
X6800088Y2048611D02*
G01*
X6814312Y2048611D01*
X6828332Y2050389D01*
X6842048Y2053996D01*
X6855206Y2059330D01*
X6867550Y2066289D01*
X6871258Y2069033D01*
X6874103Y2070506D01*
X6877303Y2071065D01*
X7236663Y2071065D01*
X7248296Y2069947D01*
X7261910Y2070404D01*
X7275322Y2072639D01*
X7288275Y2076653D01*
X7300620Y2082393D01*
X7312101Y2089708D01*
X7322515Y2098497D01*
X7331608Y2108606D01*
X7339330Y2119782D01*
X7345425Y2131923D01*
X7349896Y2144776D01*
X7352639Y2158136D01*
X7353553Y2171700D01*
X7352639Y2185263D01*
X7349896Y2198624D01*
X7345425Y2211476D01*
X7339330Y2223617D01*
X7331608Y2234793D01*
X7322515Y2244902D01*
X7312101Y2253691D01*
X7300620Y2261006D01*
X7288275Y2266746D01*
X7275322Y2270760D01*
X7261910Y2272995D01*
X7248296Y2273452D01*
X7236663Y2272334D01*
X6820255Y2272334D01*
X6806742Y2271471D01*
X6779158Y2266035D01*
X6765696Y2261565D01*
X6752894Y2255418D01*
X6741007Y2247646D01*
X6730238Y2238451D01*
X6720687Y2227986D01*
X6712610Y2216353D01*
X6706057Y2203805D01*
X6701129Y2190496D01*
X6697980Y2176678D01*
X6696608Y2162556D01*
X6697065Y2148382D01*
X6699351Y2134362D01*
X6703364Y2120798D01*
X6709105Y2107844D01*
X6716471Y2095703D01*
X6725310Y2084628D01*
X6735470Y2074773D01*
X6746849Y2066289D01*
X6759194Y2059330D01*
X6772351Y2053996D01*
X6786067Y2050389D01*
G37*
G36*
X11271250Y2054809D02*
G01*
X11271250Y2101850D01*
X11224209Y2101850D01*
X11224818Y2100376D01*
X11231727Y2088692D01*
X11240160Y2077974D01*
X11249964Y2068525D01*
X11260886Y2060448D01*
G37*
G36*
X5695950Y2054809D02*
G01*
X5695950Y2101850D01*
X5648909Y2101850D01*
X5649518Y2100376D01*
X5656427Y2088692D01*
X5664860Y2077974D01*
X5674664Y2068525D01*
X5685586Y2060448D01*
G37*
G36*
X11360150Y2054910D02*
G01*
X11364620Y2056993D01*
X11376101Y2064308D01*
X11386515Y2073097D01*
X11395608Y2083206D01*
X11403330Y2094382D01*
X11407089Y2101850D01*
X11360150Y2101850D01*
G37*
G36*
X5784850Y2054910D02*
G01*
X5789320Y2056993D01*
X5800801Y2064308D01*
X5811215Y2073097D01*
X5820308Y2083206D01*
X5828030Y2094382D01*
X5831789Y2101850D01*
X5784850Y2101850D01*
G37*
G36*
X8477250Y2080209D02*
G01*
X8477250Y2127250D01*
X8430209Y2127250D01*
X8430818Y2125776D01*
X8437727Y2114092D01*
X8446160Y2103374D01*
X8455964Y2093925D01*
X8466886Y2085848D01*
G37*
G36*
X8566150Y2080310D02*
G01*
X8570620Y2082393D01*
X8582101Y2089708D01*
X8592515Y2098497D01*
X8601608Y2108606D01*
X8609330Y2119782D01*
X8613089Y2127250D01*
X8566150Y2127250D01*
G37*
G36*
X5784850Y2190750D02*
G01*
X5831789Y2190750D01*
X5828030Y2198217D01*
X5820308Y2209393D01*
X5811215Y2219502D01*
X5800801Y2228291D01*
X5789320Y2235606D01*
X5784850Y2237689D01*
G37*
G36*
X11360150Y2190750D02*
G01*
X11407089Y2190750D01*
X11403330Y2198217D01*
X11395608Y2209393D01*
X11386515Y2219502D01*
X11376101Y2228291D01*
X11364620Y2235606D01*
X11360150Y2237689D01*
G37*
G36*
X11224209Y2190750D02*
G01*
X11271250Y2190750D01*
X11271250Y2237790D01*
X11260886Y2232152D01*
X11249964Y2224074D01*
X11240160Y2214626D01*
X11231727Y2203907D01*
X11224818Y2192223D01*
G37*
G36*
X5648909Y2190750D02*
G01*
X5695950Y2190750D01*
X5695950Y2237790D01*
X5685586Y2232152D01*
X5674664Y2224074D01*
X5664860Y2214626D01*
X5656427Y2203907D01*
X5649518Y2192223D01*
G37*
G36*
X8566150Y2216150D02*
G01*
X8613089Y2216150D01*
X8609330Y2223617D01*
X8601608Y2234793D01*
X8592515Y2244902D01*
X8582101Y2253691D01*
X8570620Y2261006D01*
X8566150Y2263089D01*
G37*
G36*
X8430209Y2216150D02*
G01*
X8477250Y2216150D01*
X8477250Y2263190D01*
X8466886Y2257552D01*
X8455964Y2249474D01*
X8446160Y2240026D01*
X8437727Y2229307D01*
X8430818Y2217623D01*
G37*
G36*
X3955287Y2289911D02*
G01*
X3969512Y2289911D01*
X3983532Y2291689D01*
X3997248Y2295296D01*
X4006138Y2298903D01*
X4009948Y2299665D01*
X4455363Y2299665D01*
X4466996Y2298547D01*
X4480610Y2299004D01*
X4494022Y2301240D01*
X4506976Y2305253D01*
X4519320Y2310993D01*
X4530801Y2318308D01*
X4541215Y2327097D01*
X4550308Y2337206D01*
X4558030Y2348382D01*
X4564126Y2360523D01*
X4568596Y2373376D01*
X4571339Y2386736D01*
X4572254Y2400300D01*
X4571339Y2413863D01*
X4568596Y2427224D01*
X4564126Y2440076D01*
X4558030Y2452217D01*
X4550308Y2463393D01*
X4541215Y2473502D01*
X4530801Y2482291D01*
X4519320Y2489606D01*
X4506976Y2495346D01*
X4494022Y2499360D01*
X4480610Y2501595D01*
X4466996Y2502052D01*
X4455363Y2500934D01*
X4010151Y2500934D01*
X4005783Y2501950D01*
X4003903Y2502865D01*
X3990441Y2507335D01*
X3976522Y2510028D01*
X3962400Y2510942D01*
X3948277Y2510028D01*
X3934358Y2507335D01*
X3920896Y2502865D01*
X3908094Y2496718D01*
X3896207Y2488946D01*
X3885437Y2479751D01*
X3875887Y2469286D01*
X3867810Y2457653D01*
X3861257Y2445105D01*
X3856329Y2431796D01*
X3853179Y2417978D01*
X3851808Y2403856D01*
X3852265Y2389682D01*
X3854551Y2375662D01*
X3858564Y2362098D01*
X3864305Y2349144D01*
X3871671Y2337003D01*
X3880510Y2325928D01*
X3890670Y2316073D01*
X3902049Y2307590D01*
X3914394Y2300630D01*
X3927551Y2295296D01*
X3941267Y2291689D01*
G37*
G36*
X5736996Y2298547D02*
G01*
X5750610Y2299004D01*
X5764022Y2301240D01*
X5776976Y2305253D01*
X5789320Y2310993D01*
X5800801Y2318308D01*
X5811215Y2327097D01*
X5820308Y2337206D01*
X5822492Y2340000D01*
X6031534Y2549093D01*
X6034836Y2551277D01*
X6038697Y2552039D01*
X6163360Y2552039D01*
X6167628Y2551125D01*
X6171082Y2548483D01*
X6172403Y2546045D01*
X6174435Y2549093D01*
X6177737Y2551277D01*
X6181598Y2552039D01*
X6209944Y2552039D01*
X6223457Y2552903D01*
X6237020Y2555646D01*
X6238544Y2555595D01*
X6241186Y2557119D01*
X6248806Y2559710D01*
X6260592Y2565552D01*
X6271564Y2572867D01*
X6281470Y2581554D01*
X6290157Y2591460D01*
X6297472Y2602382D01*
X6303264Y2614168D01*
X6307480Y2626664D01*
X6310071Y2639568D01*
X6310934Y2652674D01*
X6310071Y2665831D01*
X6307480Y2678734D01*
X6303264Y2691231D01*
X6297472Y2703017D01*
X6290157Y2713939D01*
X6281470Y2723845D01*
X6271564Y2732532D01*
X6260592Y2739847D01*
X6248806Y2745689D01*
X6236360Y2749905D01*
X6223457Y2752445D01*
X6209944Y2753360D01*
X5993130Y2753360D01*
X5979668Y2752445D01*
X5966764Y2749905D01*
X5954268Y2745689D01*
X5942482Y2739847D01*
X5931560Y2732532D01*
X5921400Y2723642D01*
X5679592Y2481884D01*
X5674664Y2478074D01*
X5664860Y2468626D01*
X5656427Y2457907D01*
X5649518Y2446223D01*
X5644184Y2433726D01*
X5640628Y2420569D01*
X5638800Y2407107D01*
X5638800Y2393492D01*
X5640628Y2380030D01*
X5644184Y2366873D01*
X5649518Y2354376D01*
X5656427Y2342692D01*
X5664860Y2331974D01*
X5674664Y2322525D01*
X5685586Y2314448D01*
X5697524Y2307945D01*
X5710224Y2303018D01*
X5723483Y2299868D01*
G37*
G36*
X6800088Y2302611D02*
G01*
X6814312Y2302611D01*
X6828332Y2304389D01*
X6842048Y2307996D01*
X6855206Y2313330D01*
X6867550Y2320290D01*
X6871258Y2323033D01*
X6874103Y2324506D01*
X6877303Y2325065D01*
X7236663Y2325065D01*
X7248296Y2323947D01*
X7261910Y2324404D01*
X7275322Y2326640D01*
X7288275Y2330653D01*
X7300620Y2336393D01*
X7312101Y2343708D01*
X7322515Y2352497D01*
X7331608Y2362606D01*
X7339330Y2373782D01*
X7345425Y2385923D01*
X7349896Y2398776D01*
X7352639Y2412136D01*
X7353553Y2425700D01*
X7352639Y2439263D01*
X7349896Y2452624D01*
X7345425Y2465476D01*
X7339330Y2477617D01*
X7331608Y2488793D01*
X7322515Y2498902D01*
X7312101Y2507691D01*
X7300620Y2515006D01*
X7288275Y2520746D01*
X7275322Y2524760D01*
X7261910Y2526995D01*
X7248296Y2527452D01*
X7236663Y2526334D01*
X6820255Y2526334D01*
X6806742Y2525471D01*
X6779158Y2520035D01*
X6765696Y2515565D01*
X6752894Y2509418D01*
X6741007Y2501646D01*
X6730238Y2492451D01*
X6720687Y2481986D01*
X6712610Y2470353D01*
X6706057Y2457805D01*
X6701129Y2444496D01*
X6697980Y2430678D01*
X6696608Y2416556D01*
X6697065Y2402382D01*
X6699351Y2388362D01*
X6703364Y2374798D01*
X6709105Y2361844D01*
X6716471Y2349703D01*
X6725310Y2338628D01*
X6735470Y2328773D01*
X6746849Y2320290D01*
X6759194Y2313330D01*
X6772351Y2307996D01*
X6786067Y2304389D01*
G37*
G36*
X8518296Y2323947D02*
G01*
X8531910Y2324404D01*
X8545322Y2326640D01*
X8558276Y2330653D01*
X8570620Y2336393D01*
X8582101Y2343708D01*
X8592515Y2352497D01*
X8601608Y2362606D01*
X8603792Y2365400D01*
X8876334Y2637993D01*
X8879636Y2640177D01*
X8883497Y2640939D01*
X8906560Y2640939D01*
X8910828Y2640025D01*
X8914282Y2637383D01*
X8915603Y2634945D01*
X8917635Y2637993D01*
X8920937Y2640177D01*
X8924798Y2640939D01*
X8953144Y2640939D01*
X8966657Y2641803D01*
X8980220Y2644546D01*
X8981744Y2644495D01*
X8984386Y2646019D01*
X8992006Y2648610D01*
X9003792Y2654452D01*
X9014764Y2661767D01*
X9024670Y2670454D01*
X9033357Y2680360D01*
X9040672Y2691282D01*
X9046464Y2703068D01*
X9050680Y2715564D01*
X9053271Y2728468D01*
X9054134Y2741574D01*
X9053271Y2754731D01*
X9050680Y2767634D01*
X9046464Y2780131D01*
X9040672Y2791917D01*
X9033357Y2802839D01*
X9024670Y2812745D01*
X9014764Y2821432D01*
X9003792Y2828747D01*
X8992006Y2834589D01*
X8979560Y2838805D01*
X8966657Y2841345D01*
X8953144Y2842260D01*
X8837930Y2842260D01*
X8824468Y2841345D01*
X8811564Y2838805D01*
X8799068Y2834589D01*
X8787282Y2828747D01*
X8776360Y2821432D01*
X8766200Y2812542D01*
X8460892Y2507284D01*
X8455964Y2503474D01*
X8446160Y2494026D01*
X8437727Y2483307D01*
X8430818Y2471623D01*
X8425484Y2459126D01*
X8421928Y2445969D01*
X8420100Y2432507D01*
X8420100Y2418892D01*
X8421928Y2405430D01*
X8425484Y2392273D01*
X8430818Y2379776D01*
X8437727Y2368092D01*
X8446160Y2357374D01*
X8455964Y2347925D01*
X8466886Y2339848D01*
X8478824Y2333345D01*
X8491524Y2328418D01*
X8504783Y2325268D01*
G37*
G36*
X6171438Y2370988D02*
G01*
X6171438Y2413863D01*
X6128512Y2413863D01*
X6128867Y2412949D01*
X6135166Y2402027D01*
X6142939Y2392070D01*
X6152032Y2383282D01*
X6162294Y2375865D01*
G37*
G36*
X6249162Y2370988D02*
G01*
X6258306Y2375865D01*
X6268567Y2383282D01*
X6277660Y2392070D01*
X6285433Y2402027D01*
X6291732Y2412949D01*
X6292088Y2413863D01*
X6249162Y2413863D01*
G37*
G36*
X11822938Y2447188D02*
G01*
X11822938Y2490063D01*
X11780012Y2490063D01*
X11780367Y2489149D01*
X11786666Y2478227D01*
X11794439Y2468270D01*
X11803532Y2459482D01*
X11813794Y2452065D01*
G37*
G36*
X11900662Y2447188D02*
G01*
X11909806Y2452065D01*
X11920067Y2459482D01*
X11929160Y2468270D01*
X11936933Y2478227D01*
X11943232Y2489149D01*
X11943588Y2490063D01*
X11900662Y2490063D01*
G37*
G36*
X8914638Y2459888D02*
G01*
X8914638Y2502763D01*
X8871712Y2502763D01*
X8872067Y2501849D01*
X8878366Y2490927D01*
X8886139Y2480970D01*
X8895232Y2472182D01*
X8905494Y2464765D01*
G37*
G36*
X8992362Y2459888D02*
G01*
X9001506Y2464765D01*
X9011767Y2472182D01*
X9020860Y2480970D01*
X9028633Y2490927D01*
X9034932Y2501849D01*
X9035288Y2502763D01*
X8992362Y2502763D01*
G37*
G36*
X6249162Y2491536D02*
G01*
X6291935Y2491536D01*
X6288786Y2498039D01*
X6281724Y2508504D01*
X6273241Y2517902D01*
X6263589Y2526030D01*
X6252870Y2532735D01*
X6249162Y2534361D01*
G37*
G36*
X6128664Y2491536D02*
G01*
X6171438Y2491536D01*
X6171438Y2535885D01*
X6168694Y2533243D01*
X6157010Y2526030D01*
X6147358Y2517902D01*
X6138875Y2508504D01*
X6131814Y2498039D01*
G37*
G36*
X8992362Y2580436D02*
G01*
X9035135Y2580436D01*
X9031986Y2586939D01*
X9024924Y2597404D01*
X9016441Y2606802D01*
X9006789Y2614930D01*
X8996070Y2621635D01*
X8992362Y2623261D01*
G37*
G36*
X8871864Y2580436D02*
G01*
X8914638Y2580436D01*
X8914638Y2624785D01*
X8911894Y2622143D01*
X8900210Y2614930D01*
X8890558Y2606802D01*
X8882075Y2597404D01*
X8875014Y2586939D01*
G37*
G36*
X6874256Y3254908D02*
G01*
X6888378Y3256279D01*
X6902196Y3259429D01*
X6915505Y3264357D01*
X6928053Y3270910D01*
X6939686Y3278987D01*
X6950151Y3288537D01*
X6959346Y3299307D01*
X6967118Y3311194D01*
X6973265Y3323996D01*
X6977735Y3337458D01*
X6980428Y3351377D01*
X6981342Y3365500D01*
X6980428Y3379622D01*
X6977735Y3393541D01*
X6973265Y3407003D01*
X6967118Y3419805D01*
X6959346Y3431692D01*
X6950151Y3442462D01*
X6939686Y3452012D01*
X6928053Y3460089D01*
X6914540Y3467100D01*
X6911644Y3469335D01*
X6909714Y3472484D01*
X6909053Y3476091D01*
X6909053Y3777183D01*
X6909816Y3781094D01*
X6912051Y3784396D01*
X7194905Y4067251D01*
X7198106Y4069435D01*
X7201916Y4070197D01*
X7205725Y4069537D01*
X7208824Y4068318D01*
X7222083Y4065168D01*
X7235596Y4063847D01*
X7249210Y4064304D01*
X7262622Y4066540D01*
X7275575Y4070553D01*
X7287920Y4076293D01*
X7299401Y4083608D01*
X7309815Y4092397D01*
X7318908Y4102506D01*
X7326630Y4113682D01*
X7332725Y4125823D01*
X7337196Y4138676D01*
X7339939Y4152036D01*
X7340853Y4165600D01*
X7339939Y4179163D01*
X7337196Y4192524D01*
X7332725Y4205376D01*
X7326630Y4217517D01*
X7318908Y4228693D01*
X7309815Y4238802D01*
X7299401Y4247591D01*
X7287920Y4254906D01*
X7275575Y4260646D01*
X7262622Y4264660D01*
X7249210Y4266895D01*
X7235596Y4267352D01*
X7222083Y4266031D01*
X7208824Y4262882D01*
X7196124Y4257954D01*
X7184186Y4251452D01*
X7173264Y4243374D01*
X7163460Y4233926D01*
X7155027Y4223207D01*
X7148118Y4211523D01*
X7142784Y4199026D01*
X7139228Y4185869D01*
X7137400Y4172407D01*
X7137400Y4158792D01*
X7139228Y4145330D01*
X7143089Y4131259D01*
X7143445Y4127703D01*
X7142530Y4124248D01*
X7140498Y4121353D01*
X6843928Y3824782D01*
X6838848Y3818585D01*
X6835292Y3811981D01*
X6833108Y3804767D01*
X6832346Y3796792D01*
X6832346Y3475888D01*
X6831584Y3472078D01*
X6829501Y3468827D01*
X6826300Y3466592D01*
X6819544Y3463594D01*
X6807403Y3456228D01*
X6796328Y3447389D01*
X6786473Y3437229D01*
X6777990Y3425850D01*
X6771030Y3413506D01*
X6765696Y3400348D01*
X6762089Y3386632D01*
X6760311Y3372612D01*
X6760311Y3358387D01*
X6762089Y3344367D01*
X6765696Y3330651D01*
X6771030Y3317494D01*
X6777990Y3305149D01*
X6786473Y3293770D01*
X6796328Y3283610D01*
X6807403Y3274771D01*
X6819544Y3267405D01*
X6832498Y3261664D01*
X6846062Y3257651D01*
X6860082Y3255365D01*
G37*
G36*
X6620256Y3254908D02*
G01*
X6634378Y3256279D01*
X6648196Y3259429D01*
X6661505Y3264357D01*
X6674053Y3270910D01*
X6685686Y3278987D01*
X6696151Y3288537D01*
X6705346Y3299307D01*
X6713118Y3311194D01*
X6719265Y3323996D01*
X6723735Y3337458D01*
X6726428Y3351377D01*
X6727342Y3365500D01*
X6726428Y3379622D01*
X6723735Y3393541D01*
X6719265Y3407003D01*
X6713118Y3419805D01*
X6705346Y3431692D01*
X6696151Y3442462D01*
X6685686Y3452012D01*
X6674053Y3460089D01*
X6660540Y3467100D01*
X6657644Y3469335D01*
X6655714Y3472484D01*
X6655053Y3476091D01*
X6655053Y3777183D01*
X6655816Y3781094D01*
X6658051Y3784396D01*
X7194905Y4321251D01*
X7198106Y4323435D01*
X7201916Y4324197D01*
X7205725Y4323537D01*
X7208824Y4322318D01*
X7222083Y4319168D01*
X7235596Y4317847D01*
X7249210Y4318304D01*
X7262622Y4320540D01*
X7275575Y4324553D01*
X7287920Y4330293D01*
X7299401Y4337608D01*
X7309815Y4346397D01*
X7318908Y4356506D01*
X7326630Y4367682D01*
X7332725Y4379823D01*
X7337196Y4392676D01*
X7339939Y4406036D01*
X7340853Y4419600D01*
X7339939Y4433163D01*
X7337196Y4446524D01*
X7332725Y4459376D01*
X7326630Y4471517D01*
X7318908Y4482693D01*
X7309815Y4492802D01*
X7299401Y4501591D01*
X7287920Y4508906D01*
X7275575Y4514646D01*
X7262622Y4518660D01*
X7249210Y4520895D01*
X7235596Y4521352D01*
X7222083Y4520031D01*
X7208824Y4516882D01*
X7196124Y4511954D01*
X7184186Y4505452D01*
X7173264Y4497374D01*
X7163460Y4487926D01*
X7155027Y4477207D01*
X7148118Y4465523D01*
X7142784Y4453026D01*
X7139228Y4439869D01*
X7137400Y4426407D01*
X7137400Y4412792D01*
X7139228Y4399330D01*
X7143089Y4385259D01*
X7143445Y4381703D01*
X7142530Y4378248D01*
X7140498Y4375353D01*
X6589928Y3824782D01*
X6584848Y3818585D01*
X6581292Y3811981D01*
X6579108Y3804767D01*
X6578346Y3796792D01*
X6578346Y3475888D01*
X6577584Y3472078D01*
X6575501Y3468827D01*
X6572300Y3466592D01*
X6565544Y3463594D01*
X6553403Y3456228D01*
X6542328Y3447389D01*
X6532473Y3437229D01*
X6523990Y3425850D01*
X6517030Y3413506D01*
X6511696Y3400348D01*
X6508089Y3386632D01*
X6506311Y3372612D01*
X6506311Y3358387D01*
X6508089Y3344367D01*
X6511696Y3330651D01*
X6517030Y3317494D01*
X6523990Y3305149D01*
X6532473Y3293770D01*
X6542328Y3283610D01*
X6553403Y3274771D01*
X6565544Y3267405D01*
X6578498Y3261664D01*
X6592062Y3257651D01*
X6606082Y3255365D01*
G37*
G36*
X6366256Y3254908D02*
G01*
X6380378Y3256279D01*
X6394196Y3259429D01*
X6407505Y3264357D01*
X6420053Y3270910D01*
X6431686Y3278987D01*
X6442151Y3288537D01*
X6451346Y3299307D01*
X6459118Y3311194D01*
X6465265Y3323996D01*
X6469735Y3337458D01*
X6472428Y3351377D01*
X6473342Y3365500D01*
X6472428Y3379622D01*
X6469735Y3393541D01*
X6465265Y3407003D01*
X6459118Y3419805D01*
X6451346Y3431692D01*
X6442151Y3442462D01*
X6431686Y3452012D01*
X6420053Y3460089D01*
X6406540Y3467100D01*
X6403644Y3469335D01*
X6401714Y3472484D01*
X6401054Y3476091D01*
X6401054Y3542792D01*
X6400292Y3550767D01*
X6398107Y3557981D01*
X6394551Y3564585D01*
X6389471Y3570782D01*
X6009182Y3951071D01*
X6002985Y3956151D01*
X5996381Y3959707D01*
X5989167Y3961892D01*
X5981192Y3962654D01*
X4985816Y3962654D01*
X4981905Y3963415D01*
X4978603Y3965651D01*
X4555998Y4388205D01*
X4553915Y4391355D01*
X4553051Y4395012D01*
X4553610Y4398721D01*
X4555896Y4405376D01*
X4558639Y4418736D01*
X4559554Y4432300D01*
X4558639Y4445863D01*
X4555896Y4459224D01*
X4551426Y4472076D01*
X4545330Y4484217D01*
X4537608Y4495393D01*
X4528515Y4505502D01*
X4518101Y4514291D01*
X4506620Y4521606D01*
X4494276Y4527346D01*
X4481322Y4531360D01*
X4467910Y4533595D01*
X4454296Y4534052D01*
X4440783Y4532731D01*
X4427524Y4529582D01*
X4414824Y4524654D01*
X4402886Y4518152D01*
X4391964Y4510074D01*
X4382160Y4500626D01*
X4373727Y4489907D01*
X4366818Y4478223D01*
X4361484Y4465726D01*
X4357928Y4452569D01*
X4356100Y4439107D01*
X4356100Y4425492D01*
X4357928Y4412030D01*
X4361484Y4398873D01*
X4366818Y4386376D01*
X4373727Y4374692D01*
X4382160Y4363974D01*
X4391964Y4354525D01*
X4402886Y4346448D01*
X4414824Y4339945D01*
X4427524Y4335018D01*
X4440783Y4331868D01*
X4454296Y4330547D01*
X4467910Y4331004D01*
X4481322Y4333240D01*
X4491634Y4336440D01*
X4495292Y4336897D01*
X4498797Y4335983D01*
X4501845Y4333951D01*
X4938217Y3897528D01*
X4944414Y3892448D01*
X4951018Y3888892D01*
X4958232Y3886708D01*
X4966208Y3885946D01*
X5961583Y3885946D01*
X5965494Y3885184D01*
X5968796Y3882948D01*
X6321348Y3530396D01*
X6323584Y3527094D01*
X6324346Y3523183D01*
X6324346Y3475888D01*
X6323584Y3472078D01*
X6321501Y3468827D01*
X6318300Y3466592D01*
X6311544Y3463594D01*
X6299403Y3456228D01*
X6288328Y3447389D01*
X6278473Y3437229D01*
X6269990Y3425850D01*
X6263030Y3413506D01*
X6257696Y3400348D01*
X6254089Y3386632D01*
X6252311Y3372612D01*
X6252311Y3358387D01*
X6254089Y3344367D01*
X6257696Y3330651D01*
X6263030Y3317494D01*
X6269990Y3305149D01*
X6278473Y3293770D01*
X6288328Y3283610D01*
X6299403Y3274771D01*
X6311544Y3267405D01*
X6324498Y3261664D01*
X6338062Y3257651D01*
X6352082Y3255365D01*
G37*
G36*
X7382256Y3254908D02*
G01*
X7396378Y3256279D01*
X7410196Y3259429D01*
X7423505Y3264357D01*
X7436053Y3270910D01*
X7447686Y3278987D01*
X7458151Y3288537D01*
X7467346Y3299307D01*
X7475118Y3311194D01*
X7481265Y3323996D01*
X7485735Y3337458D01*
X7488428Y3351377D01*
X7489342Y3365500D01*
X7488428Y3379622D01*
X7485735Y3393541D01*
X7484719Y3396640D01*
X7484211Y3400298D01*
X7485024Y3403955D01*
X7487158Y3407003D01*
X7848803Y3768648D01*
X7852105Y3770884D01*
X7856016Y3771646D01*
X9689592Y3771646D01*
X9697567Y3772408D01*
X9704781Y3774592D01*
X9711385Y3778148D01*
X9717582Y3783228D01*
X10001605Y4067251D01*
X10004806Y4069435D01*
X10008616Y4070197D01*
X10012426Y4069537D01*
X10015524Y4068318D01*
X10028783Y4065168D01*
X10042296Y4063847D01*
X10055910Y4064304D01*
X10069322Y4066540D01*
X10082276Y4070553D01*
X10094620Y4076293D01*
X10106101Y4083608D01*
X10116515Y4092397D01*
X10125608Y4102506D01*
X10133330Y4113682D01*
X10139426Y4125823D01*
X10143896Y4138676D01*
X10146639Y4152036D01*
X10147554Y4165600D01*
X10146639Y4179163D01*
X10143896Y4192524D01*
X10139426Y4205376D01*
X10133330Y4217517D01*
X10125608Y4228693D01*
X10116515Y4238802D01*
X10106101Y4247591D01*
X10094620Y4254906D01*
X10082276Y4260646D01*
X10069322Y4264660D01*
X10055910Y4266895D01*
X10042296Y4267352D01*
X10028783Y4266031D01*
X10015524Y4262882D01*
X10002824Y4257954D01*
X9990886Y4251452D01*
X9979964Y4243374D01*
X9970160Y4233926D01*
X9961727Y4223207D01*
X9954818Y4211523D01*
X9949484Y4199026D01*
X9945928Y4185869D01*
X9944100Y4172407D01*
X9944100Y4158792D01*
X9945928Y4145330D01*
X9949789Y4131259D01*
X9950145Y4127703D01*
X9949230Y4124248D01*
X9947198Y4121353D01*
X9677196Y3851351D01*
X9673894Y3849115D01*
X9669983Y3848354D01*
X7836408Y3848354D01*
X7828432Y3847592D01*
X7821218Y3845407D01*
X7814614Y3841851D01*
X7808417Y3836771D01*
X7438491Y3466846D01*
X7434935Y3464560D01*
X7430719Y3463899D01*
X7426604Y3465017D01*
X7423505Y3466642D01*
X7410196Y3471570D01*
X7396378Y3474720D01*
X7382256Y3476091D01*
X7368082Y3475634D01*
X7354062Y3473348D01*
X7340498Y3469335D01*
X7327544Y3463594D01*
X7315403Y3456228D01*
X7304328Y3447389D01*
X7294473Y3437229D01*
X7285990Y3425850D01*
X7279030Y3413506D01*
X7273696Y3400348D01*
X7270089Y3386632D01*
X7268311Y3372612D01*
X7268311Y3358387D01*
X7270089Y3344367D01*
X7273696Y3330651D01*
X7279030Y3317494D01*
X7285990Y3305149D01*
X7294473Y3293770D01*
X7304328Y3283610D01*
X7315403Y3274771D01*
X7327544Y3267405D01*
X7340498Y3261664D01*
X7354062Y3257651D01*
X7368082Y3255365D01*
G37*
G36*
X7128256Y3254908D02*
G01*
X7142378Y3256279D01*
X7156196Y3259429D01*
X7169505Y3264357D01*
X7182053Y3270910D01*
X7193686Y3278987D01*
X7204151Y3288537D01*
X7213346Y3299307D01*
X7221118Y3311194D01*
X7227265Y3323996D01*
X7231735Y3337458D01*
X7234428Y3351377D01*
X7235342Y3365500D01*
X7234428Y3379622D01*
X7231735Y3393541D01*
X7227265Y3407003D01*
X7218984Y3424072D01*
X7218781Y3427526D01*
X7219696Y3430828D01*
X7221677Y3433673D01*
X7721803Y3933748D01*
X7725105Y3935984D01*
X7729016Y3936746D01*
X9600692Y3936746D01*
X9608667Y3937508D01*
X9615881Y3939692D01*
X9622485Y3943248D01*
X9628682Y3948328D01*
X10001605Y4321251D01*
X10004806Y4323435D01*
X10008616Y4324197D01*
X10012426Y4323537D01*
X10015524Y4322318D01*
X10028783Y4319168D01*
X10042296Y4317847D01*
X10055910Y4318304D01*
X10069322Y4320540D01*
X10082276Y4324553D01*
X10094620Y4330293D01*
X10106101Y4337608D01*
X10116515Y4346397D01*
X10125608Y4356506D01*
X10133330Y4367682D01*
X10139426Y4379823D01*
X10143896Y4392676D01*
X10146639Y4406036D01*
X10147554Y4419600D01*
X10146639Y4433163D01*
X10143896Y4446524D01*
X10139426Y4459376D01*
X10133330Y4471517D01*
X10125608Y4482693D01*
X10116515Y4492802D01*
X10106101Y4501591D01*
X10094620Y4508906D01*
X10082276Y4514646D01*
X10069322Y4518660D01*
X10055910Y4520895D01*
X10042296Y4521352D01*
X10028783Y4520031D01*
X10015524Y4516882D01*
X10002824Y4511954D01*
X9990886Y4505452D01*
X9979964Y4497374D01*
X9970160Y4487926D01*
X9961727Y4477207D01*
X9954818Y4465523D01*
X9949484Y4453026D01*
X9945928Y4439869D01*
X9944100Y4426407D01*
X9944100Y4412792D01*
X9945928Y4399330D01*
X9949789Y4385259D01*
X9950145Y4381703D01*
X9949230Y4378248D01*
X9947198Y4375353D01*
X9588296Y4016451D01*
X9584994Y4014215D01*
X9581083Y4013454D01*
X7709408Y4013454D01*
X7701432Y4012692D01*
X7694218Y4010507D01*
X7687614Y4006951D01*
X7681417Y4001871D01*
X7156043Y3476447D01*
X7153249Y3474516D01*
X7149998Y3473551D01*
X7146594Y3473754D01*
X7142378Y3474720D01*
X7128256Y3476091D01*
X7114082Y3475634D01*
X7100062Y3473348D01*
X7086498Y3469335D01*
X7073544Y3463594D01*
X7061403Y3456228D01*
X7050328Y3447389D01*
X7040473Y3437229D01*
X7031990Y3425850D01*
X7025030Y3413506D01*
X7019696Y3400348D01*
X7016089Y3386632D01*
X7014311Y3372612D01*
X7014311Y3358387D01*
X7016089Y3344367D01*
X7019696Y3330651D01*
X7025030Y3317494D01*
X7031990Y3305149D01*
X7040473Y3293770D01*
X7050328Y3283610D01*
X7061403Y3274771D01*
X7073544Y3267405D01*
X7086498Y3261664D01*
X7100062Y3257651D01*
X7114082Y3255365D01*
G37*
G36*
X6024270Y3261106D02*
G01*
X6193129Y3261106D01*
X6199378Y3261817D01*
X6204813Y3263696D01*
X6209639Y3266744D01*
X6213703Y3270808D01*
X6216751Y3275634D01*
X6218631Y3281070D01*
X6219342Y3287318D01*
X6219342Y3443681D01*
X6218631Y3449929D01*
X6216751Y3455365D01*
X6213703Y3460191D01*
X6209639Y3464255D01*
X6204813Y3467303D01*
X6199378Y3469182D01*
X6193129Y3469894D01*
X6062776Y3469894D01*
X6058865Y3470656D01*
X6055563Y3472891D01*
X5958382Y3570071D01*
X5952185Y3575151D01*
X5945581Y3578707D01*
X5938367Y3580892D01*
X5930392Y3581654D01*
X5112816Y3581654D01*
X5108905Y3582415D01*
X5105603Y3584651D01*
X4555998Y4134205D01*
X4553915Y4137355D01*
X4553051Y4141012D01*
X4553610Y4144721D01*
X4555896Y4151376D01*
X4558639Y4164736D01*
X4559554Y4178300D01*
X4558639Y4191863D01*
X4555896Y4205224D01*
X4551426Y4218076D01*
X4545330Y4230217D01*
X4537608Y4241393D01*
X4528515Y4251502D01*
X4518101Y4260291D01*
X4506620Y4267606D01*
X4494276Y4273346D01*
X4481322Y4277360D01*
X4467910Y4279595D01*
X4454296Y4280052D01*
X4440783Y4278731D01*
X4427524Y4275582D01*
X4414824Y4270654D01*
X4402886Y4264152D01*
X4391964Y4256074D01*
X4382160Y4246626D01*
X4373727Y4235907D01*
X4366818Y4224223D01*
X4361484Y4211726D01*
X4357928Y4198569D01*
X4356100Y4185107D01*
X4356100Y4171492D01*
X4357928Y4158030D01*
X4361484Y4144873D01*
X4366818Y4132376D01*
X4373727Y4120692D01*
X4382160Y4109974D01*
X4391964Y4100525D01*
X4402886Y4092448D01*
X4414824Y4085945D01*
X4427524Y4081018D01*
X4440783Y4077868D01*
X4454296Y4076547D01*
X4467910Y4077004D01*
X4481322Y4079240D01*
X4491634Y4082440D01*
X4495292Y4082897D01*
X4498797Y4081983D01*
X4501845Y4079951D01*
X5065217Y3516528D01*
X5071414Y3511448D01*
X5078018Y3507892D01*
X5085232Y3505708D01*
X5093208Y3504946D01*
X5910783Y3504946D01*
X5914694Y3504184D01*
X5917996Y3501948D01*
X5995060Y3424885D01*
X5997295Y3421583D01*
X5998057Y3417722D01*
X5998057Y3287318D01*
X5998768Y3281070D01*
X6000648Y3275634D01*
X6003696Y3270808D01*
X6007760Y3266744D01*
X6012586Y3263696D01*
X6018022Y3261817D01*
G37*
G36*
X9615830Y3266389D02*
G01*
X9615830Y3316630D01*
X9565487Y3316630D01*
X9571990Y3305149D01*
X9580473Y3293770D01*
X9590328Y3283610D01*
X9601403Y3274771D01*
X9613544Y3267405D01*
G37*
G36*
X9361830Y3266389D02*
G01*
X9361830Y3316630D01*
X9311487Y3316630D01*
X9317990Y3305149D01*
X9326473Y3293770D01*
X9336328Y3283610D01*
X9347403Y3274771D01*
X9359544Y3267405D01*
G37*
G36*
X9713569Y3266440D02*
G01*
X9722053Y3270910D01*
X9733686Y3278987D01*
X9744151Y3288537D01*
X9753346Y3299307D01*
X9761118Y3311194D01*
X9763709Y3316630D01*
X9713569Y3316630D01*
G37*
G36*
X9459569Y3266440D02*
G01*
X9468053Y3270910D01*
X9479686Y3278987D01*
X9490151Y3288537D01*
X9499346Y3299307D01*
X9507118Y3311194D01*
X9509709Y3316630D01*
X9459569Y3316630D01*
G37*
G36*
X9459569Y3414369D02*
G01*
X9509709Y3414369D01*
X9507118Y3419805D01*
X9499346Y3431692D01*
X9490151Y3442462D01*
X9479686Y3452012D01*
X9468053Y3460089D01*
X9459569Y3464560D01*
G37*
G36*
X9713569Y3414369D02*
G01*
X9763709Y3414369D01*
X9761118Y3419805D01*
X9753346Y3431692D01*
X9744151Y3442462D01*
X9733686Y3452012D01*
X9722053Y3460089D01*
X9713569Y3464560D01*
G37*
G36*
X9565487Y3414369D02*
G01*
X9615830Y3414369D01*
X9615830Y3464610D01*
X9613544Y3463594D01*
X9601403Y3456228D01*
X9590328Y3447389D01*
X9580473Y3437229D01*
X9571990Y3425850D01*
G37*
G36*
X9311487Y3414369D02*
G01*
X9361830Y3414369D01*
X9361830Y3464610D01*
X9359544Y3463594D01*
X9347403Y3456228D01*
X9336328Y3447389D01*
X9326473Y3437229D01*
X9317990Y3425850D01*
G37*
G36*
X11650370Y3534257D02*
G01*
X11685930Y3534257D01*
X11685930Y3596030D01*
X11624157Y3596030D01*
X11624157Y3560470D01*
X11624868Y3554222D01*
X11626748Y3548786D01*
X11629796Y3543960D01*
X11633860Y3539896D01*
X11638686Y3536848D01*
X11644122Y3534968D01*
G37*
G36*
X11783669Y3534257D02*
G01*
X11819229Y3534257D01*
X11825478Y3534968D01*
X11830913Y3536848D01*
X11835739Y3539896D01*
X11839803Y3543960D01*
X11842851Y3548786D01*
X11844731Y3554222D01*
X11845442Y3560470D01*
X11845442Y3596030D01*
X11783669Y3596030D01*
G37*
G36*
X11939930Y3545789D02*
G01*
X11939930Y3596030D01*
X11889587Y3596030D01*
X11896090Y3584549D01*
X11904573Y3573170D01*
X11914428Y3563010D01*
X11925503Y3554171D01*
X11937644Y3546805D01*
G37*
G36*
X12037669Y3545840D02*
G01*
X12046153Y3550310D01*
X12057786Y3558387D01*
X12068251Y3567937D01*
X12077446Y3578707D01*
X12085218Y3590594D01*
X12087809Y3596030D01*
X12037669Y3596030D01*
G37*
G36*
X12037669Y3693769D02*
G01*
X12087809Y3693769D01*
X12085218Y3699205D01*
X12077446Y3711092D01*
X12068251Y3721862D01*
X12057786Y3731412D01*
X12046153Y3739489D01*
X12037669Y3743960D01*
G37*
G36*
X11889587Y3693769D02*
G01*
X11939930Y3693769D01*
X11939930Y3744010D01*
X11937644Y3742994D01*
X11925503Y3735628D01*
X11914428Y3726789D01*
X11904573Y3716629D01*
X11896090Y3705250D01*
G37*
G36*
X11783669Y3693769D02*
G01*
X11845442Y3693769D01*
X11845442Y3729329D01*
X11844731Y3735578D01*
X11842851Y3741013D01*
X11839803Y3745839D01*
X11835739Y3749903D01*
X11830913Y3752951D01*
X11825478Y3754831D01*
X11819229Y3755542D01*
X11783669Y3755542D01*
G37*
G36*
X11624157Y3693769D02*
G01*
X11685930Y3693769D01*
X11685930Y3755542D01*
X11650370Y3755542D01*
X11644122Y3754831D01*
X11638686Y3752951D01*
X11633860Y3749903D01*
X11629796Y3745839D01*
X11626748Y3741013D01*
X11624868Y3735578D01*
X11624157Y3729329D01*
G37*
G36*
X8464550Y4074109D02*
G01*
X8464550Y4121150D01*
X8417509Y4121150D01*
X8418118Y4119676D01*
X8425027Y4107992D01*
X8433460Y4097274D01*
X8443264Y4087825D01*
X8454186Y4079748D01*
G37*
G36*
X11271250Y4074109D02*
G01*
X11271250Y4121150D01*
X11224209Y4121150D01*
X11224818Y4119676D01*
X11231727Y4107992D01*
X11240160Y4097274D01*
X11249964Y4087825D01*
X11260886Y4079748D01*
G37*
G36*
X8553450Y4074210D02*
G01*
X8557920Y4076293D01*
X8569401Y4083608D01*
X8579815Y4092397D01*
X8588908Y4102506D01*
X8596630Y4113682D01*
X8600389Y4121150D01*
X8553450Y4121150D01*
G37*
G36*
X11360150Y4074210D02*
G01*
X11364620Y4076293D01*
X11376101Y4083608D01*
X11386515Y4092397D01*
X11395608Y4102506D01*
X11403330Y4113682D01*
X11407089Y4121150D01*
X11360150Y4121150D01*
G37*
G36*
X5683250Y4086809D02*
G01*
X5683250Y4133850D01*
X5636209Y4133850D01*
X5636818Y4132376D01*
X5643727Y4120692D01*
X5652160Y4109974D01*
X5661964Y4100525D01*
X5672886Y4092448D01*
G37*
G36*
X5772150Y4086910D02*
G01*
X5776620Y4088993D01*
X5788101Y4096308D01*
X5798515Y4105097D01*
X5807608Y4115206D01*
X5815330Y4126382D01*
X5819089Y4133850D01*
X5772150Y4133850D01*
G37*
G36*
X8553450Y4210050D02*
G01*
X8600389Y4210050D01*
X8596630Y4217517D01*
X8588908Y4228693D01*
X8579815Y4238802D01*
X8569401Y4247591D01*
X8557920Y4254906D01*
X8553450Y4256989D01*
G37*
G36*
X11360150Y4210050D02*
G01*
X11407089Y4210050D01*
X11403330Y4217517D01*
X11395608Y4228693D01*
X11386515Y4238802D01*
X11376101Y4247591D01*
X11364620Y4254906D01*
X11360150Y4256989D01*
G37*
G36*
X8417509Y4210050D02*
G01*
X8464550Y4210050D01*
X8464550Y4257090D01*
X8454186Y4251452D01*
X8443264Y4243374D01*
X8433460Y4233926D01*
X8425027Y4223207D01*
X8418118Y4211523D01*
G37*
G36*
X11224209Y4210050D02*
G01*
X11271250Y4210050D01*
X11271250Y4257090D01*
X11260886Y4251452D01*
X11249964Y4243374D01*
X11240160Y4233926D01*
X11231727Y4223207D01*
X11224818Y4211523D01*
G37*
G36*
X5772150Y4222750D02*
G01*
X5819089Y4222750D01*
X5815330Y4230217D01*
X5807608Y4241393D01*
X5798515Y4251502D01*
X5788101Y4260291D01*
X5776620Y4267606D01*
X5772150Y4269689D01*
G37*
G36*
X5636209Y4222750D02*
G01*
X5683250Y4222750D01*
X5683250Y4269790D01*
X5672886Y4264152D01*
X5661964Y4256074D01*
X5652160Y4246626D01*
X5643727Y4235907D01*
X5636818Y4224223D01*
G37*
G36*
X11811000Y4550257D02*
G01*
X11825122Y4551172D01*
X11839041Y4553864D01*
X11852503Y4558334D01*
X11865305Y4564481D01*
X11877192Y4572254D01*
X11887962Y4581448D01*
X11897512Y4591913D01*
X11905589Y4603546D01*
X11912142Y4616094D01*
X11917070Y4629404D01*
X11920220Y4643221D01*
X11921591Y4657344D01*
X11921134Y4671517D01*
X11918848Y4685538D01*
X11914835Y4699101D01*
X11909094Y4712055D01*
X11901728Y4724196D01*
X11892889Y4735271D01*
X11882729Y4745126D01*
X11871350Y4753610D01*
X11859006Y4760569D01*
X11845848Y4765903D01*
X11832132Y4769510D01*
X11824360Y4770780D01*
X11811457Y4773371D01*
X11797944Y4774234D01*
X11330686Y4774234D01*
X11325910Y4774895D01*
X11312296Y4775352D01*
X11298783Y4774031D01*
X11285524Y4770882D01*
X11272824Y4765954D01*
X11260886Y4759452D01*
X11249964Y4751374D01*
X11240160Y4741926D01*
X11231727Y4731207D01*
X11224818Y4719523D01*
X11219484Y4707026D01*
X11215928Y4693869D01*
X11214100Y4680407D01*
X11214100Y4666792D01*
X11215928Y4653330D01*
X11219484Y4640173D01*
X11224818Y4627676D01*
X11231727Y4615992D01*
X11240160Y4605274D01*
X11249964Y4595825D01*
X11260886Y4587748D01*
X11272824Y4581245D01*
X11285524Y4576318D01*
X11298783Y4573168D01*
X11312296Y4571847D01*
X11325910Y4572304D01*
X11330686Y4572965D01*
X11740743Y4572965D01*
X11743639Y4572508D01*
X11746280Y4571288D01*
X11756694Y4564481D01*
X11769496Y4558334D01*
X11782958Y4553864D01*
X11796877Y4551172D01*
G37*
G36*
X9017000Y4562957D02*
G01*
X9031122Y4563872D01*
X9045041Y4566564D01*
X9058503Y4571034D01*
X9071305Y4577181D01*
X9083192Y4584954D01*
X9093962Y4594148D01*
X9103512Y4604613D01*
X9111589Y4616246D01*
X9118142Y4628794D01*
X9123070Y4642104D01*
X9126220Y4655921D01*
X9127591Y4670044D01*
X9127134Y4684217D01*
X9124848Y4698238D01*
X9120835Y4711801D01*
X9115094Y4724755D01*
X9107728Y4736896D01*
X9098889Y4747971D01*
X9088729Y4757826D01*
X9077350Y4766310D01*
X9065006Y4773269D01*
X9051848Y4778603D01*
X9038132Y4782210D01*
X9024112Y4783988D01*
X9009888Y4783988D01*
X8995867Y4782210D01*
X8982151Y4778603D01*
X8973261Y4774996D01*
X8969451Y4774234D01*
X8523986Y4774234D01*
X8519210Y4774895D01*
X8505596Y4775352D01*
X8492083Y4774031D01*
X8478824Y4770882D01*
X8466124Y4765954D01*
X8454186Y4759452D01*
X8443264Y4751374D01*
X8433460Y4741926D01*
X8425027Y4731207D01*
X8418118Y4719523D01*
X8412784Y4707026D01*
X8409228Y4693869D01*
X8407400Y4680407D01*
X8407400Y4666792D01*
X8409228Y4653330D01*
X8412784Y4640173D01*
X8418118Y4627676D01*
X8425027Y4615992D01*
X8433460Y4605274D01*
X8443264Y4595825D01*
X8454186Y4587748D01*
X8466124Y4581245D01*
X8478824Y4576318D01*
X8492083Y4573168D01*
X8505596Y4571847D01*
X8519210Y4572304D01*
X8523986Y4572965D01*
X8969248Y4572965D01*
X8973616Y4571949D01*
X8975496Y4571034D01*
X8988958Y4566564D01*
X9002877Y4563872D01*
G37*
G36*
X10042296Y4571847D02*
G01*
X10055910Y4572304D01*
X10069322Y4574540D01*
X10082276Y4578553D01*
X10094620Y4584293D01*
X10106101Y4591608D01*
X10116515Y4600397D01*
X10125608Y4610506D01*
X10133330Y4621682D01*
X10139426Y4633823D01*
X10143896Y4646676D01*
X10146639Y4660036D01*
X10147554Y4673600D01*
X10146334Y4689500D01*
X10146334Y4911699D01*
X10147554Y4927600D01*
X10146639Y4941163D01*
X10143896Y4954524D01*
X10139426Y4967376D01*
X10133330Y4979517D01*
X10125608Y4990693D01*
X10116515Y5000802D01*
X10106101Y5009591D01*
X10094620Y5016906D01*
X10082276Y5022646D01*
X10069322Y5026660D01*
X10055910Y5028895D01*
X10042296Y5029352D01*
X10028783Y5028031D01*
X10015524Y5024882D01*
X10002824Y5019954D01*
X9990886Y5013452D01*
X9979964Y5005374D01*
X9970160Y4995926D01*
X9961727Y4985207D01*
X9954818Y4973523D01*
X9949484Y4961026D01*
X9945928Y4947869D01*
X9944100Y4934407D01*
X9944100Y4920792D01*
X9945065Y4913071D01*
X9945065Y4688128D01*
X9944100Y4680407D01*
X9944100Y4666792D01*
X9945928Y4653330D01*
X9949484Y4640173D01*
X9954818Y4627676D01*
X9961727Y4615992D01*
X9970160Y4605274D01*
X9979964Y4595825D01*
X9990886Y4587748D01*
X10002824Y4581245D01*
X10015524Y4576318D01*
X10028783Y4573168D01*
G37*
G36*
X7235596Y4571847D02*
G01*
X7249210Y4572304D01*
X7262622Y4574540D01*
X7275575Y4578553D01*
X7287920Y4584293D01*
X7299401Y4591608D01*
X7309815Y4600397D01*
X7318908Y4610506D01*
X7326630Y4621682D01*
X7332725Y4633823D01*
X7337196Y4646676D01*
X7339939Y4660036D01*
X7340853Y4673600D01*
X7339634Y4689500D01*
X7339634Y4911699D01*
X7340853Y4927600D01*
X7339939Y4941163D01*
X7337196Y4954524D01*
X7332725Y4967376D01*
X7326630Y4979517D01*
X7318908Y4990693D01*
X7309815Y5000802D01*
X7299401Y5009591D01*
X7287920Y5016906D01*
X7275575Y5022646D01*
X7262622Y5026660D01*
X7249210Y5028895D01*
X7235596Y5029352D01*
X7222083Y5028031D01*
X7208824Y5024882D01*
X7196124Y5019954D01*
X7184186Y5013452D01*
X7173264Y5005374D01*
X7163460Y4995926D01*
X7155027Y4985207D01*
X7148118Y4973523D01*
X7142784Y4961026D01*
X7139228Y4947869D01*
X7137400Y4934407D01*
X7137400Y4920792D01*
X7138365Y4913071D01*
X7138365Y4688128D01*
X7137400Y4680407D01*
X7137400Y4666792D01*
X7139228Y4653330D01*
X7142784Y4640173D01*
X7148118Y4627676D01*
X7155027Y4615992D01*
X7163460Y4605274D01*
X7173264Y4595825D01*
X7184186Y4587748D01*
X7196124Y4581245D01*
X7208824Y4576318D01*
X7222083Y4573168D01*
G37*
G36*
X6197600Y4575657D02*
G01*
X6211722Y4576572D01*
X6225641Y4579264D01*
X6239103Y4583734D01*
X6251905Y4589881D01*
X6263792Y4597654D01*
X6274562Y4606848D01*
X6284112Y4617313D01*
X6292189Y4628946D01*
X6298742Y4641494D01*
X6303670Y4654804D01*
X6306820Y4668621D01*
X6308191Y4682744D01*
X6307734Y4696917D01*
X6305448Y4710938D01*
X6301435Y4724501D01*
X6295694Y4737455D01*
X6288328Y4749596D01*
X6279489Y4760671D01*
X6269329Y4770526D01*
X6257950Y4779010D01*
X6245606Y4785969D01*
X6232448Y4791303D01*
X6218732Y4794910D01*
X6204712Y4796688D01*
X6190488Y4796688D01*
X6176467Y4794910D01*
X6162751Y4791303D01*
X6153861Y4787696D01*
X6150051Y4786934D01*
X5742686Y4786934D01*
X5737910Y4787595D01*
X5724296Y4788052D01*
X5710783Y4786731D01*
X5697524Y4783582D01*
X5684824Y4778654D01*
X5672886Y4772152D01*
X5661964Y4764074D01*
X5652160Y4754626D01*
X5643727Y4743907D01*
X5636818Y4732223D01*
X5631484Y4719726D01*
X5627928Y4706569D01*
X5626100Y4693107D01*
X5626100Y4679492D01*
X5627928Y4666030D01*
X5631484Y4652873D01*
X5636818Y4640376D01*
X5643727Y4628692D01*
X5652160Y4617974D01*
X5661964Y4608525D01*
X5672886Y4600448D01*
X5684824Y4593945D01*
X5697524Y4589018D01*
X5710783Y4585868D01*
X5724296Y4584547D01*
X5737910Y4585004D01*
X5742686Y4585665D01*
X6149848Y4585665D01*
X6154216Y4584649D01*
X6156096Y4583734D01*
X6169558Y4579264D01*
X6183477Y4576572D01*
G37*
G36*
X4454296Y4584547D02*
G01*
X4467910Y4585004D01*
X4481322Y4587240D01*
X4494276Y4591253D01*
X4506620Y4596993D01*
X4518101Y4604308D01*
X4528515Y4613097D01*
X4537608Y4623206D01*
X4545330Y4634382D01*
X4551426Y4646523D01*
X4555896Y4659376D01*
X4558639Y4672736D01*
X4559554Y4686300D01*
X4558334Y4702200D01*
X4558334Y4924399D01*
X4559554Y4940300D01*
X4558639Y4953863D01*
X4555896Y4967224D01*
X4551426Y4980076D01*
X4545330Y4992217D01*
X4537608Y5003393D01*
X4528515Y5013502D01*
X4518101Y5022291D01*
X4506620Y5029606D01*
X4494276Y5035346D01*
X4481322Y5039360D01*
X4467910Y5041595D01*
X4454296Y5042052D01*
X4440783Y5040731D01*
X4427524Y5037582D01*
X4414824Y5032654D01*
X4402886Y5026152D01*
X4391964Y5018074D01*
X4382160Y5008626D01*
X4373727Y4997907D01*
X4366818Y4986223D01*
X4361484Y4973726D01*
X4357928Y4960569D01*
X4356100Y4947107D01*
X4356100Y4933492D01*
X4357065Y4925771D01*
X4357065Y4700828D01*
X4356100Y4693107D01*
X4356100Y4679492D01*
X4357928Y4666030D01*
X4361484Y4652873D01*
X4366818Y4640376D01*
X4373727Y4628692D01*
X4382160Y4617974D01*
X4391964Y4608525D01*
X4402886Y4600448D01*
X4414824Y4593945D01*
X4427524Y4589018D01*
X4440783Y4585868D01*
G37*
G36*
X11811000Y4804257D02*
G01*
X11825122Y4805172D01*
X11839041Y4807864D01*
X11852503Y4812334D01*
X11865305Y4818481D01*
X11877192Y4826254D01*
X11887962Y4835448D01*
X11897512Y4845913D01*
X11905589Y4857546D01*
X11912142Y4870094D01*
X11917070Y4883404D01*
X11920220Y4897221D01*
X11921591Y4911344D01*
X11921134Y4925517D01*
X11918848Y4939538D01*
X11914835Y4953101D01*
X11909094Y4966055D01*
X11901728Y4978196D01*
X11892889Y4989271D01*
X11882729Y4999126D01*
X11871350Y5007610D01*
X11859006Y5014569D01*
X11845848Y5019903D01*
X11832132Y5023510D01*
X11818112Y5025288D01*
X11803888Y5025288D01*
X11789867Y5023510D01*
X11776151Y5019903D01*
X11767261Y5016296D01*
X11763451Y5015534D01*
X11369700Y5015534D01*
X11365433Y5016500D01*
X11352276Y5022646D01*
X11339322Y5026660D01*
X11325910Y5028895D01*
X11312296Y5029352D01*
X11298783Y5028031D01*
X11285524Y5024882D01*
X11272824Y5019954D01*
X11260886Y5013452D01*
X11249964Y5005374D01*
X11240160Y4995926D01*
X11231727Y4985207D01*
X11224818Y4973523D01*
X11219484Y4961026D01*
X11215928Y4947869D01*
X11214100Y4934407D01*
X11214100Y4920792D01*
X11215928Y4907330D01*
X11219484Y4894173D01*
X11224818Y4881676D01*
X11231727Y4869992D01*
X11240160Y4859274D01*
X11249964Y4849825D01*
X11254892Y4846015D01*
X11267135Y4835042D01*
X11278108Y4827727D01*
X11289893Y4821936D01*
X11302339Y4817719D01*
X11315242Y4815128D01*
X11328755Y4814265D01*
X11763248Y4814265D01*
X11767616Y4813249D01*
X11769496Y4812334D01*
X11782958Y4807864D01*
X11796877Y4805172D01*
G37*
G36*
X9017000Y4816957D02*
G01*
X9031122Y4817872D01*
X9045041Y4820564D01*
X9058503Y4825034D01*
X9071305Y4831181D01*
X9083192Y4838954D01*
X9093962Y4848148D01*
X9103512Y4858613D01*
X9111589Y4870246D01*
X9118142Y4882794D01*
X9123070Y4896104D01*
X9126220Y4909921D01*
X9127591Y4924044D01*
X9127134Y4938217D01*
X9124848Y4952238D01*
X9120835Y4965801D01*
X9115094Y4978755D01*
X9107728Y4990896D01*
X9098889Y5001971D01*
X9088729Y5011826D01*
X9077350Y5020310D01*
X9065006Y5027269D01*
X9051848Y5032603D01*
X9038132Y5036210D01*
X9024112Y5037988D01*
X9009888Y5037988D01*
X8995867Y5036210D01*
X8982151Y5032603D01*
X8973261Y5028996D01*
X8969451Y5028234D01*
X8523986Y5028234D01*
X8519210Y5028895D01*
X8505596Y5029352D01*
X8492083Y5028031D01*
X8478824Y5024882D01*
X8466124Y5019954D01*
X8454186Y5013452D01*
X8443264Y5005374D01*
X8433460Y4995926D01*
X8425027Y4985207D01*
X8418118Y4973523D01*
X8412784Y4961026D01*
X8409228Y4947869D01*
X8407400Y4934407D01*
X8407400Y4920792D01*
X8409228Y4907330D01*
X8412784Y4894173D01*
X8418118Y4881676D01*
X8425027Y4869992D01*
X8433460Y4859274D01*
X8443264Y4849825D01*
X8454186Y4841748D01*
X8466124Y4835245D01*
X8478824Y4830318D01*
X8492083Y4827168D01*
X8505596Y4825847D01*
X8519210Y4826304D01*
X8523986Y4826965D01*
X8969248Y4826965D01*
X8973616Y4825949D01*
X8975496Y4825034D01*
X8988958Y4820564D01*
X9002877Y4817872D01*
G37*
G36*
X6197600Y4829657D02*
G01*
X6211722Y4830572D01*
X6225641Y4833264D01*
X6239103Y4837734D01*
X6251905Y4843881D01*
X6263792Y4851654D01*
X6274562Y4860848D01*
X6284112Y4871313D01*
X6292189Y4882946D01*
X6298742Y4895494D01*
X6303670Y4908804D01*
X6306820Y4922621D01*
X6308191Y4936744D01*
X6307734Y4950917D01*
X6305448Y4964938D01*
X6301435Y4978501D01*
X6295694Y4991455D01*
X6288328Y5003596D01*
X6279489Y5014671D01*
X6269329Y5024526D01*
X6257950Y5033010D01*
X6245606Y5039969D01*
X6232448Y5045303D01*
X6218732Y5048910D01*
X6204712Y5050688D01*
X6190488Y5050688D01*
X6176467Y5048910D01*
X6162751Y5045303D01*
X6153861Y5041696D01*
X6150051Y5040934D01*
X5742686Y5040934D01*
X5737910Y5041595D01*
X5724296Y5042052D01*
X5710783Y5040731D01*
X5697524Y5037582D01*
X5684824Y5032654D01*
X5672886Y5026152D01*
X5661964Y5018074D01*
X5652160Y5008626D01*
X5643727Y4997907D01*
X5636818Y4986223D01*
X5631484Y4973726D01*
X5627928Y4960569D01*
X5626100Y4947107D01*
X5626100Y4933492D01*
X5627928Y4920030D01*
X5631484Y4906873D01*
X5636818Y4894376D01*
X5643727Y4882692D01*
X5652160Y4871974D01*
X5661964Y4862525D01*
X5672886Y4854448D01*
X5684824Y4847945D01*
X5697524Y4843018D01*
X5710783Y4839868D01*
X5724296Y4838547D01*
X5737910Y4839004D01*
X5742686Y4839665D01*
X6149848Y4839665D01*
X6154216Y4838649D01*
X6156096Y4837734D01*
X6169558Y4833264D01*
X6183477Y4830572D01*
G37*
G36*
X11811000Y5058257D02*
G01*
X11825122Y5059172D01*
X11839041Y5061864D01*
X11852503Y5066334D01*
X11865305Y5072481D01*
X11877192Y5080254D01*
X11887962Y5089448D01*
X11897512Y5099913D01*
X11905589Y5111546D01*
X11912142Y5124094D01*
X11917070Y5137404D01*
X11920220Y5151221D01*
X11921591Y5165344D01*
X11921134Y5179517D01*
X11918848Y5193538D01*
X11914835Y5207101D01*
X11909094Y5220055D01*
X11901728Y5232196D01*
X11892889Y5243271D01*
X11882729Y5253126D01*
X11871350Y5261610D01*
X11859006Y5268569D01*
X11845848Y5273903D01*
X11832132Y5277510D01*
X11824360Y5278780D01*
X11811457Y5281371D01*
X11797944Y5282234D01*
X11330686Y5282234D01*
X11325910Y5282895D01*
X11312296Y5283352D01*
X11298783Y5282031D01*
X11285524Y5278882D01*
X11272824Y5273954D01*
X11260886Y5267452D01*
X11249964Y5259374D01*
X11240160Y5249926D01*
X11231727Y5239207D01*
X11224818Y5227523D01*
X11219484Y5215026D01*
X11215928Y5201869D01*
X11214100Y5188407D01*
X11214100Y5174792D01*
X11215928Y5161330D01*
X11219484Y5148173D01*
X11224818Y5135676D01*
X11231727Y5123992D01*
X11240160Y5113274D01*
X11249964Y5103825D01*
X11260886Y5095748D01*
X11272824Y5089245D01*
X11285524Y5084318D01*
X11298783Y5081168D01*
X11312296Y5079847D01*
X11325910Y5080304D01*
X11330686Y5080965D01*
X11740743Y5080965D01*
X11743639Y5080508D01*
X11746280Y5079288D01*
X11756694Y5072481D01*
X11769496Y5066334D01*
X11782958Y5061864D01*
X11796877Y5059172D01*
G37*
G36*
X9567570Y5070957D02*
G01*
X9736429Y5070957D01*
X9742678Y5071668D01*
X9748113Y5073548D01*
X9752939Y5076596D01*
X9754311Y5077968D01*
X9757613Y5080152D01*
X9761524Y5080965D01*
X10030663Y5080965D01*
X10042296Y5079847D01*
X10055910Y5080304D01*
X10069322Y5082540D01*
X10082276Y5086553D01*
X10094620Y5092293D01*
X10106101Y5099608D01*
X10116515Y5108397D01*
X10125608Y5118506D01*
X10133330Y5129682D01*
X10139426Y5141823D01*
X10143896Y5154676D01*
X10146639Y5168036D01*
X10147554Y5181600D01*
X10146639Y5195163D01*
X10143896Y5208524D01*
X10139426Y5221376D01*
X10133330Y5233517D01*
X10125608Y5244693D01*
X10116515Y5254802D01*
X10106101Y5263591D01*
X10094620Y5270906D01*
X10082276Y5276646D01*
X10069322Y5280660D01*
X10055910Y5282895D01*
X10042296Y5283352D01*
X10030663Y5282234D01*
X9761524Y5282234D01*
X9757613Y5283047D01*
X9754311Y5285232D01*
X9752939Y5286603D01*
X9748113Y5289651D01*
X9742678Y5291531D01*
X9736429Y5292242D01*
X9567570Y5292242D01*
X9561322Y5291531D01*
X9555886Y5289651D01*
X9551060Y5286603D01*
X9546996Y5282539D01*
X9543948Y5277713D01*
X9542068Y5272278D01*
X9541357Y5266029D01*
X9541357Y5097170D01*
X9542068Y5090922D01*
X9543948Y5085486D01*
X9546996Y5080660D01*
X9551060Y5076596D01*
X9555886Y5073548D01*
X9561322Y5071668D01*
G37*
G36*
X9017000Y5070957D02*
G01*
X9031122Y5071872D01*
X9045041Y5074564D01*
X9058503Y5079034D01*
X9071305Y5085181D01*
X9083192Y5092954D01*
X9093962Y5102148D01*
X9103512Y5112613D01*
X9111589Y5124246D01*
X9118142Y5136794D01*
X9123070Y5150104D01*
X9126220Y5163921D01*
X9127591Y5178044D01*
X9127134Y5192217D01*
X9124848Y5206238D01*
X9120835Y5219801D01*
X9115094Y5232755D01*
X9107728Y5244896D01*
X9098889Y5255971D01*
X9088729Y5265826D01*
X9077350Y5274310D01*
X9065006Y5281269D01*
X9051848Y5286603D01*
X9038132Y5290210D01*
X9024112Y5291988D01*
X9009888Y5291988D01*
X8995867Y5290210D01*
X8982151Y5286603D01*
X8973261Y5282996D01*
X8969451Y5282234D01*
X8523986Y5282234D01*
X8519210Y5282895D01*
X8505596Y5283352D01*
X8492083Y5282031D01*
X8478824Y5278882D01*
X8466124Y5273954D01*
X8454186Y5267452D01*
X8443264Y5259374D01*
X8433460Y5249926D01*
X8425027Y5239207D01*
X8418118Y5227523D01*
X8412784Y5215026D01*
X8409228Y5201869D01*
X8407400Y5188407D01*
X8407400Y5174792D01*
X8409228Y5161330D01*
X8412784Y5148173D01*
X8418118Y5135676D01*
X8425027Y5123992D01*
X8433460Y5113274D01*
X8443264Y5103825D01*
X8454186Y5095748D01*
X8466124Y5089245D01*
X8478824Y5084318D01*
X8492083Y5081168D01*
X8505596Y5079847D01*
X8519210Y5080304D01*
X8523986Y5080965D01*
X8969248Y5080965D01*
X8973616Y5079949D01*
X8975496Y5079034D01*
X8988958Y5074564D01*
X9002877Y5071872D01*
G37*
G36*
X3877970Y5070957D02*
G01*
X4046829Y5070957D01*
X4053078Y5071668D01*
X4058513Y5073548D01*
X4063339Y5076596D01*
X4067403Y5080660D01*
X4070451Y5085486D01*
X4073093Y5090414D01*
X4076446Y5092801D01*
X4080510Y5093665D01*
X4442663Y5093665D01*
X4454296Y5092547D01*
X4467910Y5093004D01*
X4481322Y5095240D01*
X4494276Y5099253D01*
X4506620Y5104993D01*
X4518101Y5112308D01*
X4528515Y5121097D01*
X4537608Y5131206D01*
X4545330Y5142382D01*
X4551426Y5154523D01*
X4555896Y5167376D01*
X4558639Y5180736D01*
X4559554Y5194300D01*
X4558639Y5207863D01*
X4555896Y5221224D01*
X4551426Y5234076D01*
X4545330Y5246217D01*
X4537608Y5257393D01*
X4528515Y5267502D01*
X4518101Y5276291D01*
X4506620Y5283606D01*
X4494276Y5289346D01*
X4481322Y5293360D01*
X4467910Y5295595D01*
X4454296Y5296052D01*
X4442663Y5294934D01*
X3975455Y5294934D01*
X3961942Y5294071D01*
X3953814Y5292445D01*
X3951833Y5292242D01*
X3877970Y5292242D01*
X3871722Y5291531D01*
X3866286Y5289651D01*
X3861460Y5286603D01*
X3857396Y5282539D01*
X3854348Y5277713D01*
X3852468Y5272278D01*
X3851757Y5266029D01*
X3851757Y5097170D01*
X3852468Y5090922D01*
X3854348Y5085486D01*
X3857396Y5080660D01*
X3861460Y5076596D01*
X3866286Y5073548D01*
X3871722Y5071668D01*
G37*
G36*
X7235596Y5079847D02*
G01*
X7249210Y5080304D01*
X7262622Y5082540D01*
X7275575Y5086553D01*
X7287920Y5092293D01*
X7299401Y5099608D01*
X7309815Y5108397D01*
X7318908Y5118506D01*
X7326630Y5129682D01*
X7332725Y5141823D01*
X7337196Y5154676D01*
X7339939Y5168036D01*
X7340853Y5181600D01*
X7339939Y5195163D01*
X7337196Y5208524D01*
X7332725Y5221376D01*
X7326630Y5233517D01*
X7318908Y5244693D01*
X7309815Y5254802D01*
X7299401Y5263591D01*
X7287920Y5270906D01*
X7275575Y5276646D01*
X7262622Y5280660D01*
X7249210Y5282895D01*
X7235596Y5283352D01*
X7223963Y5282234D01*
X6938009Y5282234D01*
X6933946Y5283098D01*
X6930593Y5285486D01*
X6927951Y5290413D01*
X6924903Y5295239D01*
X6920839Y5299303D01*
X6916013Y5302351D01*
X6910578Y5304231D01*
X6904329Y5304942D01*
X6735470Y5304942D01*
X6729222Y5304231D01*
X6723786Y5302351D01*
X6718960Y5299303D01*
X6714896Y5295239D01*
X6711848Y5290413D01*
X6709968Y5284978D01*
X6709257Y5278729D01*
X6709257Y5109870D01*
X6709968Y5103622D01*
X6711848Y5098186D01*
X6714896Y5093360D01*
X6718960Y5089296D01*
X6723786Y5086248D01*
X6729222Y5084368D01*
X6735470Y5083657D01*
X6809333Y5083657D01*
X6811314Y5083454D01*
X6819442Y5081828D01*
X6832955Y5080965D01*
X7223963Y5080965D01*
G37*
G36*
X6197600Y5083657D02*
G01*
X6211722Y5084572D01*
X6225641Y5087264D01*
X6239103Y5091734D01*
X6251905Y5097881D01*
X6263792Y5105654D01*
X6274562Y5114848D01*
X6284112Y5125313D01*
X6292189Y5136946D01*
X6298742Y5149494D01*
X6303670Y5162804D01*
X6306820Y5176621D01*
X6308191Y5190744D01*
X6307734Y5204917D01*
X6305448Y5218938D01*
X6301435Y5232501D01*
X6295694Y5245455D01*
X6288328Y5257596D01*
X6279489Y5268671D01*
X6269329Y5278526D01*
X6257950Y5287010D01*
X6245606Y5293969D01*
X6232448Y5299303D01*
X6218732Y5302910D01*
X6204712Y5304688D01*
X6190488Y5304688D01*
X6176467Y5302910D01*
X6162751Y5299303D01*
X6153861Y5295696D01*
X6150051Y5294934D01*
X5742686Y5294934D01*
X5737910Y5295595D01*
X5724296Y5296052D01*
X5710783Y5294731D01*
X5697524Y5291582D01*
X5684824Y5286654D01*
X5672886Y5280152D01*
X5661964Y5272074D01*
X5652160Y5262626D01*
X5643727Y5251907D01*
X5636818Y5240223D01*
X5631484Y5227726D01*
X5627928Y5214569D01*
X5626100Y5201107D01*
X5626100Y5187492D01*
X5627928Y5174030D01*
X5631484Y5160873D01*
X5636818Y5148376D01*
X5643727Y5136692D01*
X5652160Y5125974D01*
X5661964Y5116525D01*
X5672886Y5108448D01*
X5684824Y5101945D01*
X5697524Y5097018D01*
X5710783Y5093868D01*
X5724296Y5092547D01*
X5737910Y5093004D01*
X5742686Y5093665D01*
X6149848Y5093665D01*
X6154216Y5092649D01*
X6156096Y5091734D01*
X6169558Y5087264D01*
X6183477Y5084572D01*
G37*
G36*
X11726570Y5312257D02*
G01*
X11895429Y5312257D01*
X11901678Y5312968D01*
X11907113Y5314848D01*
X11911939Y5317896D01*
X11916003Y5321960D01*
X11919051Y5326786D01*
X11920931Y5332222D01*
X11921642Y5338470D01*
X11921642Y5507329D01*
X11920931Y5513578D01*
X11919051Y5519013D01*
X11916003Y5523839D01*
X11911939Y5527903D01*
X11907113Y5530951D01*
X11901678Y5532831D01*
X11895429Y5533542D01*
X11726570Y5533542D01*
X11720322Y5532831D01*
X11714886Y5530951D01*
X11710060Y5527903D01*
X11708688Y5526532D01*
X11705386Y5524347D01*
X11701475Y5523534D01*
X11369700Y5523534D01*
X11365433Y5524500D01*
X11352276Y5530646D01*
X11339322Y5534660D01*
X11325910Y5536895D01*
X11312296Y5537352D01*
X11298783Y5536031D01*
X11285524Y5532882D01*
X11272824Y5527954D01*
X11260886Y5521452D01*
X11249964Y5513374D01*
X11240160Y5503926D01*
X11231727Y5493207D01*
X11224818Y5481523D01*
X11219484Y5469026D01*
X11215928Y5455869D01*
X11214100Y5442407D01*
X11214100Y5428792D01*
X11215928Y5415330D01*
X11219484Y5402173D01*
X11224818Y5389676D01*
X11231727Y5377992D01*
X11240160Y5367274D01*
X11249964Y5357825D01*
X11254892Y5354015D01*
X11267135Y5343042D01*
X11278108Y5335727D01*
X11289893Y5329936D01*
X11302339Y5325719D01*
X11315242Y5323128D01*
X11328755Y5322265D01*
X11701475Y5322265D01*
X11705386Y5321452D01*
X11708688Y5319268D01*
X11710060Y5317896D01*
X11714886Y5314848D01*
X11720322Y5312968D01*
G37*
G36*
X8932570Y5324957D02*
G01*
X9101429Y5324957D01*
X9107678Y5325668D01*
X9113113Y5327548D01*
X9117939Y5330596D01*
X9122003Y5334660D01*
X9125051Y5339486D01*
X9126931Y5344922D01*
X9127642Y5351170D01*
X9127642Y5520029D01*
X9126931Y5526278D01*
X9125051Y5531713D01*
X9122003Y5536539D01*
X9117939Y5540603D01*
X9113113Y5543651D01*
X9107678Y5545531D01*
X9101429Y5546242D01*
X8932570Y5546242D01*
X8926322Y5545531D01*
X8920886Y5543651D01*
X8916060Y5540603D01*
X8914688Y5539232D01*
X8911386Y5537047D01*
X8907475Y5536234D01*
X8523986Y5536234D01*
X8519210Y5536895D01*
X8505596Y5537352D01*
X8492083Y5536031D01*
X8478824Y5532882D01*
X8466124Y5527954D01*
X8454186Y5521452D01*
X8443264Y5513374D01*
X8433460Y5503926D01*
X8425027Y5493207D01*
X8418118Y5481523D01*
X8412784Y5469026D01*
X8409228Y5455869D01*
X8407400Y5442407D01*
X8407400Y5428792D01*
X8409228Y5415330D01*
X8412784Y5402173D01*
X8418118Y5389676D01*
X8425027Y5377992D01*
X8433460Y5367274D01*
X8443264Y5357825D01*
X8454186Y5349748D01*
X8466124Y5343245D01*
X8478824Y5338318D01*
X8492083Y5335168D01*
X8505596Y5333847D01*
X8519210Y5334304D01*
X8523986Y5334965D01*
X8907475Y5334965D01*
X8911386Y5334152D01*
X8914688Y5331968D01*
X8916060Y5330596D01*
X8920886Y5327548D01*
X8926322Y5325668D01*
G37*
G36*
X9644888Y5325211D02*
G01*
X9659112Y5325211D01*
X9673132Y5326989D01*
X9686848Y5330596D01*
X9695738Y5334203D01*
X9699548Y5334965D01*
X10030663Y5334965D01*
X10042296Y5333847D01*
X10055910Y5334304D01*
X10069322Y5336540D01*
X10082276Y5340553D01*
X10094620Y5346293D01*
X10106101Y5353608D01*
X10116515Y5362397D01*
X10125608Y5372506D01*
X10133330Y5383682D01*
X10139426Y5395823D01*
X10143896Y5408676D01*
X10146639Y5422036D01*
X10147554Y5435600D01*
X10146639Y5449163D01*
X10143896Y5462524D01*
X10139426Y5475376D01*
X10133330Y5487517D01*
X10125608Y5498693D01*
X10116515Y5508802D01*
X10106101Y5517591D01*
X10094620Y5524906D01*
X10082276Y5530646D01*
X10069322Y5534660D01*
X10055910Y5536895D01*
X10042296Y5537352D01*
X10030663Y5536234D01*
X9699752Y5536234D01*
X9695383Y5537250D01*
X9693503Y5538165D01*
X9680041Y5542635D01*
X9666122Y5545328D01*
X9652000Y5546242D01*
X9637877Y5545328D01*
X9623958Y5542635D01*
X9610496Y5538165D01*
X9597694Y5532018D01*
X9585807Y5524246D01*
X9575038Y5515051D01*
X9565487Y5504586D01*
X9557410Y5492953D01*
X9550857Y5480405D01*
X9545929Y5467096D01*
X9542780Y5453278D01*
X9541408Y5439156D01*
X9541865Y5424982D01*
X9544151Y5410962D01*
X9548164Y5397398D01*
X9553905Y5384444D01*
X9561271Y5372303D01*
X9570110Y5361228D01*
X9580270Y5351373D01*
X9591649Y5342890D01*
X9603994Y5335930D01*
X9617151Y5330596D01*
X9630867Y5326989D01*
G37*
G36*
X3955287Y5325211D02*
G01*
X3969512Y5325211D01*
X3983532Y5326989D01*
X3997248Y5330596D01*
X4006138Y5334203D01*
X4009948Y5334965D01*
X4444644Y5334965D01*
X4458157Y5335828D01*
X4471060Y5338419D01*
X4483506Y5342636D01*
X4495292Y5348427D01*
X4506264Y5355742D01*
X4518152Y5366359D01*
X4528515Y5375097D01*
X4537608Y5385206D01*
X4545330Y5396382D01*
X4551426Y5408523D01*
X4555896Y5421376D01*
X4558639Y5434736D01*
X4559554Y5448300D01*
X4558639Y5461863D01*
X4555896Y5475224D01*
X4551426Y5488076D01*
X4545330Y5500217D01*
X4537608Y5511393D01*
X4528515Y5521502D01*
X4518101Y5530291D01*
X4506620Y5537606D01*
X4494276Y5543346D01*
X4481322Y5547360D01*
X4467910Y5549595D01*
X4454296Y5550052D01*
X4440783Y5548731D01*
X4427524Y5545582D01*
X4414824Y5540654D01*
X4409033Y5537504D01*
X4406696Y5536590D01*
X4404156Y5536234D01*
X4010151Y5536234D01*
X4005783Y5537250D01*
X4003903Y5538165D01*
X3990441Y5542635D01*
X3976522Y5545328D01*
X3962400Y5546242D01*
X3948277Y5545328D01*
X3934358Y5542635D01*
X3920896Y5538165D01*
X3908094Y5532018D01*
X3896207Y5524246D01*
X3885437Y5515051D01*
X3875887Y5504586D01*
X3867810Y5492953D01*
X3861257Y5480405D01*
X3856329Y5467096D01*
X3853179Y5453278D01*
X3851808Y5439156D01*
X3852265Y5424982D01*
X3854551Y5410962D01*
X3858564Y5397398D01*
X3864305Y5384444D01*
X3871671Y5372303D01*
X3880510Y5361228D01*
X3890670Y5351373D01*
X3902049Y5342890D01*
X3914394Y5335930D01*
X3927551Y5330596D01*
X3941267Y5326989D01*
G37*
G36*
X7235596Y5333847D02*
G01*
X7249210Y5334304D01*
X7262622Y5336540D01*
X7275575Y5340553D01*
X7287920Y5346293D01*
X7299401Y5353608D01*
X7309815Y5362397D01*
X7318908Y5372506D01*
X7326630Y5383682D01*
X7332725Y5395823D01*
X7337196Y5408676D01*
X7339939Y5422036D01*
X7340853Y5435600D01*
X7339939Y5449163D01*
X7337196Y5462524D01*
X7332725Y5475376D01*
X7326630Y5487517D01*
X7318908Y5498693D01*
X7309815Y5508802D01*
X7287564Y5528157D01*
X7276592Y5535472D01*
X7264806Y5541264D01*
X7252360Y5545480D01*
X7239457Y5548071D01*
X7225944Y5548934D01*
X6867652Y5548934D01*
X6863283Y5549950D01*
X6861403Y5550865D01*
X6847941Y5555335D01*
X6834022Y5558028D01*
X6819900Y5558942D01*
X6805777Y5558028D01*
X6791858Y5555335D01*
X6778396Y5550865D01*
X6765594Y5544718D01*
X6753707Y5536946D01*
X6742938Y5527751D01*
X6733387Y5517286D01*
X6725310Y5505653D01*
X6718757Y5493105D01*
X6713829Y5479796D01*
X6710680Y5465978D01*
X6709308Y5451856D01*
X6709765Y5437682D01*
X6712051Y5423662D01*
X6716064Y5410098D01*
X6721805Y5397144D01*
X6729171Y5385003D01*
X6738010Y5373928D01*
X6748170Y5364073D01*
X6759549Y5355590D01*
X6771894Y5348630D01*
X6785051Y5343296D01*
X6798767Y5339689D01*
X6812788Y5337911D01*
X6827012Y5337911D01*
X6841032Y5339689D01*
X6854748Y5343296D01*
X6863638Y5346903D01*
X6867448Y5347665D01*
X7185456Y5347665D01*
X7187996Y5347309D01*
X7190333Y5346395D01*
X7196124Y5343245D01*
X7208824Y5338318D01*
X7222083Y5335168D01*
G37*
G36*
X6113170Y5337657D02*
G01*
X6282029Y5337657D01*
X6288278Y5338368D01*
X6293713Y5340248D01*
X6298539Y5343296D01*
X6302603Y5347360D01*
X6305651Y5352186D01*
X6307531Y5357622D01*
X6308242Y5363870D01*
X6308242Y5532729D01*
X6307531Y5538978D01*
X6305651Y5544413D01*
X6302603Y5549239D01*
X6298539Y5553303D01*
X6293713Y5556351D01*
X6288278Y5558231D01*
X6282029Y5558942D01*
X6113170Y5558942D01*
X6106922Y5558231D01*
X6101486Y5556351D01*
X6096660Y5553303D01*
X6095288Y5551932D01*
X6091986Y5549747D01*
X6088075Y5548934D01*
X5742686Y5548934D01*
X5737910Y5549595D01*
X5724296Y5550052D01*
X5710783Y5548731D01*
X5697524Y5545582D01*
X5684824Y5540654D01*
X5672886Y5534152D01*
X5661964Y5526074D01*
X5652160Y5516626D01*
X5643727Y5505907D01*
X5636818Y5494223D01*
X5631484Y5481726D01*
X5627928Y5468569D01*
X5626100Y5455107D01*
X5626100Y5441492D01*
X5627928Y5428030D01*
X5631484Y5414873D01*
X5636818Y5402376D01*
X5643727Y5390692D01*
X5652160Y5379974D01*
X5661964Y5370525D01*
X5672886Y5362448D01*
X5684824Y5355945D01*
X5697524Y5351018D01*
X5710783Y5347868D01*
X5724296Y5346547D01*
X5737910Y5347004D01*
X5742686Y5347665D01*
X6088075Y5347665D01*
X6091986Y5346852D01*
X6095288Y5344668D01*
X6096660Y5343296D01*
X6101486Y5340248D01*
X6106922Y5338368D01*
G37*
G36*
X9644888Y5579211D02*
G01*
X9659112Y5579211D01*
X9673132Y5580989D01*
X9686848Y5584596D01*
X9695738Y5588203D01*
X9699548Y5588965D01*
X10030663Y5588965D01*
X10042296Y5587847D01*
X10055910Y5588304D01*
X10069322Y5590540D01*
X10082276Y5594553D01*
X10094620Y5600293D01*
X10106101Y5607608D01*
X10116515Y5616397D01*
X10125608Y5626506D01*
X10133330Y5637682D01*
X10139426Y5649823D01*
X10143896Y5662676D01*
X10146639Y5676036D01*
X10147554Y5689600D01*
X10146639Y5703163D01*
X10143896Y5716524D01*
X10139426Y5729376D01*
X10133330Y5741517D01*
X10125608Y5752693D01*
X10116515Y5762802D01*
X10106101Y5771591D01*
X10094620Y5778906D01*
X10082276Y5784646D01*
X10069322Y5788660D01*
X10055910Y5790895D01*
X10042296Y5791352D01*
X10030663Y5790234D01*
X9699752Y5790234D01*
X9695383Y5791250D01*
X9693503Y5792165D01*
X9680041Y5796635D01*
X9666122Y5799328D01*
X9652000Y5800242D01*
X9637877Y5799328D01*
X9623958Y5796635D01*
X9610496Y5792165D01*
X9597694Y5786018D01*
X9585807Y5778246D01*
X9575038Y5769051D01*
X9565487Y5758586D01*
X9557410Y5746953D01*
X9550857Y5734405D01*
X9545929Y5721096D01*
X9542780Y5707278D01*
X9541408Y5693156D01*
X9541865Y5678982D01*
X9544151Y5664962D01*
X9548164Y5651398D01*
X9553905Y5638444D01*
X9561271Y5626303D01*
X9570110Y5615228D01*
X9580270Y5605373D01*
X9591649Y5596890D01*
X9603994Y5589930D01*
X9617151Y5584596D01*
X9630867Y5580989D01*
G37*
G36*
X3955287Y5579211D02*
G01*
X3969512Y5579211D01*
X3983532Y5580989D01*
X3997248Y5584596D01*
X4010406Y5589930D01*
X4022750Y5596890D01*
X4026458Y5599633D01*
X4029303Y5601106D01*
X4032504Y5601665D01*
X4442663Y5601665D01*
X4454296Y5600547D01*
X4467910Y5601004D01*
X4481322Y5603240D01*
X4494276Y5607253D01*
X4506620Y5612993D01*
X4518101Y5620308D01*
X4528515Y5629097D01*
X4537608Y5639206D01*
X4545330Y5650382D01*
X4551426Y5662523D01*
X4555896Y5675376D01*
X4558639Y5688736D01*
X4559554Y5702300D01*
X4558639Y5715863D01*
X4555896Y5729224D01*
X4551426Y5742076D01*
X4545330Y5754217D01*
X4537608Y5765393D01*
X4528515Y5775502D01*
X4518101Y5784291D01*
X4506620Y5791606D01*
X4494276Y5797346D01*
X4481322Y5801360D01*
X4467910Y5803595D01*
X4454296Y5804052D01*
X4442663Y5802934D01*
X3975455Y5802934D01*
X3961942Y5802071D01*
X3934358Y5796635D01*
X3920896Y5792165D01*
X3908094Y5786018D01*
X3896207Y5778246D01*
X3885437Y5769051D01*
X3875887Y5758586D01*
X3867810Y5746953D01*
X3861257Y5734405D01*
X3856329Y5721096D01*
X3853179Y5707278D01*
X3851808Y5693156D01*
X3852265Y5678982D01*
X3854551Y5664962D01*
X3858564Y5651398D01*
X3864305Y5638444D01*
X3871671Y5626303D01*
X3880510Y5615228D01*
X3890670Y5605373D01*
X3902049Y5596890D01*
X3914394Y5589930D01*
X3927551Y5584596D01*
X3941267Y5580989D01*
G37*
G36*
X7235596Y5587847D02*
G01*
X7249210Y5588304D01*
X7262622Y5590540D01*
X7275575Y5594553D01*
X7287920Y5600293D01*
X7299401Y5607608D01*
X7309815Y5616397D01*
X7318908Y5626506D01*
X7326630Y5637682D01*
X7332725Y5649823D01*
X7337196Y5662676D01*
X7339939Y5676036D01*
X7340853Y5689600D01*
X7339939Y5703163D01*
X7337196Y5716524D01*
X7332725Y5729376D01*
X7326630Y5741517D01*
X7318908Y5752693D01*
X7309815Y5762802D01*
X7287564Y5782157D01*
X7276592Y5789472D01*
X7264806Y5795264D01*
X7252360Y5799480D01*
X7239457Y5802071D01*
X7225944Y5802934D01*
X6867652Y5802934D01*
X6863283Y5803950D01*
X6861403Y5804865D01*
X6847941Y5809335D01*
X6834022Y5812028D01*
X6819900Y5812942D01*
X6805777Y5812028D01*
X6791858Y5809335D01*
X6778396Y5804865D01*
X6765594Y5798718D01*
X6753707Y5790946D01*
X6742938Y5781751D01*
X6733387Y5771286D01*
X6725310Y5759653D01*
X6718757Y5747105D01*
X6713829Y5733796D01*
X6710680Y5719978D01*
X6709308Y5705856D01*
X6709765Y5691682D01*
X6712051Y5677662D01*
X6716064Y5664098D01*
X6721805Y5651144D01*
X6729171Y5639003D01*
X6738010Y5627928D01*
X6748170Y5618073D01*
X6759549Y5609590D01*
X6771894Y5602630D01*
X6785051Y5597296D01*
X6798767Y5593689D01*
X6812788Y5591911D01*
X6827012Y5591911D01*
X6841032Y5593689D01*
X6854748Y5597296D01*
X6863638Y5600903D01*
X6867448Y5601665D01*
X7185456Y5601665D01*
X7187996Y5601309D01*
X7190333Y5600395D01*
X7196124Y5597245D01*
X7208824Y5592318D01*
X7222083Y5589168D01*
G37*
G36*
X11271250Y5598109D02*
G01*
X11271250Y5645150D01*
X11224209Y5645150D01*
X11224818Y5643676D01*
X11231727Y5631992D01*
X11240160Y5621274D01*
X11249964Y5611825D01*
X11260886Y5603748D01*
G37*
G36*
X8464550Y5598109D02*
G01*
X8464550Y5645150D01*
X8417509Y5645150D01*
X8418118Y5643676D01*
X8425027Y5631992D01*
X8433460Y5621274D01*
X8443264Y5611825D01*
X8454186Y5603748D01*
G37*
G36*
X8553450Y5598210D02*
G01*
X8557920Y5600293D01*
X8569401Y5607608D01*
X8579815Y5616397D01*
X8588908Y5626506D01*
X8596630Y5637682D01*
X8600389Y5645150D01*
X8553450Y5645150D01*
G37*
G36*
X11360150Y5598210D02*
G01*
X11364620Y5600293D01*
X11376101Y5607608D01*
X11386515Y5616397D01*
X11395608Y5626506D01*
X11403330Y5637682D01*
X11407089Y5645150D01*
X11360150Y5645150D01*
G37*
G36*
X5683250Y5610809D02*
G01*
X5683250Y5657850D01*
X5636209Y5657850D01*
X5636818Y5656376D01*
X5643727Y5644692D01*
X5652160Y5633974D01*
X5661964Y5624525D01*
X5672886Y5616448D01*
G37*
G36*
X5772150Y5610910D02*
G01*
X5776620Y5612993D01*
X5788101Y5620308D01*
X5798515Y5629097D01*
X5807608Y5639206D01*
X5815330Y5650382D01*
X5819089Y5657850D01*
X5772150Y5657850D01*
G37*
G36*
X8553450Y5734050D02*
G01*
X8600389Y5734050D01*
X8596630Y5741517D01*
X8588908Y5752693D01*
X8579815Y5762802D01*
X8569401Y5771591D01*
X8557920Y5778906D01*
X8553450Y5780989D01*
G37*
G36*
X11360150Y5734050D02*
G01*
X11407089Y5734050D01*
X11403330Y5741517D01*
X11395608Y5752693D01*
X11386515Y5762802D01*
X11376101Y5771591D01*
X11364620Y5778906D01*
X11360150Y5780989D01*
G37*
G36*
X8417509Y5734050D02*
G01*
X8464550Y5734050D01*
X8464550Y5781090D01*
X8454186Y5775452D01*
X8443264Y5767374D01*
X8433460Y5757926D01*
X8425027Y5747207D01*
X8418118Y5735523D01*
G37*
G36*
X11224209Y5734050D02*
G01*
X11271250Y5734050D01*
X11271250Y5781090D01*
X11260886Y5775452D01*
X11249964Y5767374D01*
X11240160Y5757926D01*
X11231727Y5747207D01*
X11224818Y5735523D01*
G37*
G36*
X5772150Y5746750D02*
G01*
X5819089Y5746750D01*
X5815330Y5754217D01*
X5807608Y5765393D01*
X5798515Y5775502D01*
X5788101Y5784291D01*
X5776620Y5791606D01*
X5772150Y5793689D01*
G37*
G36*
X5636209Y5746750D02*
G01*
X5683250Y5746750D01*
X5683250Y5793790D01*
X5672886Y5788152D01*
X5661964Y5780074D01*
X5652160Y5770626D01*
X5643727Y5759907D01*
X5636818Y5748223D01*
G37*
G36*
X9644888Y5833211D02*
G01*
X9659112Y5833211D01*
X9673132Y5834989D01*
X9686848Y5838596D01*
X9695738Y5842203D01*
X9699548Y5842965D01*
X10030663Y5842965D01*
X10042296Y5841847D01*
X10055910Y5842304D01*
X10069322Y5844540D01*
X10082276Y5848553D01*
X10094620Y5854293D01*
X10106101Y5861608D01*
X10116515Y5870397D01*
X10125608Y5880506D01*
X10133330Y5891682D01*
X10139426Y5903823D01*
X10143896Y5916676D01*
X10146639Y5930036D01*
X10147554Y5943600D01*
X10146639Y5957163D01*
X10143896Y5970524D01*
X10139426Y5983376D01*
X10133330Y5995517D01*
X10125608Y6006693D01*
X10116515Y6016802D01*
X10106101Y6025591D01*
X10094620Y6032906D01*
X10082276Y6038646D01*
X10069322Y6042660D01*
X10055910Y6044895D01*
X10042296Y6045352D01*
X10030663Y6044234D01*
X9699752Y6044234D01*
X9695383Y6045250D01*
X9693503Y6046165D01*
X9680041Y6050635D01*
X9666122Y6053328D01*
X9652000Y6054242D01*
X9637877Y6053328D01*
X9623958Y6050635D01*
X9610496Y6046165D01*
X9597694Y6040018D01*
X9585807Y6032246D01*
X9575038Y6023051D01*
X9565487Y6012586D01*
X9557410Y6000953D01*
X9550857Y5988405D01*
X9545929Y5975096D01*
X9542780Y5961278D01*
X9541408Y5947156D01*
X9541865Y5932982D01*
X9544151Y5918962D01*
X9548164Y5905398D01*
X9553905Y5892444D01*
X9561271Y5880303D01*
X9570110Y5869228D01*
X9580270Y5859373D01*
X9591649Y5850890D01*
X9603994Y5843930D01*
X9617151Y5838596D01*
X9630867Y5834989D01*
G37*
G36*
X3955287Y5833211D02*
G01*
X3969512Y5833211D01*
X3983532Y5834989D01*
X3997248Y5838596D01*
X4006138Y5842203D01*
X4009948Y5842965D01*
X4444644Y5842965D01*
X4458157Y5843828D01*
X4471060Y5846419D01*
X4483506Y5850636D01*
X4495292Y5856427D01*
X4506264Y5863742D01*
X4518152Y5874359D01*
X4528515Y5883097D01*
X4537608Y5893206D01*
X4545330Y5904382D01*
X4551426Y5916523D01*
X4555896Y5929376D01*
X4558639Y5942736D01*
X4559554Y5956300D01*
X4558639Y5969863D01*
X4555896Y5983224D01*
X4551426Y5996076D01*
X4545330Y6008217D01*
X4537608Y6019393D01*
X4528515Y6029502D01*
X4518101Y6038291D01*
X4506620Y6045606D01*
X4494276Y6051346D01*
X4481322Y6055360D01*
X4467910Y6057595D01*
X4454296Y6058052D01*
X4440783Y6056731D01*
X4427524Y6053582D01*
X4414824Y6048654D01*
X4409033Y6045504D01*
X4406696Y6044590D01*
X4404156Y6044234D01*
X4010151Y6044234D01*
X4005783Y6045250D01*
X4003903Y6046165D01*
X3990441Y6050635D01*
X3976522Y6053328D01*
X3962400Y6054242D01*
X3948277Y6053328D01*
X3934358Y6050635D01*
X3920896Y6046165D01*
X3908094Y6040018D01*
X3896207Y6032246D01*
X3885437Y6023051D01*
X3875887Y6012586D01*
X3867810Y6000953D01*
X3861257Y5988405D01*
X3856329Y5975096D01*
X3853179Y5961278D01*
X3851808Y5947156D01*
X3852265Y5932982D01*
X3854551Y5918962D01*
X3858564Y5905398D01*
X3864305Y5892444D01*
X3871671Y5880303D01*
X3880510Y5869228D01*
X3890670Y5859373D01*
X3902049Y5850890D01*
X3914394Y5843930D01*
X3927551Y5838596D01*
X3941267Y5834989D01*
G37*
G36*
X7235596Y5841847D02*
G01*
X7249210Y5842304D01*
X7262622Y5844540D01*
X7275575Y5848553D01*
X7287920Y5854293D01*
X7299401Y5861608D01*
X7309815Y5870397D01*
X7318908Y5880506D01*
X7326630Y5891682D01*
X7332725Y5903823D01*
X7337196Y5916676D01*
X7339939Y5930036D01*
X7340853Y5943600D01*
X7339939Y5957163D01*
X7337196Y5970524D01*
X7332725Y5983376D01*
X7326630Y5995517D01*
X7318908Y6006693D01*
X7309815Y6016802D01*
X7287564Y6036157D01*
X7276592Y6043472D01*
X7264806Y6049264D01*
X7252360Y6053480D01*
X7239457Y6056071D01*
X7225944Y6056934D01*
X6867652Y6056934D01*
X6863283Y6057950D01*
X6861403Y6058865D01*
X6847941Y6063335D01*
X6834022Y6066028D01*
X6819900Y6066942D01*
X6805777Y6066028D01*
X6791858Y6063335D01*
X6778396Y6058865D01*
X6765594Y6052718D01*
X6753707Y6044946D01*
X6742938Y6035751D01*
X6733387Y6025286D01*
X6725310Y6013653D01*
X6718757Y6001105D01*
X6713829Y5987796D01*
X6710680Y5973978D01*
X6709308Y5959856D01*
X6709765Y5945682D01*
X6712051Y5931662D01*
X6716064Y5918098D01*
X6721805Y5905144D01*
X6729171Y5893003D01*
X6738010Y5881928D01*
X6748170Y5872073D01*
X6759549Y5863590D01*
X6771894Y5856630D01*
X6785051Y5851296D01*
X6798767Y5847689D01*
X6812788Y5845911D01*
X6827012Y5845911D01*
X6841032Y5847689D01*
X6854748Y5851296D01*
X6863638Y5854903D01*
X6867448Y5855665D01*
X7185456Y5855665D01*
X7187996Y5855309D01*
X7190333Y5854395D01*
X7196124Y5851245D01*
X7208824Y5846318D01*
X7222083Y5843168D01*
G37*
G36*
X8979662Y6092088D02*
G01*
X8988806Y6096965D01*
X8999067Y6104382D01*
X9008160Y6113170D01*
X9015933Y6123127D01*
X9022232Y6134049D01*
X9022588Y6134963D01*
X8979662Y6134963D01*
G37*
G36*
X8901938Y6092088D02*
G01*
X8901938Y6134963D01*
X8859012Y6134963D01*
X8859367Y6134049D01*
X8865666Y6123127D01*
X8873439Y6113170D01*
X8882532Y6104382D01*
X8892794Y6096965D01*
G37*
G36*
X11695938Y6104788D02*
G01*
X11695938Y6147663D01*
X11653012Y6147663D01*
X11653367Y6146749D01*
X11659666Y6135827D01*
X11667439Y6125870D01*
X11676532Y6117082D01*
X11686794Y6109665D01*
G37*
G36*
X11773662Y6104788D02*
G01*
X11782806Y6109665D01*
X11793067Y6117082D01*
X11802160Y6125870D01*
X11809933Y6135827D01*
X11816232Y6146749D01*
X11816588Y6147663D01*
X11773662Y6147663D01*
G37*
G36*
X6160262Y6180988D02*
G01*
X6169406Y6185865D01*
X6179667Y6193282D01*
X6188760Y6202070D01*
X6196533Y6212027D01*
X6202832Y6222949D01*
X6203188Y6223863D01*
X6160262Y6223863D01*
G37*
G36*
X6082538Y6180988D02*
G01*
X6082538Y6223863D01*
X6039612Y6223863D01*
X6039967Y6222949D01*
X6046266Y6212027D01*
X6054039Y6202070D01*
X6063132Y6193282D01*
X6073394Y6185865D01*
G37*

%LPD*%
D12*
X11747500Y6172200D02*
G01*
X12001500Y5829300D01*
X12001500Y5829300D02*
G01*
X12001500Y3643299D01*
X12357100Y5943600D02*
G01*
X12357100Y3632200D01*
X11734800Y6386499D02*
G01*
X11914200Y6386499D01*
X12344400Y5956300D01*
D11*
X5727700Y4178300D02*
G01*
X5308600Y4597400D01*
X5308600Y6400800D01*
X4965700Y6743700D01*
X4064000Y6743700D01*
X3771900Y6451600D01*
X3771900Y457200D01*
X3975100Y254000D01*
X6108700Y254000D01*
X5740400Y622300D01*
D13*
X12496800Y3644900D02*
G01*
X12331700Y3479800D01*
X12331700Y3365500D01*
D12*
X12242800Y3419894D02*
G01*
X12317359Y3494453D01*
X12447948Y3494453D01*
D13*
X12395200Y3262299D02*
G01*
X12509500Y3454400D01*
X12496800Y3644900D02*
G01*
X12346348Y3494453D01*
X12496800Y3465499D02*
G01*
X12496800Y3644900D01*
D12*
X12242800Y3211573D02*
G01*
X12242800Y3644900D01*
X12496800Y3644900D02*
G01*
X12306300Y3644900D01*
X12293600Y3632200D01*
X11785600Y3632200D02*
G01*
X11798300Y3644900D01*
X11988800Y3644900D01*
D13*
X12447948Y3494453D02*
G01*
X12395200Y3494453D01*
D12*
X11861800Y2728973D02*
G01*
X12344400Y3211573D01*
X8394700Y6781800D02*
G01*
X8382000Y6794500D01*
X6311900Y6794500D01*
D13*
X6121400Y6462699D02*
G01*
X6070600Y6513499D01*
X6070600Y6642100D01*
X6223000Y6794500D01*
X6311900Y6794500D01*
X6324600Y6781800D01*
X6440500Y6781800D01*
D12*
X8940800Y6373799D02*
G01*
X8802700Y6373799D01*
X8394700Y6781800D01*
X6440500Y6781800D01*
X6121400Y6462699D01*
D13*
X8940800Y6373799D02*
G01*
X8532799Y6781800D01*
X8394700Y6781800D01*
X11734800Y6386499D02*
G01*
X11377599Y6743700D01*
X11239500Y6743700D01*
D12*
X8940800Y6373799D02*
G01*
X9310700Y6743700D01*
X11239500Y6743700D01*
X11596700Y6386499D01*
X11689618Y6386499D01*
D13*
X8940800Y6373799D02*
G01*
X9310700Y6743700D01*
X11239500Y6743700D01*
X11861800Y2728899D02*
G01*
X12395200Y3262299D01*
X11861800Y2728899D02*
G01*
X11644299Y2728899D01*
X11315700Y2400300D02*
G01*
X11644299Y2728899D01*
D11*
X11315700Y622300D02*
G01*
X11582400Y622300D01*
X12077700Y1117600D01*
X12077700Y2095500D01*
X11861800Y2311400D01*
X11861800Y2528900D01*
D12*
X4457700Y5956300D02*
G01*
X4445000Y5943600D01*
X3962400Y5943600D01*
X3962400Y5689600D02*
G01*
X3975100Y5702300D01*
X4457700Y5702300D01*
X4457700Y5448300D02*
G01*
X4445000Y5435600D01*
X3962400Y5435600D01*
X3962400Y5181600D02*
G01*
X3975100Y5194300D01*
X4457700Y5194300D01*
X4457700Y4940300D02*
G01*
X4457700Y4686300D01*
X7239000Y4927600D02*
G01*
X7239000Y4673600D01*
X6819900Y5194300D02*
G01*
X6832600Y5181600D01*
X7239000Y5181600D01*
X7239000Y5435600D02*
G01*
X7226300Y5448300D01*
X6819900Y5448300D01*
X7239000Y5689600D02*
G01*
X7226300Y5702300D01*
X6819900Y5702300D01*
X7239000Y5943600D02*
G01*
X7226300Y5956300D01*
X6819900Y5956300D01*
X10045700Y5943600D02*
G01*
X9652000Y5943600D01*
X9652000Y5689600D02*
G01*
X10045700Y5689600D01*
X9652000Y5435600D02*
G01*
X10045700Y5435600D01*
X9652000Y5181600D02*
G01*
X10045700Y5181600D01*
X10045700Y4927600D02*
G01*
X10045700Y4673600D01*
X10045700Y1384300D02*
G01*
X10045700Y1130300D01*
X7251700Y1409700D02*
G01*
X7251700Y1155700D01*
X4470400Y2400300D02*
G01*
X3962400Y2400300D01*
X3962400Y2146300D02*
G01*
X4470400Y2146300D01*
X4470400Y1892300D02*
G01*
X3962400Y1892300D01*
X4470400Y1384300D02*
G01*
X4470400Y1130300D01*
X4470400Y1638300D02*
G01*
X3962400Y1638300D01*
X6197600Y1143000D02*
G01*
X6184900Y1130300D01*
X5740400Y1130300D01*
X6197600Y1397000D02*
G01*
X6184900Y1384300D01*
X5740400Y1384300D01*
X6197600Y1651000D02*
G01*
X6184900Y1638300D01*
X5740400Y1638300D01*
X6197600Y1905000D02*
G01*
X6184900Y1892300D01*
X5740400Y1892300D01*
X6807200Y2413000D02*
G01*
X6819900Y2425700D01*
X7251700Y2425700D01*
X6807200Y2159000D02*
G01*
X6819900Y2171700D01*
X7251700Y2171700D01*
X6807200Y1905000D02*
G01*
X6819900Y1917700D01*
X7251700Y1917700D01*
X7251700Y1663700D02*
G01*
X7239000Y1651000D01*
X6807200Y1651000D01*
X10045700Y2400300D02*
G01*
X9664700Y2400300D01*
X9664700Y2146300D02*
G01*
X10045700Y2146300D01*
X10045700Y1638300D02*
G01*
X9664700Y1638300D01*
X9664700Y1892300D02*
G01*
X10045700Y1892300D01*
X8521700Y1917700D02*
G01*
X9017000Y1917700D01*
X9017000Y1663700D02*
G01*
X8521700Y1663700D01*
X8521700Y1409700D02*
G01*
X9017000Y1409700D01*
X9017000Y1155700D02*
G01*
X8521700Y1155700D01*
X11772900Y1117600D02*
G01*
X11760200Y1130300D01*
X11315700Y1130300D01*
X11772900Y1371600D02*
G01*
X11760200Y1384300D01*
X11315700Y1384300D01*
X11772900Y1625600D02*
G01*
X11760200Y1638300D01*
X11315700Y1638300D01*
X11772900Y1879600D02*
G01*
X11760200Y1892300D01*
X11315700Y1892300D01*
X11811000Y4660900D02*
G01*
X11798300Y4673600D01*
X11315700Y4673600D01*
X11315700Y4927600D02*
G01*
X11328400Y4914900D01*
X11811000Y4914900D01*
X11811000Y5168900D02*
G01*
X11798300Y5181600D01*
X11315700Y5181600D01*
X11315700Y5435600D02*
G01*
X11328400Y5422900D01*
X11811000Y5422900D01*
X9017000Y4673600D02*
G01*
X8509000Y4673600D01*
X8509000Y4927600D02*
G01*
X9017000Y4927600D01*
X8509000Y5181600D02*
G01*
X9017000Y5181600D01*
X8509000Y5435600D02*
G01*
X9017000Y5435600D01*
X6197600Y4686300D02*
G01*
X5727700Y4686300D01*
X5727700Y4940300D02*
G01*
X6197600Y4940300D01*
X6197600Y5194300D02*
G01*
X5727700Y5194300D01*
X5727700Y5448300D02*
G01*
X6197600Y5448300D01*
X6121400Y6262700D02*
G01*
X6121400Y6096000D01*
X5727700Y5702300D01*
X6121400Y6462699D02*
G01*
X6043599Y6462699D01*
X5727700Y6146800D01*
X5727700Y5956300D01*
X8940800Y6173800D02*
G01*
X8940800Y6121400D01*
X8509000Y5689600D01*
X8940800Y6373799D02*
G01*
X8812199Y6373799D01*
X8509000Y6070600D01*
X8509000Y5943600D01*
X11734800Y6186500D02*
G01*
X11734800Y6108700D01*
X11315700Y5689600D01*
X11734800Y6386499D02*
G01*
X11618899Y6386499D01*
X11315700Y6083300D01*
X11315700Y5943600D01*
X11861800Y2528900D02*
G01*
X11479199Y2146300D01*
X11315700Y2146300D01*
X11861800Y2728899D02*
G01*
X11644299Y2728899D01*
X11315700Y2400300D01*
X8953500Y2541600D02*
G01*
X8583599Y2171700D01*
X8521700Y2171700D01*
X8953500Y2741599D02*
G01*
X8837599Y2741599D01*
X8521700Y2425700D01*
X6210300Y2452700D02*
G01*
X5903899Y2146300D01*
X5740400Y2146300D01*
X6210300Y2652699D02*
G01*
X5992799Y2652699D01*
X5740400Y2400300D01*
D11*
X9156700Y3365500D02*
G01*
X9639300Y2882900D01*
X11023600Y2882900D01*
X8648700Y3365500D02*
G01*
X9525000Y2489200D01*
X9525000Y914400D01*
X9817100Y622300D01*
X10045700Y622300D01*
X10045700Y876300D02*
G01*
X10248900Y1079500D01*
X10248900Y2591307D01*
X10198608Y2641600D01*
X9626600Y2641600D01*
X8902700Y3365500D01*
X8445500Y901700D02*
G01*
X8521700Y901700D01*
X7251700Y647700D02*
G01*
X7874000Y1270000D01*
X7874000Y2628900D01*
X8394700Y3149600D01*
X8394700Y3365500D01*
X7251700Y901700D02*
G01*
X7759700Y1409700D01*
X7759700Y2857500D01*
X8140700Y3238500D01*
X8140700Y3365500D01*
X4470400Y622300D02*
G01*
X5067300Y1219200D01*
X5067300Y1955800D01*
X6070600Y2959100D01*
X7581900Y2959100D01*
X7886700Y3263900D01*
X7886700Y3365500D01*
X4470400Y876300D02*
G01*
X4876800Y1282700D01*
X4876800Y1955800D01*
X6007100Y3086100D01*
X7366000Y3086100D01*
X7632700Y3352800D01*
X7632700Y3365500D01*
X10045700Y4165600D02*
G01*
X9690100Y3810000D01*
X7835900Y3810000D01*
X7391400Y3365500D01*
X7378700Y3365500D01*
X10045700Y4419600D02*
G01*
X9601200Y3975100D01*
X7708900Y3975100D01*
X7124700Y3390900D01*
X7124700Y3365500D01*
X7239000Y4419600D02*
G01*
X6616700Y3797300D01*
X6616700Y3365500D01*
X7239000Y4165600D02*
G01*
X6870700Y3797300D01*
X6870700Y3365500D01*
X6108700Y3365500D02*
G01*
X5930900Y3543300D01*
X5092700Y3543300D01*
X4457700Y4178300D01*
X4457700Y4432300D02*
G01*
X4965700Y3924300D01*
X5981700Y3924300D01*
X6362700Y3543300D01*
X6362700Y3365500D01*
X9664700Y3365500D02*
G01*
X9410700Y3365500D01*
X11315700Y4165600D02*
G01*
X10515600Y3365500D01*
X9664700Y3365500D01*
X11315700Y4419600D02*
G01*
X11557000Y4178300D01*
X11557000Y3416300D01*
X11023600Y2882900D01*
X11023600Y1066800D01*
X11214100Y876300D01*
X11315700Y876300D01*
X11315700Y4165600D02*
G01*
X10680700Y4800600D01*
X10680700Y4813300D01*
X10642600Y4851400D01*
X10642600Y5829300D01*
X10147300Y6324600D01*
X9677400Y6324600D01*
X9410700Y6057900D01*
X9410700Y4330700D01*
X9245600Y4165600D01*
X8509000Y4165600D01*
X11315700Y4419600D02*
G01*
X10934700Y4800600D01*
X10934700Y5803900D01*
X10185400Y6553200D01*
X10160000Y6553200D01*
X10147300Y6565900D01*
X9677400Y6565900D01*
X9207500Y6096000D01*
X9207500Y4546600D01*
X9080500Y4419600D01*
X8509000Y4419600D01*
X8509000Y4165600D02*
G01*
X7874000Y4800600D01*
X7874000Y5829300D01*
X7366000Y6337300D01*
X7366000Y6350000D01*
X7353300Y6362700D01*
X6858000Y6362700D01*
X6540500Y6045200D01*
X6540500Y4381500D01*
X6337300Y4178300D01*
X5727700Y4178300D01*
X8509000Y4419600D02*
G01*
X8166100Y4762500D01*
X8166100Y5829300D01*
X7391400Y6604000D01*
X6870700Y6604000D01*
X6388100Y6121400D01*
X6388100Y4533900D01*
X6286500Y4432300D01*
X5727700Y4432300D01*
X8521700Y647700D02*
G01*
X8902700Y266700D01*
X10934700Y266700D01*
X11290300Y622300D01*
X11315700Y622300D01*
X8521700Y901700D02*
G01*
X8928100Y495300D01*
X10934700Y495300D01*
X11315700Y876300D01*
X8521700Y647700D02*
G01*
X8128000Y254000D01*
X8128000Y241300D01*
X6096000Y241300D01*
X5740400Y596900D01*
X5740400Y622300D01*
X5740400Y876300D02*
G01*
X6108700Y508000D01*
X8128000Y508000D01*
X8521700Y901700D01*
X6807200Y1651000D02*
G01*
X6819900Y1663700D01*
X7251700Y1663700D01*
X7251700Y1917700D02*
G01*
X7239000Y1905000D01*
X6807200Y1905000D01*
X6807200Y2159000D02*
G01*
X6819900Y2171700D01*
X7251700Y2171700D01*
X6807200Y2413000D02*
G01*
X6819900Y2425700D01*
X7251700Y2425700D01*
X10045700Y1638300D02*
G01*
X9664700Y1638300D01*
X9664700Y1892300D02*
G01*
X10045700Y1892300D01*
X10045700Y2146300D02*
G01*
X9664700Y2146300D01*
X9664700Y2400300D02*
G01*
X10045700Y2400300D01*
X4457700Y4940300D02*
G01*
X4457700Y4686300D01*
X10045700Y1384300D02*
G01*
X10045700Y1130300D01*
X4470400Y1384300D02*
G01*
X4470400Y1244600D01*
X4470400Y1384300D01*
X4470400Y1130300D01*
X4470400Y1638300D02*
G01*
X3962400Y1638300D01*
X4470400Y1892300D02*
G01*
X3962400Y1892300D01*
X4470400Y2146300D02*
G01*
X3962400Y2146300D01*
X4470400Y2400300D02*
G01*
X3962400Y2400300D01*
X11315700Y1130300D02*
G01*
X11760200Y1130300D01*
X11772900Y1117600D01*
X11772900Y1371600D02*
G01*
X11760200Y1384300D01*
X11315700Y1384300D01*
X11315700Y1638300D02*
G01*
X11760200Y1638300D01*
X11772900Y1625600D01*
X11772900Y1879600D02*
G01*
X11760200Y1892300D01*
X11315700Y1892300D01*
X3962400Y5943600D02*
G01*
X3975100Y5956300D01*
X4457700Y5956300D01*
X4457700Y5702300D02*
G01*
X4445000Y5689600D01*
X3962400Y5689600D01*
X4457700Y5448300D02*
G01*
X4445000Y5435600D01*
X3962400Y5435600D01*
X4457700Y5194300D02*
G01*
X4445000Y5181600D01*
X3962400Y5181600D01*
X7239000Y4927600D02*
G01*
X7239000Y4673600D01*
X10045700Y5181600D02*
G01*
X9652000Y5181600D01*
X10045700Y5435600D02*
G01*
X9652000Y5435600D01*
X10045700Y5689600D02*
G01*
X9652000Y5689600D01*
X9652000Y5943600D02*
G01*
X10045700Y5943600D01*
X10045700Y4927600D02*
G01*
X10045700Y4673600D01*
X11315700Y4673600D02*
G01*
X11798300Y4673600D01*
X11811000Y4660900D01*
X11811000Y4914900D02*
G01*
X11328400Y4914900D01*
X11315700Y4927600D01*
X11315700Y5181600D02*
G01*
X11798300Y5181600D01*
X11811000Y5168900D01*
X11811000Y5422900D02*
G01*
X11328400Y5422900D01*
X11315700Y5435600D01*
X6819900Y5194300D02*
G01*
X7226300Y5194300D01*
X7239000Y5181600D01*
X7239000Y5435600D02*
G01*
X7226300Y5448300D01*
X6819900Y5448300D01*
X6819900Y5702300D02*
G01*
X7226300Y5702300D01*
X7239000Y5689600D01*
X6819900Y5956300D02*
G01*
X7226300Y5956300D01*
X7239000Y5943600D01*
X7251700Y1409700D02*
G01*
X7251700Y1155700D01*
X9017000Y1155700D02*
G01*
X8521700Y1155700D01*
X9017000Y1409700D02*
G01*
X8521700Y1409700D01*
X9017000Y1663700D02*
G01*
X8521700Y1663700D01*
X9017000Y1917700D02*
G01*
X8521700Y1917700D01*
X5740400Y1130300D02*
G01*
X5753100Y1143000D01*
X6197600Y1143000D01*
X6197600Y1397000D02*
G01*
X5753100Y1397000D01*
X5740400Y1384300D01*
X5740400Y1638300D02*
G01*
X5753100Y1651000D01*
X6197600Y1651000D01*
X6197600Y1905000D02*
G01*
X5753100Y1905000D01*
X5740400Y1892300D01*
D14*
G01*
X3962400Y5181600D03*
D15*
G01*
X3962400Y5435600D03*
G01*
X3962400Y5689600D03*
G01*
X3962400Y5943600D03*
D14*
G01*
X6819900Y5194300D03*
D15*
G01*
X6819900Y5448300D03*
G01*
X6819900Y5702300D03*
G01*
X6819900Y5956300D03*
D14*
G01*
X9652000Y5181600D03*
D15*
G01*
X9652000Y5435600D03*
G01*
X9652000Y5689600D03*
G01*
X9652000Y5943600D03*
D14*
G01*
X3962400Y1638300D03*
D15*
G01*
X3962400Y1892300D03*
G01*
X3962400Y2146300D03*
G01*
X3962400Y2400300D03*
D14*
G01*
X6807200Y1651000D03*
D15*
G01*
X6807200Y1905000D03*
G01*
X6807200Y2159000D03*
G01*
X6807200Y2413000D03*
D14*
G01*
X9664700Y1638300D03*
D15*
G01*
X9664700Y1892300D03*
G01*
X9664700Y2146300D03*
G01*
X9664700Y2400300D03*
D16*
G01*
X5727700Y5448300D03*
G01*
X5727700Y5702300D03*
G01*
X5727700Y5956300D03*
G01*
X5727700Y5194300D03*
G01*
X5727700Y4940300D03*
G01*
X5727700Y4686300D03*
G01*
X5727700Y4432300D03*
G01*
X5727700Y4178300D03*
G01*
X4457700Y4178300D03*
G01*
X4457700Y4432300D03*
G01*
X4457700Y4686300D03*
G01*
X4457700Y4940300D03*
G01*
X4457700Y5194300D03*
G01*
X4457700Y5448300D03*
G01*
X4457700Y5702300D03*
G01*
X4457700Y5956300D03*
G01*
X8509000Y5435600D03*
G01*
X8509000Y5689600D03*
G01*
X8509000Y5943600D03*
G01*
X8509000Y5181600D03*
G01*
X8509000Y4927600D03*
G01*
X8509000Y4673600D03*
G01*
X8509000Y4419600D03*
G01*
X8509000Y4165600D03*
G01*
X7239000Y4165600D03*
G01*
X7239000Y4419600D03*
G01*
X7239000Y4673600D03*
G01*
X7239000Y4927600D03*
G01*
X7239000Y5181600D03*
G01*
X7239000Y5435600D03*
G01*
X7239000Y5689600D03*
G01*
X7239000Y5943600D03*
G01*
X11315700Y5435600D03*
G01*
X11315700Y5689600D03*
G01*
X11315700Y5943600D03*
G01*
X11315700Y5181600D03*
G01*
X11315700Y4927600D03*
G01*
X11315700Y4673600D03*
G01*
X11315700Y4419600D03*
G01*
X11315700Y4165600D03*
G01*
X10045700Y4165600D03*
G01*
X10045700Y4419600D03*
G01*
X10045700Y4673600D03*
G01*
X10045700Y4927600D03*
G01*
X10045700Y5181600D03*
G01*
X10045700Y5435600D03*
G01*
X10045700Y5689600D03*
G01*
X10045700Y5943600D03*
G01*
X5740400Y1892300D03*
G01*
X5740400Y2146300D03*
G01*
X5740400Y2400300D03*
G01*
X5740400Y1638300D03*
G01*
X5740400Y1384300D03*
G01*
X5740400Y1130300D03*
G01*
X5740400Y876300D03*
G01*
X5740400Y622300D03*
G01*
X4470400Y622300D03*
G01*
X4470400Y876300D03*
G01*
X4470400Y1130300D03*
G01*
X4470400Y1384300D03*
G01*
X4470400Y1638300D03*
G01*
X4470400Y1892300D03*
G01*
X4470400Y2146300D03*
G01*
X4470400Y2400300D03*
G01*
X8521700Y1917700D03*
G01*
X8521700Y2171700D03*
G01*
X8521700Y2425700D03*
G01*
X8521700Y1663700D03*
G01*
X8521700Y1409700D03*
G01*
X8521700Y1155700D03*
G01*
X8521700Y901700D03*
G01*
X8521700Y647700D03*
G01*
X7251700Y647700D03*
G01*
X7251700Y901700D03*
G01*
X7251700Y1155700D03*
G01*
X7251700Y1409700D03*
G01*
X7251700Y1663700D03*
G01*
X7251700Y1917700D03*
G01*
X7251700Y2171700D03*
G01*
X7251700Y2425700D03*
G01*
X11315700Y1892300D03*
G01*
X11315700Y2146300D03*
G01*
X11315700Y2400300D03*
G01*
X11315700Y1638300D03*
G01*
X11315700Y1384300D03*
G01*
X11315700Y1130300D03*
G01*
X11315700Y876300D03*
G01*
X11315700Y622300D03*
G01*
X10045700Y622300D03*
G01*
X10045700Y876300D03*
G01*
X10045700Y1130300D03*
G01*
X10045700Y1384300D03*
G01*
X10045700Y1638300D03*
G01*
X10045700Y1892300D03*
G01*
X10045700Y2146300D03*
G01*
X10045700Y2400300D03*
D14*
G01*
X6197600Y5448300D03*
D15*
G01*
X6197600Y5194300D03*
G01*
X6197600Y4940300D03*
G01*
X6197600Y4686300D03*
D14*
G01*
X9017000Y5435600D03*
D15*
G01*
X9017000Y5181600D03*
G01*
X9017000Y4927600D03*
G01*
X9017000Y4673600D03*
D14*
G01*
X11811000Y5422900D03*
D15*
G01*
X11811000Y5168900D03*
G01*
X11811000Y4914900D03*
G01*
X11811000Y4660900D03*
D14*
G01*
X6197600Y1905000D03*
D15*
G01*
X6197600Y1651000D03*
G01*
X6197600Y1397000D03*
G01*
X6197600Y1143000D03*
D14*
G01*
X9017000Y1917700D03*
D15*
G01*
X9017000Y1663700D03*
G01*
X9017000Y1409700D03*
G01*
X9017000Y1155700D03*
D14*
G01*
X11772900Y1879600D03*
D15*
G01*
X11772900Y1625600D03*
G01*
X11772900Y1371600D03*
G01*
X11772900Y1117600D03*
D17*
G01*
X11734800Y6386499D03*
G01*
X11734800Y6186500D03*
D15*
G01*
X9664700Y3365500D03*
G01*
X9410700Y3365500D03*
G01*
X9156700Y3365500D03*
G01*
X8902700Y3365500D03*
G01*
X8648700Y3365500D03*
G01*
X8394700Y3365500D03*
G01*
X8140700Y3365500D03*
G01*
X7886700Y3365500D03*
G01*
X7632700Y3365500D03*
G01*
X7378700Y3365500D03*
G01*
X7124700Y3365500D03*
G01*
X6870700Y3365500D03*
G01*
X6616700Y3365500D03*
G01*
X6362700Y3365500D03*
G36*
X6023698Y3444239D02*
G01*
X6193701Y3444239D01*
X6193701Y3286760D01*
X6023698Y3286760D01*
G37*
D17*
G01*
X11861800Y2728899D03*
G01*
X11861800Y2528900D03*
G01*
X8953500Y2741599D03*
G01*
X8953500Y2541600D03*
G01*
X6121400Y6462699D03*
G01*
X6121400Y6262700D03*
G01*
X8940800Y6373799D03*
G01*
X8940800Y6173800D03*
G01*
X6210300Y2652699D03*
G01*
X6210300Y2452700D03*
G36*
X11649798Y3729901D02*
G01*
X11819801Y3729901D01*
X11819801Y3559898D01*
X11649798Y3559898D01*
G37*
D15*
G01*
X11988800Y3644900D03*
G01*
X12242800Y3644900D03*
G01*
X12496800Y3644900D03*
M02*
