0
SECTION
2
HEADER
9
$INSUNITS
70
4
9
$ACADVER
1
AC1014
9
$HANDSEED
5
FFFF
0
ENDSEC
0
SECTION
2
TABLES
0
TABLE
2
VPORT
5
8
100
AcDbSymbolTable
0
ENDTAB
0
TABLE
2
LTYPE
5
5
100
AcDbSymbolTable
0
LTYPE
5
14
100
AcDbSymbolTableRecord
100
AcDbLinetypeTableRecord
2
BYBLOCK
70
0
0
LTYPE
5
15
100
AcDbSymbolTableRecord
100
AcDbLinetypeTableRecord
2
BYLAYER
70
0
0
ENDTAB
0
TABLE
2
LAYER
5
2
100
AcDbSymbolTable
70
2
0
LAYER
5
50
100
AcDbSymbolTableRecord
100
AcDbLayerTableRecord
2
0
70
0
6
CONTINUOUS
0
ENDTAB
0
TABLE
2
STYLE
5
3
100
AcDbSymbolTable
70
1
0
STYLE
5
11
100
AcDbSymbolTableRecord
100
AcDbTextStyleTableRecord
2
STANDARD
70
0
0
ENDTAB
0
TABLE
2
VIEW
5
6
100
AcDbSymbolTable
70
0
0
ENDTAB
0
TABLE
2
UCS
5
7
100
AcDbSymbolTable
70
0
0
ENDTAB
0
TABLE
2
APPID
5
9
100
AcDbSymbolTable
70
2
0
APPID
5
12
100
AcDbSymbolTableRecord
100
AcDbRegAppTableRecord
2
ACAD
70
0
0
ENDTAB
0
TABLE
2
DIMSTYLE
5
A
100
AcDbSymbolTable
70
1
0
ENDTAB
0
TABLE
2
BLOCK_RECORD
5
1
100
AcDbSymbolTable
70
1
0
BLOCK_RECORD
5
1F
100
AcDbSymbolTableRecord
100
AcDbBlockTableRecord
2
*MODEL_SPACE
0
BLOCK_RECORD
5
1B
100
AcDbSymbolTableRecord
100
AcDbBlockTableRecord
2
*PAPER_SPACE
0
ENDTAB
0
ENDSEC
0
SECTION
2
BLOCKS
0
BLOCK
5
20
100
AcDbEntity
100
AcDbBlockBegin
2
*MODEL_SPACE
0
ENDBLK
5
21
100
AcDbEntity
100
AcDbBlockEnd
0
BLOCK
5
1C
100
AcDbEntity
100
AcDbBlockBegin
2
*PAPER_SPACE
0
ENDBLK
5
1D
100
AcDbEntity
100
AcDbBlockEnd
0
ENDSEC
0
SECTION
2
ENTITIES
0
LWPOLYLINE
5
100
100
AcDbEntity
8
0
100
AcDbPolyline
90
4
70
1
43
0.0
10
-1.8611821532130068
20
-134.70257949831586
10
-11.861182153213006
20
-134.70257949831046
10
-11.861182153215291
20
-137.70257949830136
10
-1.8611821532152937
20
-137.70257949830903
0
CIRCLE
5
101
100
AcDbEntity
8
0
100
AcDbCircle
10
-12.361182153225464
20
-88.20257949829049
30
-8.8817841970012523e-15
40
1.4999999999999991
210
2.5612858821302129e-45
220
7.4892070459920529e-32
230
1
0
CIRCLE
5
102
100
AcDbEntity
8
0
100
AcDbCircle
10
18.638817846774536
20
-88.202579498291556
30
-8.8817841970012523e-15
40
1.5000000000000013
210
3.0814879110187662e-33
220
-2.3715542692706051e-32
230
1
0
CIRCLE
5
103
100
AcDbEntity
8
0
100
AcDbCircle
10
3.1388178467735455
20
-117.70257949829102
30
0
40
1.4999999999999971
210
3.0814879110187662e-33
220
-2.3715542692706051e-32
230
1
0
CIRCLE
5
104
100
AcDbEntity
8
0
100
AcDbCircle
10
-16.861182153230658
20
-9.2025794983108202
30
0
40
1.4999999999999991
210
2.5612858821302129e-45
220
7.4892070459920529e-32
230
1
0
LWPOLYLINE
5
105
100
AcDbEntity
8
0
100
AcDbPolyline
90
4
70
1
43
0.0
10
18.138817846777751
20
-7.7025794983127058
10
8.1388178467814249
20
-7.702579498312355
10
8.1388178467813326
20
-10.70257949831133
10
18.138817846777872
20
-10.702579498311335
0
CIRCLE
5
106
100
AcDbEntity
8
0
100
AcDbCircle
10
3.1388178467775454
20
2.2974205017089822
30
0
40
1.5000000000000018
210
-8.1106429976977475e-46
220
-2.3715542692705947e-32
230
1
0
CIRCLE
5
107
100
AcDbEntity
8
0
100
AcDbCircle
10
3.1388178467750567
20
-72.702579498291016
30
-8.8817841970012523e-15
40
12.000000000000002
210
2.5612858821302129e-45
220
7.4892070459920529e-32
230
1
0
CIRCLE
5
108
100
AcDbEntity
8
0
100
AcDbCircle
10
23.138817846758876
20
-136.20257949830773
30
0
40
1.4999999999999991
210
2.5612858821302129e-45
220
7.4892070459920529e-32
230
1
0
LWPOLYLINE
5
109
100
AcDbEntity
8
0
100
AcDbPolyline
90
4
70
1
43
0.0
10
18.138817846776103
20
-134.70257949832285
10
8.1388178467765222
20
-134.70257949831995
10
8.1388178467753338
20
-137.70257949831313
10
18.138817846774916
20
-137.70257949831375
0
CIRCLE
5
110
100
AcDbEntity
8
0
100
AcDbCircle
10
-12.361182153224426
20
-57.20257949829049
30
-8.8817841970012523e-15
40
1.5000000000000013
210
3.0814879110187662e-33
220
-2.3715542692706051e-32
230
1
0
CIRCLE
5
111
100
AcDbEntity
8
0
100
AcDbCircle
10
3.1388178467740491
20
-102.70257949829102
30
0
40
1.5000000000000002
210
2.5612858821302129e-45
220
7.4892070459920529e-32
230
1
0
CIRCLE
5
112
100
AcDbEntity
8
0
100
AcDbCircle
10
-16.861182153223059
20
-136.20257949830633
30
0
40
1.4999999999999991
210
2.5612858821302129e-45
220
7.4892070459920529e-32
230
1
0
LWPOLYLINE
5
113
100
AcDbEntity
8
0
100
AcDbPolyline
90
4
70
1
43
0.0
10
-1.8611821532054362
20
-7.7025794983364202
10
-11.86118215320819
20
-7.7025794983849014
10
-11.861182153208807
20
-10.702579498383532
10
-1.8611821532074926
20
-10.702579498335396
0
CIRCLE
5
114
100
AcDbEntity
8
0
100
AcDbCircle
10
3.1388178467725378
20
-147.70257949829102
30
0
40
1.5000000000000018
210
-8.1106429976977475e-46
220
-2.3715542692705947e-32
230
1
0
CIRCLE
5
115
100
AcDbEntity
8
0
100
AcDbCircle
10
3.1388178467760519
20
-42.702579498291016
30
0
40
1.5000000000000002
210
2.5612858821302129e-45
220
7.4892070459920529e-32
230
1
0
CIRCLE
5
116
100
AcDbEntity
8
0
100
AcDbCircle
10
23.138817846775069
20
-9.202579498312188
30
-8.8817841970012523e-15
40
1.4999999999999991
210
2.5612858821302129e-45
220
7.4892070459920529e-32
230
1
0
CIRCLE
5
117
100
AcDbEntity
8
0
100
AcDbCircle
10
18.638817846775581
20
-57.202579498291556
30
-8.8817841970012523e-15
40
1.5000000000000013
210
3.0814879110187662e-33
220
-2.3715542692706051e-32
230
1
0
CIRCLE
5
118
100
AcDbEntity
8
0
100
AcDbCircle
10
3.1388178467765497
20
-27.702579498291016
30
0
40
1.4999999999999971
210
3.0814879110187662e-33
220
-2.3715542692706051e-32
230
1
0
LWPOLYLINE
5
119
100
AcDbEntity
8
0
100
AcDbPolyline
90
4
70
1
43
0.0
10
28.138817846766557
20
-177.70257949831304
10
-21.86118215323355
20
-177.70257949831131
10
-21.861182153226405
20
32.297420501688656
10
28.138817846773595
20
32.297420501686958
0
ENDSEC
0
SECTION
2
OBJECTS
0
DICTIONARY
5
C
100
AcDbDictionary
3
ACAD_GROUP
350
D
3
ACAD_MLINESTYLE
350
17
0
DICTIONARY
5
D
100
AcDbDictionary
0
DICTIONARY
5
1A
330
C
100
AcDbDictionary
0
DICTIONARY
5
17
100
AcDbDictionary
0
ENDSEC
0
EOF
