0
SECTION
2
HEADER
9
$INSUNITS
70
4
9
$ACADVER
1
AC1014
9
$HANDSEED
5
FFFF
0
ENDSEC
0
SECTION
2
TABLES
0
TABLE
2
VPORT
5
8
100
AcDbSymbolTable
0
ENDTAB
0
TABLE
2
LTYPE
5
5
100
AcDbSymbolTable
0
LTYPE
5
14
100
AcDbSymbolTableRecord
100
AcDbLinetypeTableRecord
2
BYBLOCK
70
0
0
LTYPE
5
15
100
AcDbSymbolTableRecord
100
AcDbLinetypeTableRecord
2
BYLAYER
70
0
0
ENDTAB
0
TABLE
2
LAYER
5
2
100
AcDbSymbolTable
70
2
0
LAYER
5
50
100
AcDbSymbolTableRecord
100
AcDbLayerTableRecord
2
0
70
0
6
CONTINUOUS
0
ENDTAB
0
TABLE
2
STYLE
5
3
100
AcDbSymbolTable
70
1
0
STYLE
5
11
100
AcDbSymbolTableRecord
100
AcDbTextStyleTableRecord
2
STANDARD
70
0
0
ENDTAB
0
TABLE
2
VIEW
5
6
100
AcDbSymbolTable
70
0
0
ENDTAB
0
TABLE
2
UCS
5
7
100
AcDbSymbolTable
70
0
0
ENDTAB
0
TABLE
2
APPID
5
9
100
AcDbSymbolTable
70
2
0
APPID
5
12
100
AcDbSymbolTableRecord
100
AcDbRegAppTableRecord
2
ACAD
70
0
0
ENDTAB
0
TABLE
2
DIMSTYLE
5
A
100
AcDbSymbolTable
70
1
0
ENDTAB
0
TABLE
2
BLOCK_RECORD
5
1
100
AcDbSymbolTable
70
1
0
BLOCK_RECORD
5
1F
100
AcDbSymbolTableRecord
100
AcDbBlockTableRecord
2
*MODEL_SPACE
0
BLOCK_RECORD
5
1B
100
AcDbSymbolTableRecord
100
AcDbBlockTableRecord
2
*PAPER_SPACE
0
ENDTAB
0
ENDSEC
0
SECTION
2
BLOCKS
0
BLOCK
5
20
100
AcDbEntity
100
AcDbBlockBegin
2
*MODEL_SPACE
0
ENDBLK
5
21
100
AcDbEntity
100
AcDbBlockEnd
0
BLOCK
5
1C
100
AcDbEntity
100
AcDbBlockBegin
2
*PAPER_SPACE
0
ENDBLK
5
1D
100
AcDbEntity
100
AcDbBlockEnd
0
ENDSEC
0
SECTION
2
ENTITIES
0
CIRCLE
5
100
100
AcDbEntity
8
0
100
AcDbCircle
10
-15.500000000000767
20
-15.500000000000028
30
0
40
1.4999999999999991
210
0
220
-0
230
1
0
CIRCLE
5
101
100
AcDbEntity
8
0
100
AcDbCircle
10
15.499999999999229
20
-15.500000000000036
30
0
40
1.4999999999999991
210
0
220
-0
230
1
0
CIRCLE
5
102
100
AcDbEntity
8
0
100
AcDbCircle
10
15.499999999999236
20
15.499999999999957
30
0
40
1.5000000000000013
210
0
220
-0
230
1
0
CIRCLE
5
103
100
AcDbEntity
8
0
100
AcDbCircle
10
-15.500000000000755
20
15.499999999999968
30
0
40
1.5000000000000013
210
0
220
-0
230
1
0
CIRCLE
5
104
100
AcDbEntity
8
0
100
AcDbCircle
10
-7.638334409421077e-13
20
-3.5527136788005009e-14
30
0
40
11.500000000000002
210
0
220
-0
230
1
0
LWPOLYLINE
5
105
100
AcDbEntity
8
0
100
AcDbPolyline
90
136
70
1
43
0.0
10
61.999999999999204
20
4.9999999999999512
10
61.999999999999183
20
-5.00000000000004
10
64.999999999999218
20
-5.0000000000000355
10
64.999999999999218
20
-15.000000000000036
10
61.999999999999162
20
-15.000000000000034
10
61.999999999999183
20
-18.399999999999789
10
57.999999999999226
20
-18.39999999999943
10
57.999999999999226
20
-17.000000000000057
10
53.999999999999211
20
-17.000000000000856
10
53.999999999999218
20
-18.399999999999071
10
47.999999999999297
20
-18.399999999998538
10
47.999999999999318
20
-21.599999999997898
10
53.99999999999924
20
-21.599999999998658
10
53.999999999999247
20
-23.00000000000146
10
57.999999999999218
20
-23.00000000000006
10
57.999999999999218
20
-21.599999999999167
10
61.999999999999183
20
-21.599999999999675
10
61.999999999999595
20
-25.000000000000028
10
24.999999999999247
20
-61.999999999999993
10
21.599999999999135
20
-62.000000000000348
10
21.599999999999003
20
-58.00000000000027
10
22.999999999999318
20
-58.000000000000291
10
23.000000000000774
20
-54.000000000000263
10
21.599999999998868
20
-54.000000000000256
10
21.599999999998669
20
-48.000000000000178
10
18.399999999996076
20
-48.000000000000149
10
18.399999999997192
20
-54.000000000000227
10
16.999999999999368
20
-54.000000000000213
10
16.999999999999321
20
-58.00000000000022
10
18.399999999997934
20
-58.000000000000242
10
18.399999999998677
20
-62.000000000000348
10
14.999999999999227
20
-61.999999999999957
10
14.999999999999245
20
-65.000000000000028
10
4.9999999999992433
20
-65.000000000000028
10
4.9999999999992291
20
-61.999999999999993
10
-5.0000000000007638
20
-61.999999999999972
10
-5.0000000000007416
20
-65.000000000000028
10
-15.000000000000744
20
-65.000000000000028
10
-15.000000000000744
20
-61.999999999999901
10
-18.400000000000187
20
-62.000000000000369
10
-18.399999999999395
20
-58.000000000000028
10
-17.000000000000778
20
-58.000000000000028
10
-17.000000000001581
20
-54.000000000000014
10
-18.399999999998606
20
-54.000000000000021
10
-18.399999999997416
20
-48.000000000000185
10
-21.600000000000001
20
-48.000000000000028
10
-21.600000000000279
20
-54.000000000000028
10
-23.000000000002181
20
-54.000000000000043
10
-23.000000000000785
20
-58.000000000000028
10
-21.60000000000046
20
-58.000000000000028
10
-21.600000000000641
20
-62.000000000000369
10
-25.000000000000764
20
-62.000000000000369
10
-62.000000000000725
20
-25.000000000000021
10
-62.000000000000725
20
-21.60000000000009
10
-58.000000000001009
20
-21.600000000000136
10
-58.00000000000103
20
-23.000000000000146
10
-54.000000000001016
20
-23.000000000000178
10
-54.000000000000995
20
-21.600000000000179
10
-48.000000000000952
20
-21.600000000000243
10
-48.000000000000938
20
-18.400000000000244
10
-54.000000000000952
20
-18.40000000000018
10
-54.000000000000938
20
-17.000000000000192
10
-58.000000000000966
20
-17.000000000000146
10
-58.000000000000981
20
-18.400000000000137
10
-62.000000000000725
20
-18.400000000000095
10
-62.000000000000682
20
-15.000000000000027
10
-65.000000000000739
20
-15.000000000000027
10
-65.000000000000739
20
-5.0000000000000266
10
-62.000000000000732
20
-5.0000000000000311
10
-62.000000000000732
20
4.99999999999996
10
-65.000000000000739
20
4.9999999999999556
10
-65.000000000000739
20
14.999999999999956
10
-62.000000000000682
20
14.999999999999956
10
-62.000000000000739
20
18.399999999999967
10
-58.00000000000076
20
18.399999999999967
10
-58.00000000000076
20
16.999999999999961
10
-54.000000000000753
20
16.999999999999972
10
-54.000000000000753
20
18.399999999999967
10
-48.000000000000881
20
18.399999999999977
10
-48.000000000000789
20
21.599999999999973
10
-54.000000000000767
20
21.599999999999969
10
-54.000000000000767
20
22.999999999999975
10
-58.000000000000767
20
22.999999999999968
10
-58.000000000000767
20
21.599999999999966
10
-62.000000000000739
20
21.599999999999966
10
-62.000000000001087
20
24.999999999999979
10
-25.000000000000746
20
61.999999999999943
10
-21.600000000000804
20
62.000000000000277
10
-21.600000000000854
20
58.00000000000022
10
-23.000000000000856
20
58.000000000000242
10
-23.000000000000909
20
54.000000000000213
10
-21.600000000000904
20
54.000000000000199
10
-21.600000000000975
20
48.000000000000199
10
-18.400000000000972
20
48.000000000000171
10
-18.400000000000901
20
54.000000000000163
10
-17.000000000000902
20
54.000000000000142
10
-17.000000000000856
20
58.000000000000171
10
-18.400000000000855
20
58.000000000000185
10
-18.400000000000809
20
62.000000000000277
10
-15.000000000000746
20
61.999999999999886
10
-15.000000000000743
20
64.999999999999943
10
-5.0000000000007407
20
64.999999999999943
10
-5.0000000000007496
20
61.999999999999922
10
4.999999999999245
20
61.999999999999922
10
4.9999999999992406
20
64.999999999999943
10
14.99999999999924
20
64.999999999999943
10
14.99999999999924
20
61.999999999999872
10
18.399999999999245
20
62.000000000000277
10
18.399999999999245
20
57.999999999999957
10
16.999999999999247
20
57.999999999999957
10
16.999999999999247
20
53.99999999999995
10
18.399999999999245
20
53.99999999999995
10
18.399999999999245
20
47.999999999999957
10
21.599999999999241
20
47.999999999999957
10
21.599999999999241
20
53.99999999999995
10
22.999999999999247
20
53.99999999999995
10
22.999999999999247
20
57.999999999999957
10
21.599999999999241
20
57.999999999999957
10
21.599999999999241
20
62.000000000000277
10
24.999999999999247
20
62.000000000000298
10
61.99999999999919
20
24.999999999999943
10
61.999999999999183
20
21.599999999999614
10
57.999999999999488
20
21.599999999999156
10
57.99999999999951
20
23.000000000000043
10
53.999999999999474
20
23.000000000001499
10
53.99999999999946
20
21.599999999998701
10
47.999999999999375
20
21.599999999998015
10
47.999999999999361
20
18.399999999998652
10
53.999999999999424
20
18.399999999999114
10
53.999999999999417
20
17.000000000000085
10
57.999999999999432
20
17.000000000000043
10
57.999999999999446
20
18.399999999999416
10
61.999999999999183
20
18.399999999999729
10
61.999999999999162
20
14.99999999999995
10
64.999999999999218
20
14.999999999999947
10
64.999999999999218
20
4.9999999999999467
0
ENDSEC
0
SECTION
2
OBJECTS
0
DICTIONARY
5
C
100
AcDbDictionary
3
ACAD_GROUP
350
D
3
ACAD_MLINESTYLE
350
17
0
DICTIONARY
5
D
100
AcDbDictionary
0
DICTIONARY
5
1A
330
C
100
AcDbDictionary
0
DICTIONARY
5
17
100
AcDbDictionary
0
ENDSEC
0
EOF
